<?xml version="1.0" encoding="UTF-8"?>
<svg version="1.1" xmlns="http://www.w3.org/2000/svg" width="512" height="512">
<path d="M0 0 C1.09328809 -0.00480972 1.09328809 -0.00480972 2.20866281 -0.0097166 C4.64005528 -0.0179884 7.0711996 -0.01210229 9.5025959 -0.00622082 C11.26778962 -0.00924279 13.03298202 -0.0131325 14.79817212 -0.01781338 C19.64068738 -0.02809622 24.48312863 -0.02591082 29.32564998 -0.02163279 C34.55138812 -0.0191661 39.77710843 -0.02817902 45.00284004 -0.03567028 C55.23742706 -0.04842081 65.47198784 -0.05021053 75.70658146 -0.04787002 C84.02533978 -0.04608712 92.34409015 -0.0478359 100.66284752 -0.05209446 C102.43867271 -0.05298724 102.43867271 -0.05298724 104.25037316 -0.05389806 C106.65541958 -0.05510981 109.060466 -0.05632395 111.46551241 -0.05754044 C134.02098698 -0.06841731 156.57644661 -0.06625277 179.13192202 -0.06015559 C199.76582906 -0.05498613 220.3996889 -0.0662424 241.03358661 -0.08525381 C262.22162514 -0.10462612 283.40964134 -0.11288929 304.59768879 -0.10913056 C316.49270247 -0.10721762 328.38767596 -0.10971519 340.28268242 -0.1238451 C350.40883573 -0.1357521 360.53492413 -0.1371714 370.66107832 -0.12505493 C375.8268447 -0.11916154 380.9924923 -0.11807963 386.15825081 -0.13005733 C390.88944561 -0.1408999 395.62042222 -0.13783207 400.35160674 -0.12379565 C402.06082079 -0.12114426 403.77005185 -0.12352914 405.47924922 -0.13153151 C422.31363565 -0.20486263 435.73702461 3.28435879 448.35931587 15.11775684 C459.14632677 26.64216107 462.66495903 39.0723389 462.62674141 54.46765614 C462.63048091 55.81808231 462.63508363 57.16850632 462.64047205 58.51892692 C462.65268064 62.21968529 462.65244412 65.92035311 462.6500833 69.62112701 C462.64967459 73.61651329 462.66071957 77.61187075 462.67019844 81.60724354 C462.68679817 89.43161109 462.69230754 97.2559485 462.6934232 105.08033218 C462.69437425 111.44257657 462.69848743 117.80481103 462.70482445 124.16705227 C462.72243484 142.21562163 462.73166375 160.26416722 462.7301635 178.31274524 C462.73004363 179.7716813 462.73004363 179.7716813 462.72992134 181.26009083 C462.72983958 182.23390624 462.72975782 183.20772165 462.72967358 184.21104661 C462.72886096 199.98732694 462.74799306 215.76351173 462.77619807 231.53976443 C462.80494776 247.74894866 462.81873719 263.95808634 462.81701052 280.16729671 C462.81634729 289.2633752 462.82181005 298.35935356 462.84336662 307.45540905 C462.86160597 315.20123145 462.86590327 322.94690835 462.85234778 330.69274297 C462.84583169 334.64162473 462.84565131 338.59022755 462.86305428 342.53908253 C462.87885105 346.16087889 462.87585492 349.7821767 462.85848601 353.4039614 C462.85399363 355.3204403 462.86902159 357.23693507 462.8849653 359.15335292 C462.79070012 371.06389979 459.68167247 380.83750256 452.35931587 390.25447559 C451.82306587 390.95443653 451.28681587 391.65439747 450.73431587 392.37556934 C443.06686536 401.76464647 432.19679754 407.90198947 420.35931587 410.25447559 C417.81680904 410.42630971 415.26693805 410.50724119 412.71863174 410.50895119 C411.98977302 410.51215767 411.26091429 410.51536414 410.50996894 410.51866779 C408.07857647 410.52693959 405.64743215 410.52105348 403.21603584 410.515172 C401.45084213 410.51819397 399.68564972 410.52208368 397.92045963 410.52676457 C393.07794436 410.53704741 388.23550311 410.53486201 383.39298177 410.53058398 C378.16724362 410.52811729 372.94152332 410.53713021 367.7157917 410.54462147 C357.48120469 410.557372 347.24664391 410.55916172 337.01205029 410.5568212 C328.69329196 410.55503831 320.3745416 410.55678708 312.05578423 410.56104565 C310.27995903 410.56193843 310.27995903 410.56193843 308.46825858 410.56284925 C306.06321217 410.564061 303.65816575 410.56527513 301.25311933 410.56649163 C278.69764476 410.5773685 256.14218514 410.57520395 233.58670972 410.56910678 C212.95280268 410.56393732 192.31894284 410.57519358 171.68504514 410.594205 C150.4970066 410.6135773 129.3089904 410.62184048 108.12094295 410.61808175 C96.22592927 410.6161688 84.33095578 410.61866638 72.43594933 410.63279629 C62.30979601 410.64470328 52.18370762 410.64612258 42.05755343 410.63400612 C36.89178704 410.62811273 31.72613944 410.62703082 26.56038094 410.63900852 C21.82918613 410.64985108 17.09820953 410.64678326 12.367025 410.63274684 C10.65781095 410.63009544 8.94857989 410.63248033 7.23938252 410.6404827 C-9.59500391 410.71381382 -23.01839287 407.2245924 -35.64068413 395.39119434 C-46.42769503 383.86679012 -49.94632729 371.43661229 -49.90810966 356.04129505 C-49.91184917 354.69086888 -49.91645189 353.34044487 -49.92184031 351.99002427 C-49.9340489 348.2892659 -49.93381237 344.58859808 -49.93145156 340.88782418 C-49.93104284 336.8924379 -49.94208782 332.89708044 -49.9515667 328.90170765 C-49.96816642 321.0773401 -49.9736758 313.25300269 -49.97479145 305.428619 C-49.97574251 299.06637462 -49.97985569 292.70414016 -49.9861927 286.34189892 C-50.00380309 268.29332956 -50.01303201 250.24478396 -50.01153176 232.19620595 C-50.01145184 231.22358191 -50.01137193 230.25095786 -50.0112896 229.24886036 C-50.01120784 228.27504495 -50.01112607 227.30122954 -50.01104183 226.29790457 C-50.01022922 210.52162425 -50.02936132 194.74543946 -50.05756633 178.96918676 C-50.08631602 162.76000253 -50.10010544 146.55086485 -50.09837878 130.34165448 C-50.09771555 121.24557599 -50.1031783 112.14959763 -50.12473488 103.05354214 C-50.14297422 95.30771973 -50.14727152 87.56204284 -50.13371603 79.81620822 C-50.12719995 75.86732646 -50.12701957 71.91872364 -50.14442253 67.96986866 C-50.16021931 64.34807229 -50.15722318 60.72677448 -50.13985427 57.10498979 C-50.13536189 55.18851089 -50.15038985 53.27201611 -50.16633356 51.35559827 C-50.07206837 39.4450514 -46.96304073 29.67144863 -39.64068413 20.25447559 C-39.10443413 19.55451466 -38.56818413 18.85455372 -38.01568413 18.13338184 C-28.60175191 6.60567318 -14.82073728 0.00994522 0 0 Z M2.35931587 52.25447559 C2.35931587 153.23447559 2.35931587 254.21447559 2.35931587 358.25447559 C18.85931587 358.25447559 35.35931587 358.25447559 52.35931587 358.25447559 C52.35931587 284.00447559 52.35931587 209.75447559 52.35931587 133.25447559 C76.4252362 148.15242627 76.4252362 148.15242627 84.29681587 153.19197559 C86.13534102 154.36517856 87.9738832 155.53835484 89.81244087 156.71150684 C90.72574165 157.29496876 91.63904243 157.87843067 92.580019 158.47957325 C97.23267389 161.45083125 101.88959513 164.415381 106.54681587 167.37947559 C107.45979439 167.96060108 108.3727729 168.54172657 109.31341743 169.14046192 C118.31479258 174.86722104 127.33528496 180.56350802 136.35931587 186.25447559 C147.30079439 193.15467353 158.22955256 200.07410814 169.13861275 207.02547169 C173.63989973 209.89245747 178.14479288 212.75335694 182.66009712 215.59822559 C183.50507759 216.13060841 184.35005806 216.66299122 185.220644 217.21150684 C186.79027863 218.1995637 188.36053389 219.18663573 189.9315815 220.17244434 C190.64636665 220.62232716 191.36115181 221.07220997 192.09759712 221.53572559 C192.79449654 221.97013966 193.49139595 222.40455372 194.20941353 222.85213184 C195.74609097 223.8544797 197.24812441 224.91075875 198.72406197 226.00056934 C199.50475044 226.56904591 200.28543892 227.13752247 201.08978462 227.72322559 C201.7886982 228.25367481 202.48761177 228.78412403 203.20770454 229.33064747 C205.3877907 230.53241479 205.3877907 230.53241479 207.90497017 229.54890919 C209.97332625 228.45804835 211.94992857 227.36430962 213.89837837 226.07478809 C214.5511274 225.64689991 215.20387642 225.21901173 215.87640572 224.77815723 C216.57201607 224.31659229 217.26762642 223.85502735 217.98431587 223.37947559 C219.5097409 222.37983607 221.03580613 221.38117293 222.56244087 220.38338184 C223.74676704 219.60825245 223.74676704 219.60825245 224.955019 218.81746387 C228.85805318 216.28017459 232.79495734 213.79735772 236.73431587 211.31697559 C237.52684761 210.81746387 238.31937935 210.31795216 239.1359272 209.80330372 C240.74551203 208.78915624 242.35529393 207.77532146 243.9652729 206.76179981 C247.86921788 204.30381936 251.77083564 201.84215797 255.67181587 199.37947559 C256.44767036 198.88971241 257.22352486 198.39994923 258.02289009 197.89534473 C264.14371946 194.02866821 270.25285378 190.14379274 276.35931587 186.25447559 C287.11221648 179.40575696 297.88936918 172.59601226 308.67279243 165.79549122 C311.00602213 164.32383729 313.33899972 162.85178496 315.67181587 161.37947559 C316.44372261 160.8923711 317.21562935 160.40526661 318.0109272 159.90340137 C322.34255536 157.16758936 326.66827099 154.42275562 330.98822212 151.66853809 C331.9449482 151.0586504 332.90167427 150.4487627 333.88739204 149.82039356 C335.71238699 148.65631566 337.53682016 147.49135628 339.36053658 146.32527637 C346.31521898 141.8885214 353.33058019 137.5798514 360.35931587 133.25447559 C360.35931587 207.50447559 360.35931587 281.75447559 360.35931587 358.25447559 C376.85931587 358.25447559 393.35931587 358.25447559 410.35931587 358.25447559 C410.35931587 257.27447559 410.35931587 156.29447559 410.35931587 52.25447559 C382.21410301 51.40637447 382.21410301 51.40637447 360.82074165 63.48054981 C357.03834536 66.20648628 353.07237516 68.61542046 349.10931587 71.06697559 C347.55867361 72.05212642 346.00922563 73.03915917 344.46087837 74.02791309 C338.50628624 77.81030037 332.49567802 81.50071923 326.48431587 85.19197559 C325.3721772 85.87493702 324.26003853 86.55789845 323.11419868 87.26155567 C320.90457633 88.61842915 318.69494112 89.97528171 316.48529243 91.33211231 C311.93687868 94.12922337 307.39751271 96.94082868 302.85931587 99.75447559 C295.035674 104.60362174 287.19999035 109.43292127 279.35931587 114.25447559 C268.86959963 120.70549374 258.392956 127.17721178 247.92572212 133.66463184 C245.26896286 135.3104477 242.61115471 136.95455803 239.95306587 138.59822559 C239.05692574 139.15276417 238.1607856 139.70730274 237.2374897 140.27864552 C235.4650056 141.37436588 233.69143058 142.46832379 231.91668892 143.5603838 C227.79666473 146.10031723 223.70349638 148.66818042 219.66009712 151.32869434 C218.93089058 151.80282764 218.20168404 152.27696095 217.45038033 152.76546192 C216.09829889 153.64743261 214.75373886 154.54109122 213.41864204 155.44856739 C208.99348908 158.31766198 208.99348908 158.31766198 205.94574165 158.01399708 C203.23289921 157.21735248 201.15083005 156.18414399 198.72650337 154.73494434 C197.84832954 154.21376026 196.97015572 153.69257618 196.06537056 153.15559864 C195.13112251 152.59010303 194.19687447 152.02460743 193.23431587 151.44197559 C191.76333443 150.56182789 191.76333443 150.56182789 190.26263618 149.66389942 C183.38915958 145.53214663 176.5865666 141.29452555 169.82318306 136.98543262 C163.08508847 132.69438893 156.29173119 128.49704568 149.48431587 124.31697559 C148.3721772 123.63401417 147.26003853 122.95105274 146.11419868 122.24739552 C143.90457633 120.89052204 141.69494112 119.53366948 139.48529243 118.17683887 C134.93687868 115.37972782 130.39751271 112.5681225 125.85931587 109.75447559 C118.035674 104.90532945 110.19999035 100.07602992 102.35931587 95.25447559 C94.41534425 90.3690522 86.47545451 85.47724906 78.54681587 80.56697559 C77.7042524 80.04522755 76.86168892 79.5234795 75.99359322 78.98592091 C70.72390034 75.72165302 65.45578455 72.45486331 60.19281197 69.17976856 C58.39788282 68.06954648 56.59744766 66.9681736 54.79144478 65.87605762 C50.96066147 63.55270221 47.25372885 61.25070879 43.76165962 58.43806934 C30.08808802 48.21887373 22.13813092 52.25447559 2.35931587 52.25447559 Z " fill="#D3D3D3" transform="translate(49.64068412780762,50.745524406433105)"/>
</svg>
