<?xml version="1.0" encoding="UTF-8"?>
<svg version="1.1" xmlns="http://www.w3.org/2000/svg" width="512" height="512">
<path d="M0 0 C71.94 0 143.88 0 218 0 C218 71.94 218 143.88 218 218 C181.37 218 144.74 218 107 218 C109.64 224.27 112.28 230.54 115 237 C133.28387155 290.09355009 130.57279414 346.7445218 106.48291016 397.66333008 C97.790335 415.45987158 86.35957124 431.1660876 73.0234375 445.75390625 C71.42588072 447.52725596 69.91616508 449.31683982 68.4375 451.1875 C65.25575756 454.85874127 61.70293694 457.86720732 58 461 C57.04996094 461.83789062 56.09992188 462.67578125 55.12109375 463.5390625 C22.23292685 492.36060679 -22.85938639 511.8082887 -66.87109375 512.23828125 C-67.70222687 512.24812042 -68.53335999 512.25795959 -69.38967896 512.26809692 C-131.2925943 512.8494701 -183.61873486 492.42950591 -228 449 C-230.48946986 446.43967236 -232.76505833 443.78369966 -235 441 C-235.804375 440.03320312 -236.60875 439.06640625 -237.4375 438.0703125 C-271.87830125 396.05976206 -288.36833936 341.79249085 -283.50390625 287.7109375 C-282.09709388 274.55634207 -279.55109791 261.73763381 -276 249 C-275.79568359 248.2565332 -275.59136719 247.51306641 -275.38085938 246.74707031 C-266.69055203 215.99993527 -249.38197355 188.46307164 -227.44335938 165.51074219 C-226.46573162 164.48747417 -225.49320776 163.45930973 -224.52539062 162.42675781 C-191.07393299 126.83319519 -140.42136855 103.60626907 -91.49291992 101.87597656 C-87.43197084 101.79317828 -83.37417222 101.7534104 -79.3125 101.75 C-78.2235997 101.74898788 -78.2235997 101.74898788 -77.11270142 101.74795532 C-51.34421979 101.78577685 -23.37789074 105.31105463 0 117 C0 78.39 0 39.78 0 0 Z M16 15 C16 76.71 16 138.42 16 202 C30.19 202 44.38 202 59 202 C59 212.56 59 223.12 59 234 C65.13761406 229.4912326 65.13761406 229.4912326 70.78125 224.59765625 C71.39178223 224.02063965 72.00231445 223.44362305 72.63134766 222.84912109 C73.24800293 222.25953613 73.8646582 221.66995117 74.5 221.0625 C75.80907508 219.82595344 77.11896267 218.59026645 78.4296875 217.35546875 C79.04682617 216.7732959 79.66396484 216.19112305 80.29980469 215.59130859 C83.45519603 212.63800004 86.68367143 209.77117867 90 207 C90.64599655 206.32177185 91.2919931 205.6435437 91.95756531 204.94476318 C96.38021794 202.11774703 100.24085046 202.4278231 105.38989258 202.45410156 C106.45109912 202.44370724 107.51230566 202.43331291 108.60566998 202.42260361 C112.03545303 202.39349657 115.46463692 202.39153576 118.89453125 202.390625 C121.01413206 202.37662921 123.13372188 202.36085231 125.2532959 202.34326172 C133.10624878 202.290583 140.95940233 202.27238163 148.8125 202.25 C175.1403125 202.12625 175.1403125 202.12625 202 202 C202 140.29 202 78.58 202 15 C140.62 15 79.24 15 16 15 Z M-220.17285156 180.97314453 C-228.97580121 190.73825517 -236.52412464 201.57671676 -243 213 C-243.524729 213.89428711 -243.524729 213.89428711 -244.06005859 214.80664062 C-269.04397862 257.5732979 -273.84759353 308.90415182 -261.69433594 356.37939453 C-256.24822404 376.93444557 -247.33592239 396.64570058 -235 414 C-233.89011719 415.56427734 -233.89011719 415.56427734 -232.7578125 417.16015625 C-227.07151967 424.94191685 -220.87139617 432.23664465 -214 439 C-213.74347656 438.030625 -213.48695313 437.06125 -213.22265625 436.0625 C-208.68454761 419.81697133 -201.22073158 406.68867251 -189 395 C-188.44159424 394.45907715 -187.88318848 393.9181543 -187.30786133 393.36083984 C-181.70076032 388.16528916 -175.44680628 384.49471533 -168.8125 380.75 C-166.6939887 379.53649625 -164.57549836 378.32295591 -162.45703125 377.109375 C-161.0644812 376.31998535 -161.0644812 376.31998535 -159.64379883 375.51464844 C-157.07486021 374.04288787 -154.53333183 372.5320885 -152 371 C-153.48872624 366.74762771 -155.7360613 363.25919296 -158.25 359.5625 C-172.5597462 337.7831755 -176.83441206 312.45477579 -172 287 C-166.85576789 263.67112535 -153.52880156 242.45700548 -133.8046875 228.78515625 C-110.66686185 214.0983804 -84.07575166 208.11890809 -57 214 C-34.70566462 219.70151911 -14.14481739 231.70991158 -1 251 C-0.63567871 251.53431641 -0.27135742 252.06863281 0.10400391 252.61914062 C14.94069178 274.77161469 20.08670583 301.84041697 14.92138672 328.14331055 C11.6119248 342.12420088 5.28549874 357.71450126 -5 368 C-5 368.99 -5 369.98 -5 371 C-4.26998779 371.40726318 -3.53997559 371.81452637 -2.7878418 372.23413086 C-0.01895215 373.78568083 2.7442179 375.34688671 5.50415039 376.91430664 C7.26234678 377.9091225 9.02660433 378.89320219 10.79101562 379.87695312 C18.50672839 384.27031932 25.32282618 389.15263178 32 395 C32.65468262 395.56710693 33.30936523 396.13421387 33.98388672 396.71850586 C46.07530939 407.49157824 52.08084263 423.03756299 57 438 C61.8410458 434.09331612 65.96769276 430.01174805 69.8125 425.125 C70.32530518 424.47644043 70.83811035 423.82788086 71.36645508 423.15966797 C76.83005306 416.1187486 81.530121 408.70060202 86 401 C86.3825293 400.35401855 86.76505859 399.70803711 87.15917969 399.04248047 C112.19044723 356.37409219 116.77273384 304.43798413 104.4609375 257.06640625 C101.50384975 246.41140457 97.40905424 236.12746398 93 226 C88.03886346 230.17186481 83.24423758 234.50624276 78.4777832 238.89746094 C75.05001931 242.05068262 71.57742164 245.14077999 68.05859375 248.19140625 C65.5104335 250.4301125 63.00589407 252.71410212 60.5 255 C48.87096774 265.59677419 48.87096774 265.59677419 43 270 C43 252.84 43 235.68 43 218 C28.81 218 14.62 218 0 218 C0 190.61 0 163.22 0 135 C-74.79203475 97.60398263 -164.69999225 122.00581675 -220.17285156 180.97314453 Z M-139 254 C-153.59546839 272.30188859 -161.00015606 293.45253703 -158.375 316.9375 C-155.31000921 339.65674426 -143.89218673 357.79226803 -126.1875 371.875 C-108.12844693 384.73380219 -86.92316941 389.26041958 -65.06640625 386.50390625 C-44.14199044 382.37500815 -25.19937416 370.99054283 -13 353.375 C-0.70134379 334.4436133 4.22064084 313.10968967 0.38671875 290.6484375 C-5.14838804 267.87403334 -19.06898092 249.51063607 -38.8125 237.1875 C-72.47762548 218.50423664 -112.93724298 226.33277895 -139 254 Z M-142.75219727 383.22827148 C-144.39273071 384.16521851 -144.39273071 384.16521851 -146.06640625 385.12109375 C-146.65993393 385.45867203 -147.25346161 385.79625031 -147.86497498 386.14405823 C-149.12613353 386.86475124 -150.38437429 387.5905703 -151.63989258 388.32104492 C-153.52372673 389.41498442 -155.41788436 390.48887516 -157.31445312 391.56054688 C-164.73568336 395.80296032 -171.51362325 400.38904203 -178 406 C-178.64283936 406.55558594 -179.28567871 407.11117188 -179.94799805 407.68359375 C-189.56369179 416.2683595 -195.69219756 428.76113096 -199 441 C-199.41378906 442.50626953 -199.41378906 442.50626953 -199.8359375 444.04296875 C-200.58204767 447.96275046 -200.88381907 450.65395371 -198.640625 454.0703125 C-196.24638431 456.36247316 -193.75180408 458.1470264 -191 460 C-190.38705078 460.4228125 -189.77410156 460.845625 -189.14257812 461.28125 C-146.70768218 490.42677853 -95.84328582 503.11261923 -44.796875 493.9609375 C-13.68041481 487.80530108 20.16048389 474.83951611 43 452 C43.8336149 438.05084404 35.99516206 422.46865765 27.11938477 412.2109375 C18.2154806 402.30536395 7.05077704 395.54985256 -4.375 388.875 C-5.53519116 388.1719326 -6.69534755 387.46880783 -7.85546875 386.765625 C-8.96277344 386.11851562 -10.07007813 385.47140625 -11.2109375 384.8046875 C-12.20399902 384.21671387 -13.19706055 383.62874023 -14.22021484 383.02294922 C-16.96688906 381.70733727 -16.96688906 381.70733727 -19.73461914 382.74365234 C-21.95143876 383.97306863 -24.00251091 385.27347603 -26.0625 386.75 C-46.73659602 400.76054441 -72.68563467 405.57112772 -97.19775391 400.87084961 C-110.81995986 397.85507674 -122.67058671 392.72217289 -134.171875 384.85546875 C-138.24865522 382.04441092 -138.24865522 382.04441092 -142.75219727 383.22827148 Z " fill="#D3D3D3" transform="translate(289,0)"/>
<path d="M0 0 C0 4.95 0 9.9 0 15 C-2.62953456 15.87651152 -4.46584819 16.18700841 -7.18359375 16.359375 C-38.14322666 18.61217979 -66.07268949 29.00849399 -90 49 C-90.51304688 49.42651855 -91.02609375 49.85303711 -91.5546875 50.29248047 C-117.82363132 72.43606667 -134.48899949 105.95146017 -138 140 C-138.42512955 144.99709417 -138.71915735 149.99163942 -139 155 C-144.28 155 -149.56 155 -155 155 C-156.1515175 113.16153087 -139.23240484 75.37686246 -111 45 C-82.17258803 15.24389428 -41.22376986 -1.31565223 0 0 Z " fill="#D3D3D3" transform="translate(211,153)"/>
<path d="M0 0 C0.65613281 0.53238281 1.31226563 1.06476562 1.98828125 1.61328125 C2.92607422 2.36544922 2.92607422 2.36544922 3.8828125 3.1328125 C11.81471547 10.23523542 16.26835774 20.84035709 17.23828125 31.3125 C17.72739443 43.00536196 14.34568836 53.51945446 6.98828125 62.61328125 C6.51003906 63.226875 6.03179687 63.84046875 5.5390625 64.47265625 C0.37333645 70.35403704 -6.84248113 73.74034681 -14.01171875 76.61328125 C-15.33171875 76.61328125 -16.65171875 76.61328125 -18.01171875 76.61328125 C-18.01171875 83.21328125 -18.01171875 89.81328125 -18.01171875 96.61328125 C-23.29171875 96.61328125 -28.57171875 96.61328125 -34.01171875 96.61328125 C-34.12683743 92.43063575 -34.22624224 88.25352739 -34.28637695 84.07055664 C-34.31145022 82.64946834 -34.34551874 81.22850812 -34.38891602 79.80786133 C-34.44989733 77.75960663 -34.47799637 75.71306242 -34.5 73.6640625 C-34.52618408 72.43341064 -34.55236816 71.20275879 -34.5793457 69.93481445 C-33.85506858 65.69662507 -32.32048929 64.26299772 -29.01171875 61.61328125 C-26.3984375 60.828125 -26.3984375 60.828125 -23.69921875 60.55078125 C-15.28972679 59.29782339 -9.89645433 56.47557572 -4.48828125 49.8203125 C-0.08899508 43.2446599 1.05578162 36.07580566 -0.4453125 28.39453125 C-2.32638975 21.57124484 -6.11829529 16.08506936 -12.140625 12.26171875 C-19.1902895 8.65249825 -25.92088388 7.19343858 -33.71484375 9.3671875 C-41.0408787 12.16380264 -45.7654641 15.25655454 -49.26171875 22.48828125 C-49.761875 23.49632813 -50.26203125 24.504375 -50.77734375 25.54296875 C-52.29921211 29.00988184 -52.29921211 29.00988184 -53.01171875 34.61328125 C-58.29171875 34.61328125 -63.57171875 34.61328125 -69.01171875 34.61328125 C-69.01171875 22.02363542 -65.38777256 13.04398417 -57.01171875 3.61328125 C-41.23568382 -11.09267379 -17.56128162 -12.938202 0 0 Z " fill="#D3D3D3" transform="translate(424.01171875,45.38671875)"/>
<path d="M0 0 C5.28 0 10.56 0 16 0 C16.556875 1.711875 17.11375 3.42375 17.6875 5.1875 C20.02575894 11.54235007 22.8939183 14.94292918 28.75 18.3125 C33.90709836 20.68747951 38.70029295 21.01947073 44.13671875 19.33984375 C50.11834144 16.70792977 54.48188013 12.59765765 57.03515625 6.546875 C57.76482353 4.38841737 58.39192822 2.19581475 59 0 C64.28 0 69.56 0 75 0 C73.58153009 11.08985566 70.84477197 21.36535346 61.87890625 28.74609375 C52.24906224 35.97223254 42.99569728 38.23505996 31 37 C21.21423595 35.06715965 13.39068229 30.51388009 7.15234375 22.6796875 C2.76891681 15.98069105 0 8.05932889 0 0 Z " fill="#D3D3D3" transform="translate(173,319)"/>
<path d="M0 0 C16.83 0 33.66 0 51 0 C51 8.25 51 16.5 51 25 C34.17 25 17.34 25 0 25 C0 16.75 0 8.5 0 0 Z " fill="#D3D3D3" transform="translate(244,418)"/>
<path d="M0 0 C5.28 0 10.56 0 16 0 C16 7.26 16 14.52 16 22 C10.72 22 5.44 22 0 22 C0 14.74 0 7.48 0 0 Z " fill="#D3D3D3" transform="translate(232,272)"/>
<path d="M0 0 C5.28 0 10.56 0 16 0 C16 7.26 16 14.52 16 22 C10.72 22 5.44 22 0 22 C0 14.74 0 7.48 0 0 Z " fill="#D3D3D3" transform="translate(173,272)"/>
<path d="M0 0 C5.28 0 10.56 0 16 0 C16 5.28 16 10.56 16 16 C10.72 16 5.44 16 0 16 C0 10.72 0 5.44 0 0 Z " fill="#D3D3D3" transform="translate(202,458)"/>
<path d="M0 0 C5.28 0 10.56 0 16 0 C16 5.28 16 10.56 16 16 C10.72 16 5.44 16 0 16 C0 10.72 0 5.44 0 0 Z " fill="#D3D3D3" transform="translate(202,418)"/>
<path d="M0 0 C5.28 0 10.56 0 16 0 C16 5.28 16 10.56 16 16 C10.72 16 5.44 16 0 16 C0 10.72 0 5.44 0 0 Z " fill="#D3D3D3" transform="translate(390,158)"/>
</svg>
