<?xml version="1.0" encoding="UTF-8"?>
<svg version="1.1" xmlns="http://www.w3.org/2000/svg" width="1080" height="1080">
<path d="M0 0 C356.4 0 712.8 0 1080 0 C1080 356.4 1080 712.8 1080 1080 C723.6 1080 367.2 1080 0 1080 C0 723.6 0 367.2 0 0 Z " fill="#FEFEFE" transform="translate(0,0)"/>
<path d="M0 0 C3.00070331 0.00532727 6.00125451 0.00003681 9.00195312 -0.00634766 C30.3441712 -0.01704704 51.46069762 1.07688435 72.69873047 3.17724609 C76.02953357 3.50577973 79.36130576 3.82261306 82.69335938 4.13818359 C93.00130766 5.1298075 103.28887661 6.22469172 113.54882812 7.63427734 C114.38793732 7.74569061 115.22704651 7.85710388 116.09158325 7.97189331 C131.28647989 10.15854266 144.28627354 18.27275693 154.27539062 29.81787109 C165.26559863 44.64187259 168.52820675 61.01671334 167.90039062 79.13037109 C168.99609375 79.08396484 170.09179688 79.03755859 171.22070312 78.98974609 C197.40169874 78.25356425 234.70305552 80.61864055 256.11132812 98.33740234 C275.54895524 117.8174697 283.21625273 149.32465124 283.33789062 176.00537109 C283.12101279 193.90601923 280.01120055 213.85736558 266.90039062 227.13037109 C247.05221719 245.96468891 220.25991472 244.7373934 194.90039062 244.13037109 C196.00833984 245.47615234 196.00833984 245.47615234 197.13867188 246.84912109 C202.69847549 253.66463209 208.04776035 260.56299811 213.02539062 267.81787109 C213.48598877 268.48818359 213.94658691 269.15849609 214.42114258 269.84912109 C220.21845874 278.40514509 220.21845874 278.40514509 219.90039062 284.13037109 C214.02663256 284.43541709 209.81531884 283.73428229 204.46289062 281.19287109 C203.7811377 280.88075684 203.09938477 280.56864258 202.39697266 280.24707031 C186.39609858 272.80675509 171.44332805 264.03314591 157.18164062 253.63818359 C145.35015928 245.81806065 130.46280204 246.84527323 116.78493881 246.8559761 C114.00761843 246.85695924 111.23066658 246.84379483 108.45339966 246.82699585 C100.56905837 246.78123964 92.68476301 246.75612215 84.80029297 246.74951172 C79.94580811 246.74446497 75.09171953 246.72007146 70.23736954 246.68418503 C68.40602128 246.6744754 66.57461798 246.67200603 64.7432518 246.67735672 C44.56512567 246.73360068 28.57565927 241.73961699 13.84960938 227.26708984 C3.3861534 216.44437358 -12.09960938 195.91303819 -12.09960938 180.13037109 C-13.15535156 180.79681641 -14.21109375 181.46326172 -15.29882812 182.14990234 C-23.72630672 187.41575109 -32.24866846 192.42592651 -41.03710938 197.06787109 C-41.8752417 197.51557861 -42.71337402 197.96328613 -43.5769043 198.42456055 C-60.04353021 207.00129857 -60.04353021 207.00129857 -68.09960938 206.13037109 C-68.86737965 194.52850917 -58.33970782 184.28272089 -51.39794922 175.73730469 C-49.53745514 173.43460217 -47.72395626 171.09643897 -45.91210938 168.75537109 C-45.36167969 168.04638672 -44.81125 167.33740234 -44.24414062 166.60693359 C-43.86644531 166.11966797 -43.48875 165.63240234 -43.09960938 165.13037109 C-44.05609375 165.29150391 -45.01257813 165.45263672 -45.99804688 165.61865234 C-58.14972472 167.34283566 -71.13871079 166.64677852 -83.09960938 164.13037109 C-84.07800781 163.94732422 -85.05640625 163.76427734 -86.06445312 163.57568359 C-98.45893802 160.93717301 -110.98686032 155.11312989 -119.09960938 145.13037109 C-132.77310166 124.03611823 -134.37449494 95.80515077 -129.53710938 71.63037109 C-125.07006561 51.35923457 -116.61092869 27.58306525 -98.41210938 15.81787109 C-69.21573436 -0.15241108 -32.42120129 -0.06811177 0 0 Z " fill="#787EC5" transform="translate(464.099609375,374.86962890625)"/>
<path d="M0 0 C27.17535196 -1.15095608 65.95344031 0.7854006 88.2109375 19.20703125 C107.64856462 38.6870986 115.3158621 70.19428014 115.4375 96.875 C115.22062216 114.77564813 112.11080993 134.72699449 99 148 C79.15182657 166.83431782 52.35952409 165.6070223 27 165 C27.73863281 165.8971875 28.47726562 166.794375 29.23828125 167.71875 C34.79808486 174.534261 40.14736973 181.43262701 45.125 188.6875 C45.58559814 189.3578125 46.04619629 190.028125 46.52075195 190.71875 C52.31806811 199.274774 52.31806811 199.274774 52 205 C46.12624193 205.305046 41.91492821 204.6039112 36.5625 202.0625 C35.88074707 201.75038574 35.19899414 201.43827148 34.49658203 201.11669922 C18.49570795 193.676384 3.54293743 184.90277482 -10.71875 174.5078125 C-22.55023135 166.68768956 -37.43758858 167.71490213 -51.11545181 167.72560501 C-53.8927722 167.72658815 -56.66972404 167.71342374 -59.44699097 167.69662476 C-67.33133226 167.65086854 -75.21562761 167.62575106 -83.10009766 167.61914062 C-87.95458252 167.61409387 -92.8086711 167.58970037 -97.66302109 167.55381393 C-99.49436934 167.54410431 -101.32577265 167.54163493 -103.15713882 167.54698563 C-123.33526495 167.60322959 -139.32473135 162.6092459 -154.05078125 148.13671875 C-165.56767618 136.22439395 -176.36928008 119.35253383 -180 103 C-179.89453125 100.92578125 -179.89453125 100.92578125 -179 99 C-176.8828125 97.18359375 -176.8828125 97.18359375 -174.125 95.4375 C-173.24070312 94.85871094 -172.35640625 94.27992188 -171.4453125 93.68359375 C-161.06268024 88.60999454 -150.84918303 88.57028319 -139.53611946 88.58930969 C-136.60389541 88.59383686 -133.67225942 88.57965054 -130.74009705 88.56091309 C-124.51424052 88.52434931 -118.28844801 88.51045853 -112.0625 88.5 C-104.84372091 88.48786619 -97.62523275 88.46609838 -90.40658379 88.41999817 C-87.53737924 88.40655329 -84.66855465 88.4105752 -81.79933167 88.41540527 C-60.60372597 88.35055903 -45.04460571 82.64211747 -29.71289062 67.76757812 C-12.13078616 49.62412938 -3.53230004 24.47821957 0 0 Z " fill="#505482" transform="translate(632,454)"/>
<path d="M0 0 C2.31019993 1.48076692 4.01649757 3.06487568 6 5 C5.49607061 9.40938215 4.0379639 11.78843816 1 15 C-1.70662466 17.05330146 -3.03111634 16.99944435 -6.5 16.9375 C-10 16 -10 16 -12.4375 13.75 C-14.91119947 9.39628893 -14.91119947 9.39628893 -14 6 C-10.11375789 1.17648774 -6.32955392 -1.26591078 0 0 Z " fill="#F9F9FC" transform="translate(516,453)"/>
<path d="M0 0 C3.00185997 1.26394104 4.43365678 2.36531991 6.375 5 C7.4375 8.5 7.4375 8.5 7.375 12 C5.2721106 14.73375622 3.65594083 15.77201604 0.24609375 16.37890625 C-5.14966833 16.66193269 -8.45325769 15.65027452 -12.625 12 C-12.955 11.01 -13.285 10.02 -13.625 9 C-5.125 0 -5.125 0 0 0 Z " fill="#F9F9FC" transform="translate(447.625,453)"/>
<path d="M0 0 C2.5 2.0625 2.5 2.0625 4 5 C4.50724638 10.98550725 4.50724638 10.98550725 3 14 C-3.08800051 15.73756238 -7.5353987 14.95999237 -13 12 C-13.33 11.67 -13.66 11.34 -14 11 C-13.84761884 6.96189914 -13.58066425 4.68623957 -10.9375 1.5625 C-6.80338968 -0.63649485 -4.65895 -0.66556429 0 0 Z " fill="#F9FAFC" transform="translate(484,454)"/>
</svg>
