<?xml version="1.0" encoding="UTF-8"?>
<svg version="1.1" xmlns="http://www.w3.org/2000/svg" width="1080" height="1080">
<path d="M0 0 C356.4 0 712.8 0 1080 0 C1080 356.4 1080 712.8 1080 1080 C723.6 1080 367.2 1080 0 1080 C0 723.6 0 367.2 0 0 Z " fill="#FEFEFE" transform="translate(0,0)"/>
<path d="M0 0 C3.866473 0.03135905 7.73253276 0.04102318 11.59912109 0.046875 C35.53640052 0.11914922 59.32642398 0.98003786 83.16552734 3.15625 C84.15341248 3.24462128 85.14129761 3.33299255 86.15911865 3.42404175 C97.69271096 4.45591402 109.22420584 5.51579208 120.72802734 6.84375 C121.64205322 6.94606934 122.5560791 7.04838867 123.49780273 7.15380859 C144.02101626 9.6884012 162.50717095 17.32094566 175.90380859 33.44921875 C181.38780184 40.70851802 184.87812717 48.83319864 188.10302734 57.28125 C188.46783203 58.23386719 188.83263672 59.18648438 189.20849609 60.16796875 C197.21528612 85.91750476 187.96174629 116.21871539 176.09912109 139.22851562 C165.18773238 159.53697485 148.85844652 176.60137998 126.84130859 184.51953125 C120.47918092 186.28930999 114.17444006 186.43102705 107.6262207 186.43896484 C106.70159027 186.44404556 105.77695984 186.44912628 104.8243103 186.45436096 C102.82515837 186.46502148 100.82599482 186.4736584 98.8268261 186.48048019 C95.65089233 186.49234432 92.47509 186.51181796 89.29920959 186.53359985 C80.27202807 186.59495037 71.24486065 186.64911429 62.2175293 186.68261719 C56.68502385 186.70369609 51.15276006 186.73910472 45.62039375 186.78337479 C43.52472359 186.79743115 41.42901069 186.8062335 39.33329582 186.80942917 C21.77016453 186.83903697 7.73719327 187.68411534 -6.81494141 198.4375 C-22.25800415 209.8387682 -39.06948194 219.16339437 -56.89697266 226.28125 C-58.19828125 226.85939453 -58.19828125 226.85939453 -59.52587891 227.44921875 C-62.08345352 228.34668727 -64.01190501 228.48677441 -66.70947266 228.40625 C-67.49966797 228.38820313 -68.28986328 228.37015625 -69.10400391 228.3515625 C-69.69568359 228.32835937 -70.28736328 228.30515625 -70.89697266 228.28125 C-71.46595853 222.76123782 -69.6470302 219.38670537 -66.70947266 214.90625 C-66.26966064 214.21869629 -65.82984863 213.53114258 -65.37670898 212.82275391 C-60.14499545 204.83879474 -54.05470062 197.55763528 -47.89697266 190.28125 C-46.22751444 188.28356117 -44.56243786 186.28227104 -42.89697266 184.28125 C-44.11090698 184.30481567 -44.11090698 184.30481567 -45.34936523 184.32885742 C-73.61835167 184.80405068 -102.8071008 184.48192324 -124.67822266 163.68359375 C-139.29111913 147.86153155 -141.73115986 123.16288679 -141.11181641 102.5234375 C-139.92694954 76.47994582 -132.57306248 50.35346661 -116.89697266 29.28125 C-116.27242188 28.38212891 -116.27242188 28.38212891 -115.63525391 27.46484375 C-108.68006854 18.11805078 -97.46866717 14.015392 -86.89697266 10.28125 C-86.18903564 10.02794922 -85.48109863 9.77464844 -84.75170898 9.51367188 C-58.08803602 0.25951899 -27.92630188 -0.22689899 0 0 Z " fill="#5DB3A6" transform="translate(420.89697265625,331.71875)"/>
<path d="M0 0 C2.68302763 1.42750829 3.90619504 2.64446942 6 5 C6.27841935 8.27142735 5.6905324 9.95447558 3.890625 12.6796875 C1.11999652 15.93284116 -1.32806105 17.42515116 -5.5625 18.125 C-8.77328443 18.26036191 -10.01148713 17.99449575 -13 16.5625 C-15.27029125 13.65368933 -16.13003741 11.6903655 -16.41015625 8.03515625 C-15.72280055 4.62456273 -13.45606608 3.13463743 -10.76171875 1.12890625 C-6.81386403 -1.40087205 -4.6091406 -1.07546614 0 0 Z " fill="#F9FCFC" transform="translate(484,419)"/>
<path d="M0 0 C2.97590959 2.58774747 4.58979821 4.24341007 5.484375 8.07421875 C5.625 10.1875 5.625 10.1875 5 14 C2.13649342 17.05440702 -0.86342818 17.23569837 -4.875 17.4375 C-9.94920538 17.30836603 -12.87339568 15.87068127 -17 13 C-17.4375 10.875 -17.4375 10.875 -17 8 C-12.50505763 2.9354506 -6.98298474 -1.14007914 0 0 Z " fill="#FBFDFC" transform="translate(410,419)"/>
<path d="M0 0 C3.34213802 2.1268151 5.89264987 4.12427456 7 8 C6.8125 11.625 6.8125 11.625 6 15 C1.95093846 17.69937436 -1.24646909 17.54349244 -6 17 C-9.35537627 15.65784949 -11.45789202 14.54210798 -14 12 C-14.07296093 8.78971929 -13.64142819 6.77887709 -11.578125 4.2734375 C-7.90195697 0.84126292 -5.20105772 -1.13066472 0 0 Z " fill="#F9FCFC" transform="translate(446,419)"/>
</svg>
