<?xml version="1.0" encoding="UTF-8"?>
<svg version="1.1" xmlns="http://www.w3.org/2000/svg" width="1080" height="1080">
<path d="M0 0 C356.4 0 712.8 0 1080 0 C1080 356.4 1080 712.8 1080 1080 C723.6 1080 367.2 1080 0 1080 C0 723.6 0 367.2 0 0 Z " fill="#0D1117" transform="translate(0,0)"/>
<path d="M0 0 C1.11662018 0.01610321 1.11662018 0.01610321 2.25579834 0.03253174 C27.80159525 0.42011885 53.3472499 2.94714155 78.72927856 5.74935913 C80.21769177 5.91364929 81.70635456 6.07569733 83.19528198 6.23526001 C106.05038438 8.70653229 126.66017115 14.94011928 141.80078125 33.16796875 C155.67044886 51.52759527 159.2238289 73.77942533 156.56640625 96.234375 C152.8321744 118.96448191 143.59971689 140.2099746 129 158 C128.42765625 158.72445312 127.8553125 159.44890625 127.265625 160.1953125 C116.059748 173.80244886 100.56875156 183.61597972 83 186 C79.87881128 186.14705061 76.76098949 186.15394335 73.63671875 186.15771484 C72.71223434 186.16279556 71.78774994 186.16787628 70.83525085 186.17311096 C68.83335302 186.18378368 66.83144349 186.19241592 64.82952881 186.19923019 C61.64947424 186.21107919 58.46955185 186.23054991 55.28955078 186.25234985 C46.24955723 186.31374572 37.20957697 186.36784979 28.16943359 186.40136719 C22.63159726 186.42244698 17.09400229 186.45785863 11.55630493 186.50212479 C9.45784365 186.51618314 7.35933968 186.52498396 5.26083374 186.52817917 C-12.31354528 186.55775802 -26.35622455 187.39576432 -40.91796875 198.15625 C-56.36103149 209.5575182 -73.17250929 218.88214437 -91 226 C-92.30130859 226.57814453 -92.30130859 226.57814453 -93.62890625 227.16796875 C-96.18648087 228.06543727 -98.11493236 228.20552441 -100.8125 228.125 C-101.60269531 228.10695313 -102.39289063 228.08890625 -103.20703125 228.0703125 C-103.79871094 228.04710937 -104.39039063 228.02390625 -105 228 C-105.56898587 222.47998782 -103.75005754 219.10545537 -100.8125 214.625 C-100.37268799 213.93744629 -99.93287598 213.24989258 -99.47973633 212.54150391 C-94.24802279 204.55754474 -88.15772796 197.27638528 -82 190 C-80.33054178 188.00231117 -78.66546521 186.00102104 -77 184 C-78.03217651 184.01571045 -78.03217651 184.01571045 -79.08520508 184.03173828 C-107.51642927 184.40549096 -136.91967204 184.44735406 -158.8515625 163.3671875 C-173.8366008 146.85639985 -176.0261166 121.51849588 -175.11669922 100.19921875 C-173.77356859 74.88766921 -166.21540688 49.45295435 -151 29 C-150.37544922 28.10087891 -150.37544922 28.10087891 -149.73828125 27.18359375 C-143.47649641 18.76863377 -133.53513586 14.50971539 -124 11 C-123.11183594 10.65195312 -122.22367187 10.30390625 -121.30859375 9.9453125 C-83.82334244 -3.81172141 -39.16712465 -0.59621559 0 0 Z " fill="#5CB2A5" transform="translate(455,332)"/>
<path d="M0 0 C2.68302763 1.42750829 3.90619504 2.64446942 6 5 C6.27841935 8.27142735 5.6905324 9.95447558 3.890625 12.6796875 C1.11999652 15.93284116 -1.32806105 17.42515116 -5.5625 18.125 C-8.77328443 18.26036191 -10.01148713 17.99449575 -13 16.5625 C-15.27029125 13.65368933 -16.13003741 11.6903655 -16.41015625 8.03515625 C-15.72280055 4.62456273 -13.45606608 3.13463743 -10.76171875 1.12890625 C-6.81386403 -1.40087205 -4.6091406 -1.07546614 0 0 Z " fill="#F9FCFC" transform="translate(484,419)"/>
<path d="M0 0 C2.97590959 2.58774747 4.58979821 4.24341007 5.484375 8.07421875 C5.625 10.1875 5.625 10.1875 5 14 C2.13649342 17.05440702 -0.86342818 17.23569837 -4.875 17.4375 C-9.94920538 17.30836603 -12.87339568 15.87068127 -17 13 C-17.4375 10.875 -17.4375 10.875 -17 8 C-12.50505763 2.9354506 -6.98298474 -1.14007914 0 0 Z " fill="#FBFDFC" transform="translate(410,419)"/>
<path d="M0 0 C3.34213802 2.1268151 5.89264987 4.12427456 7 8 C6.8125 11.625 6.8125 11.625 6 15 C1.95093846 17.69937436 -1.24646909 17.54349244 -6 17 C-9.35537627 15.65784949 -11.45789202 14.54210798 -14 12 C-14.07296093 8.78971929 -13.64142819 6.77887709 -11.578125 4.2734375 C-7.90195697 0.84126292 -5.20105772 -1.13066472 0 0 Z " fill="#F9FCFC" transform="translate(446,419)"/>
</svg>
