<?xml version="1.0" encoding="UTF-8"?>
<svg version="1.1" xmlns="http://www.w3.org/2000/svg" width="512" height="512">
<path d="M0 0 C5.40740174 4.2273465 10.37620679 8.88418117 15.31640625 13.640625 C16.46689453 14.67896484 16.46689453 14.67896484 17.640625 15.73828125 C40.11288017 36.67742027 55.15685405 70.98222955 56.44067383 101.60473633 C56.78810549 116.1850339 56.77261915 130.41776462 53.31640625 144.640625 C53.15011719 145.33623535 52.98382813 146.0318457 52.8125 146.74853516 C47.54037068 168.04696129 37.63448562 187.03165293 23.31640625 203.640625 C22.06730469 205.09082031 22.06730469 205.09082031 20.79296875 206.5703125 C-2.37407554 232.91161654 -35.69333375 249.63162549 -70.68359375 252.640625 C-111.7574886 254.50499758 -148.5909868 243.16408596 -179.23730469 215.22412109 C-199.40507208 196.5038301 -212.43931106 173.12159842 -219.68359375 146.640625 C-219.87421387 145.96773437 -220.06483398 145.29484375 -220.26123047 144.6015625 C-225.54131825 125.0315136 -224.91032308 99.12016241 -219.68359375 79.640625 C-219.5119873 78.98964844 -219.34038086 78.33867188 -219.16357422 77.66796875 C-213.5575038 56.86689244 -203.97011046 37.81626789 -189.68359375 21.640625 C-188.85214844 20.66480469 -188.02070313 19.68898437 -187.1640625 18.68359375 C-141.21700744 -34.28244043 -55.57179525 -41.95000617 0 0 Z M-161.68359375 18.640625 C-162.67875 19.47207031 -163.67390625 20.30351563 -164.69921875 21.16015625 C-184.5105693 38.25684119 -197.75294021 62.2788855 -203.68359375 87.640625 C-203.90917969 88.60355469 -204.13476562 89.56648438 -204.3671875 90.55859375 C-207.54288496 107.13792464 -206.80186405 125.29319969 -202.68359375 141.640625 C-202.51730469 142.30465332 -202.35101563 142.96868164 -202.1796875 143.65283203 C-197.38063741 162.06252141 -187.82378332 180.7960129 -174.68359375 194.640625 C-172.56706106 195.91226201 -172.56706106 195.91226201 -170.68359375 196.640625 C-170.32007813 195.61324219 -169.9565625 194.58585938 -169.58203125 193.52734375 C-165.1745646 181.28569772 -160.04838432 170.72077584 -151.68359375 160.640625 C-151.03003906 159.76857422 -151.03003906 159.76857422 -150.36328125 158.87890625 C-141.51824749 147.51806947 -128.30070336 140.89629372 -115.68359375 134.640625 C-116.08046387 134.18389404 -116.47733398 133.72716309 -116.88623047 133.2565918 C-128.75488221 119.51955888 -133.04100522 107.10333668 -131.90673828 88.93017578 C-130.84014519 77.9865106 -125.0011159 67.46692039 -117.12109375 59.890625 C-105.78962122 50.7594384 -92.1647057 46.37278483 -77.68359375 47.640625 C-63.7193038 49.9589507 -52.30720632 56.0000477 -43.60546875 67.3515625 C-35.63481614 79.30754141 -32.82431942 92.36785936 -35.1796875 106.6484375 C-37.70006254 116.6445012 -41.95292496 124.42033938 -49.109375 131.828125 C-50.90217224 133.49217328 -50.90217224 133.49217328 -50.68359375 135.640625 C-49.14251953 136.36765625 -49.14251953 136.36765625 -47.5703125 137.109375 C-23.03851806 148.88534895 -7.04071316 165.84848116 2.34765625 191.453125 C3.03978093 193.5038648 3.6848238 195.57043807 4.31640625 197.640625 C6.01142006 195.99697525 7.67025566 194.33261775 9.31640625 192.640625 C9.83589844 192.11726562 10.35539063 191.59390625 10.890625 191.0546875 C30.24401783 170.39302336 40.43439855 138.04701894 39.6015625 110.12890625 C36.6384768 73.88184422 22.67181318 43.05574903 -4.68359375 18.640625 C-49.62913278 -19.01856575 -116.74850103 -18.90872734 -161.68359375 18.640625 Z M-99.68359375 68.640625 C-100.38097656 69.053125 -101.07835938 69.465625 -101.796875 69.890625 C-108.58587436 74.39105396 -112.12592417 80.67564788 -115.05859375 88.140625 C-116.90950306 98.50571716 -115.18488226 107.485382 -109.49609375 116.453125 C-104.82070505 122.43360687 -97.11655183 127.10583332 -89.68359375 128.640625 C-78.83332391 129.77028034 -70.48796178 127.98411943 -61.93359375 121.140625 C-55.34876221 114.85934953 -50.9034465 106.39537164 -50.51953125 97.2109375 C-51.0876656 88.31016605 -53.51557914 81.12867811 -59.68359375 74.640625 C-60.20953125 74.08632812 -60.73546875 73.53203125 -61.27734375 72.9609375 C-67.75635512 66.81810125 -74.8941068 64.42678837 -83.74609375 64.140625 C-89.91178432 64.34102664 -94.44966611 65.40105664 -99.68359375 68.640625 Z M-136.30078125 168.09765625 C-146.84733779 179.35307971 -153.86542699 193.41502096 -156.13671875 208.6875 C-155.96509188 211.87021349 -155.96509188 211.87021349 -153.1484375 213.94921875 C-151.98821436 214.68401549 -150.8108801 215.39222967 -149.62109375 216.078125 C-148.99058105 216.45936523 -148.36006836 216.84060547 -147.71044922 217.23339844 C-118.89884869 234.27688044 -85.69010838 240.17451873 -52.95898438 231.95654297 C-37.6162134 227.6486795 -23.51796641 221.09229479 -10.68359375 211.640625 C-11.95218332 192.61178145 -21.82025144 176.82758854 -35.23828125 163.7734375 C-65.59350872 137.29747232 -108.02735904 141.68791621 -136.30078125 168.09765625 Z " fill="#D3D3D3" transform="translate(224.68359375,28.359375)"/>
<path d="M0 0 C26.99344336 23.78305811 44.27779162 54.70621014 48.81054688 90.59521484 C49.70366642 108.75202715 49.89297429 127.01761667 44.81054688 144.59521484 C44.62862793 145.25924316 44.44670898 145.92327148 44.25927734 146.60742188 C41.39029223 156.90141224 36.85720864 166.23379327 31.81054688 175.59521484 C31.23175781 176.68060547 30.65296875 177.76599609 30.05664062 178.88427734 C26.02543105 186.12361891 21.25908082 192.3683189 15.81054688 198.59521484 C14.55951172 200.06474609 14.55951172 200.06474609 13.28320312 201.56396484 C-8.67812705 226.87158886 -41.03622467 242.92881006 -74.18945312 246.59521484 C-79.54683835 246.90621574 -84.8878904 246.98549553 -90.25195312 246.97021484 C-90.97456329 246.96967102 -91.69717346 246.9691272 -92.44168091 246.96856689 C-104.41497117 246.92728595 -115.64849149 245.90475531 -127.18945312 242.59521484 C-127.92550781 242.39686035 -128.6615625 242.19850586 -129.41992188 241.99414062 C-152.03230163 235.79349461 -171.25200117 223.57923407 -188.18945312 207.59521484 C-188.92679687 206.92232422 -189.66414063 206.24943359 -190.42382812 205.55615234 C-214.9473012 182.33711933 -229.33541021 147.22604323 -230.40820312 113.77099609 C-231.14514881 77.52945896 -220.95758095 44.35528691 -197.18945312 16.59521484 C-196.48046875 15.76376953 -195.77148438 14.93232422 -195.04101562 14.07568359 C-145.98915474 -41.94670489 -56.71440989 -48.45791983 0 0 Z M-182.88476562 26.50537109 C-202.57952848 49.36213716 -214.38095136 79.72477411 -213.47460938 110.10693359 C-211.04125851 139.87381471 -201.7120822 167.34176163 -181.18945312 189.59521484 C-180.19945312 190.25521484 -179.20945312 190.91521484 -178.18945312 191.59521484 C-177.8259375 190.56783203 -177.46242188 189.54044922 -177.08789062 188.48193359 C-167.6849821 162.35184562 -152.69417913 143.72489783 -127.28320312 131.63818359 C-124.97594873 130.54352954 -124.97594873 130.54352954 -122.18945312 128.59521484 C-122.80820312 128.34771484 -123.42695313 128.10021484 -124.06445312 127.84521484 C-126.62939165 126.33642747 -126.92088526 125.23648674 -128.18945312 122.59521484 C-129.13277786 121.20987509 -130.09219601 119.83540489 -131.06445312 118.47021484 C-138.97192186 106.75401422 -140.95632525 93.69618864 -138.54101562 79.88818359 C-135.41398286 67.76759079 -129.50123312 57.87880597 -119.18945312 50.59521484 C-109.97790723 45.20279749 -101.55752654 42.20818931 -90.87695312 42.28271484 C-89.61238281 42.29117432 -89.61238281 42.29117432 -88.32226562 42.29980469 C-82.17542096 42.41974891 -76.83432696 43.01246494 -71.18945312 45.59521484 C-70.29097656 45.99740234 -69.3925 46.39958984 -68.46679688 46.81396484 C-56.60242116 52.68903397 -49.3546023 61.47642995 -44.18945312 73.59521484 C-40.38166465 86.06285672 -40.37058923 100.78734483 -46.18945312 112.59521484 C-49.63148909 118.7778292 -53.62061951 124.2191945 -58.18945312 129.59521484 C-56.66578125 130.30484375 -56.66578125 130.30484375 -55.11132812 131.02880859 C-31.23601769 142.39426006 -14.18498516 159.55359865 -5.18945312 184.59521484 C-4.48103965 186.91955188 -3.82893917 189.25043268 -3.18945312 191.59521484 C-2.52945313 191.59521484 -1.86945313 191.59521484 -1.18945312 191.59521484 C14.79006395 175.04138108 24.63942745 153.74530392 29.81054688 131.59521484 C30.17986328 130.13148438 30.17986328 130.13148438 30.55664062 128.63818359 C33.96564721 112.58058707 32.80478619 94.45030062 28.81054688 78.59521484 C28.56111328 77.59917236 28.56111328 77.59917236 28.30664062 76.58300781 C22.70964932 55.11232727 11.1994509 36.37692873 -4.18945312 20.59521484 C-4.82109375 19.89009766 -5.45273437 19.18498047 -6.10351562 18.45849609 C-24.84064804 -1.88821378 -56.04025672 -14.04937898 -83.18945312 -15.40478516 C-84.17558594 -15.45763672 -85.16171875 -15.51048828 -86.17773438 -15.56494141 C-123.54691815 -16.57491935 -157.69201913 -0.69549287 -182.88476562 26.50537109 Z M-114.18945312 68.59521484 C-120.02513653 75.93520774 -123.26812487 83.14149361 -123.18945312 92.59521484 C-121.71541435 103.82392195 -116.82889446 110.99135169 -108.25195312 118.12255859 C-101.74589841 122.76798024 -93.78022237 124.03483089 -85.90429688 123.41552734 C-77.38916757 121.9437766 -69.74162878 117.2487797 -64.43554688 110.45458984 C-59.14922117 102.56653017 -57.27164457 95.0702385 -58.18945312 85.59521484 C-60.03716395 76.83107297 -64.44643354 70.41539504 -71.18945312 64.59521484 C-85.47845017 55.49460911 -101.8255154 56.54966178 -114.18945312 68.59521484 Z M-148.28320312 168.04443359 C-154.22864686 176.00011958 -158.39290289 184.15421954 -161.25195312 193.65771484 C-161.57619263 194.72892578 -161.57619263 194.72892578 -161.90698242 195.82177734 C-162.97651209 199.70060493 -163.83850815 202.83974968 -162.18945312 206.59521484 C-160.16766529 208.31601472 -158.37460357 209.61659546 -156.12695312 210.97021484 C-155.50280518 211.3559668 -154.87865723 211.74171875 -154.2355957 212.13916016 C-144.54240903 217.96397051 -134.25236109 222.15883478 -123.43945312 225.40771484 C-122.79129639 225.60268555 -122.14313965 225.79765625 -121.4753418 225.99853516 C-111.4299811 228.83964727 -101.42174955 229.96501595 -91.00195312 229.90771484 C-89.36794556 229.89925537 -89.36794556 229.89925537 -87.70092773 229.890625 C-64.47941092 229.54447 -35.12423089 222.58366861 -18.18945312 205.59521484 C-15.8394454 195.99230556 -23.73775816 182.4445424 -28.33789062 174.35302734 C-39.48633232 157.7479644 -56.14825716 146.01671155 -75.65820312 141.67822266 C-103.0612195 136.34301308 -130.32060329 146.7322506 -148.28320312 168.04443359 Z " fill="#D3D3D3" transform="translate(461.189453125,263.40478515625)"/>
<path d="M0 0 C5.61 0 11.22 0 17 0 C17.15855469 1.58425781 17.31710938 3.16851562 17.48046875 4.80078125 C21.7838965 45.37414499 36.93676367 80.88952089 68.77832031 107.48535156 C94.97504066 128.17942936 124.30020661 135.86998087 157 139 C157 144.61 157 150.22 157 156 C118.46688687 157.15599339 79.4871306 142.64789158 51.32910156 116.16748047 C49.88143172 114.78315223 48.44067532 113.391606 47 112 C46.07445312 111.13761719 45.14890625 110.27523437 44.1953125 109.38671875 C17.64277733 84.0000881 0.90951619 45.44211588 -0.17578125 8.7890625 C-0.18531571 5.85880463 -0.10584438 2.92836115 0 0 Z " fill="#D3D3D3" transform="translate(59,297)"/>
<path d="M0 0 C23.84198699 -0.70817783 46.58567901 4.55028831 68 15 C68.63534668 15.30808594 69.27069336 15.61617187 69.92529297 15.93359375 C85.94035153 23.80837898 99.5396667 34.22017097 112 47 C112.64195312 47.59683594 113.28390625 48.19367188 113.9453125 48.80859375 C138.18621474 71.82478142 154.83557603 109.75211926 156.07568359 143.03100586 C156.12243013 147.35298268 156.03858464 151.67852071 156 156 C150.39 156 144.78 156 139 156 C138.84144531 154.41574219 138.68289063 152.83148438 138.51953125 151.19921875 C134.2161035 110.62585501 119.06323633 75.11047911 87.22167969 48.51464844 C61.36258366 28.0872767 32.28135895 20.23076253 0 17 C0 11.39 0 5.78 0 0 Z " fill="#D3D3D3" transform="translate(297,59)"/>
</svg>
