<?xml version="1.0" encoding="UTF-8"?>
<svg version="1.1" xmlns="http://www.w3.org/2000/svg" width="512" height="512">
<path d="M0 0 C20.02391479 18.66977955 33.35989977 46.79815904 34.375 74.25 C34.41496094 75.21679688 34.45492188 76.18359375 34.49609375 77.1796875 C35.11644376 107.02947052 25.05581922 135.38061084 4.46606445 157.11206055 C3.11354488 158.50232705 1.74453375 159.87649083 0.375 161.25 C-0.37910156 162.02730469 -1.13320313 162.80460938 -1.91015625 163.60546875 C-23.34995199 184.38331539 -52.97583219 192.82958078 -82.171875 192.4609375 C-100.59967227 191.93939607 -118.56044706 186.1327528 -134.625 177.25 C-134.87121094 177.81589844 -135.11742187 178.38179687 -135.37109375 178.96484375 C-136.84036224 181.64248258 -138.60252435 183.58043612 -140.6875 185.8125 C-143.86285117 189.27560159 -146.92328184 192.78195256 -149.875 196.4375 C-154.03584769 201.57694428 -158.34234489 206.57326152 -162.68432617 211.55908203 C-166.21660298 215.61783604 -169.71913206 219.69901563 -173.1875 223.8125 C-178.50386188 230.11283476 -183.83810465 236.397011 -189.22900391 242.63378906 C-190.5351659 244.14599479 -191.83613727 245.66267955 -193.13671875 247.1796875 C-200.90610902 256.07029707 -207.85736162 261.23336716 -219.9140625 262.2109375 C-230.17701615 262.35881868 -237.55059585 258.73243422 -245.8125 253.0625 C-252.62780466 246.24719534 -256.80255479 237.80263977 -257.00561523 228.13452148 C-256.97857536 217.55487549 -255.36579118 210.48046743 -247.984375 202.53125 C-243.05816586 197.76816037 -237.82629574 193.35278728 -232.59912109 188.92578125 C-230.70003957 187.31369919 -228.81104571 185.6907059 -226.92578125 184.0625 C-221.63014239 179.492113 -216.31018144 174.9671344 -210.875 170.5625 C-207.3661601 167.71541499 -203.96633363 164.79187448 -200.625 161.75 C-195.45310949 157.04382475 -190.06260702 152.64364656 -184.625 148.25 C-182.56015378 146.56534974 -180.49895366 144.87630626 -178.4375 143.1875 C-176.83333333 141.875 -175.22916667 140.5625 -173.625 139.25 C-174.99380052 135.71957887 -176.51562783 132.27781426 -178.0871582 128.83349609 C-190.57476171 101.18642955 -192.48098595 70.61430585 -182.12890625 41.9375 C-170.1877933 12.65851137 -148.9304766 -9.87483013 -119.7019043 -22.37597656 C-77.84348866 -39.5082596 -33.50995048 -29.07342182 0 0 Z M-150.2890625 14.57421875 C-168.4539209 35.38179066 -176.63722449 60.81050915 -175.625 88.25 C-174.1930551 108.97798922 -165.66110435 129.88390945 -151.625 145.25 C-151.16496582 145.75772949 -150.70493164 146.26545898 -150.23095703 146.78857422 C-133.22310447 165.33809033 -110.01524226 177.84427014 -84.55322266 179.37451172 C-57.37646593 180.34317628 -32.11332859 172.59381755 -11.625 154.25 C-10.73167969 153.45078125 -9.83835937 152.6515625 -8.91796875 151.828125 C8.54364608 135.31896189 20.32568453 111.47169871 21.375 87.25 C21.4265625 86.41210938 21.478125 85.57421875 21.53125 84.7109375 C22.42764383 57.5950242 12.11331164 33.35991741 -5.625 13.25 C-6.16382813 12.62738281 -6.70265625 12.00476563 -7.2578125 11.36328125 C-24.26622261 -6.96990452 -49.2713865 -15.79140251 -73.625 -17.75 C-103.0801906 -18.50358107 -130.02139981 -6.5133332 -150.2890625 14.57421875 Z M-169.6875 152.75 C-170.42097656 153.3996875 -171.15445313 154.049375 -171.91015625 154.71875 C-172.47605469 155.2240625 -173.04195313 155.729375 -173.625 156.25 C-172.13846494 159.71629835 -170.16777649 161.94022036 -167.4921875 164.578125 C-166.68652344 165.37734375 -165.88085938 166.1765625 -165.05078125 167 C-164.20902344 167.825 -163.36726563 168.65 -162.5 169.5 C-161.22576172 170.76070312 -161.22576172 170.76070312 -159.92578125 172.046875 C-157.82995077 174.11915683 -155.72959287 176.18662393 -153.625 178.25 C-150.4422009 176.76127139 -148.8369687 175.56795304 -146.875 172.625 C-146.44703125 171.99335938 -146.0190625 171.36171875 -145.578125 170.7109375 C-145.26359375 170.22882813 -144.9490625 169.74671875 -144.625 169.25 C-145.78515625 168.21552734 -145.78515625 168.21552734 -146.96875 167.16015625 C-152.72982147 161.9771373 -158.18322901 156.76190732 -163.19921875 150.83203125 C-163.66972656 150.30996094 -164.14023438 149.78789062 -164.625 149.25 C-166.62424273 149.25 -168.28492223 151.50326421 -169.6875 152.75 Z M-191.0625 171.1875 C-195.77748304 175.6019179 -200.6209726 179.75844555 -205.65234375 183.8125 C-209.81369288 187.22469692 -213.86361514 190.75960843 -217.91699219 194.29882812 C-221.00590931 196.99237645 -224.10635935 199.66565701 -227.26171875 202.28125 C-236.66278615 209.69397297 -236.66278615 209.69397297 -243.625 219.25 C-244.28987553 226.94511674 -244.48452396 233.93406085 -239.625 240.25 C-235.05708067 245.55702564 -229.572968 248.36082552 -222.625 249.25 C-215.81128281 248.83404633 -210.1745208 247.04609854 -205.484375 241.90234375 C-204.78828125 241.00644531 -204.0921875 240.11054688 -203.375 239.1875 C-200.39336703 235.43083992 -197.36313954 231.78817695 -194.125 228.25 C-190.3077036 224.05755551 -186.71873899 219.7226907 -183.15234375 215.31640625 C-178.60835979 209.80322633 -173.88849247 204.44145611 -169.19384766 199.05664062 C-166.65586912 196.13397627 -164.13949791 193.19286883 -161.625 190.25 C-163.16152003 186.61120325 -165.34920759 184.26785354 -168.125 181.484375 C-169.011875 180.59492188 -169.89875 179.70546875 -170.8125 178.7890625 C-171.740625 177.86867187 -172.66875 176.94828125 -173.625 176 C-174.553125 175.06414062 -175.48125 174.12828125 -176.4375 173.1640625 C-177.324375 172.27976563 -178.21125 171.39546875 -179.125 170.484375 C-179.9396875 169.67194336 -180.754375 168.85951172 -181.59375 168.02246094 C-185.76113289 164.38601866 -187.81794158 168.09012058 -191.0625 171.1875 Z " fill="#D3D3D3" transform="translate(271.625,73.75)"/>
<path d="M0 0 C1.010625 0.7425 2.02125 1.485 3.0625 2.25 C18.74994036 15.804304 29.37873974 38.20976806 30.90625 58.79296875 C30.95265625 59.88544922 30.95265625 59.88544922 31 61 C31.0515625 61.86238281 31.103125 62.72476563 31.15625 63.61328125 C31.927884 87.3731782 22.94955356 109.55271241 7 127 C-8.59741473 143.04007925 -30.17832437 152.86705594 -52.60888672 153.24145508 C-77.94797503 153.33200726 -99.56854397 144.6734271 -118.0625 127.3125 C-134.68682352 110.11724012 -142.60270409 87.08859751 -142.2109375 63.38671875 C-141.35974881 39.82140211 -131.25806867 18.09460336 -114 2 C-80.64324624 -26.28253436 -34.31878796 -26.51605775 0 0 Z M-110.8125 17.75 C-124.44975248 33.71862101 -130.33481817 53.16432259 -129 74 C-127.01133916 89.39658508 -121.5379782 101.91356397 -112 114 C-111.34 114.33 -110.68 114.66 -110 115 C-109.64808594 114.29875 -109.29617187 113.5975 -108.93359375 112.875 C-101.80996842 99.18573567 -92.46879742 90.62675455 -78 85 C-78.33 84.34 -78.66 83.68 -79 83 C-79.66 83 -80.32 83 -81 83 C-81.2475 82.46375 -81.495 81.9275 -81.75 81.375 C-82.97959354 78.88299795 -82.97959354 78.88299795 -84.9375 76.4375 C-89.38769172 69.83721565 -91.11163252 60.83138864 -90 53 C-87.75824894 42.72847393 -84.3985372 34.97370581 -75.8125 28.6875 C-67.55452153 23.59392336 -58.02781831 21.58345537 -48.5 23.50390625 C-38.02745453 26.29764933 -30.41837537 31.82348727 -24.7109375 41.09375 C-20.55924817 49.33739211 -20.07686846 58.71443995 -22.20703125 67.62109375 C-24.47287033 74.41861099 -28.40988933 79.61796068 -33 85 C-31.98679687 85.51949219 -30.97359375 86.03898437 -29.9296875 86.57421875 C-28.5779249 87.27826177 -27.22637359 87.98271059 -25.875 88.6875 C-25.20984375 89.02716797 -24.5446875 89.36683594 -23.859375 89.71679688 C-17.46837147 93.06894088 -12.47257151 96.79661193 -8.375 102.875 C-7.79363281 103.73609375 -7.21226562 104.5971875 -6.61328125 105.484375 C-4.61601565 108.59875527 -2.76655053 111.74954703 -1 115 C11.47133999 103.32977039 16.91541909 86.01612249 18.203125 69.375 C18.5683363 50.87096098 12.64096294 34.35718762 1 20 C0.16855469 18.92298828 0.16855469 18.92298828 -0.6796875 17.82421875 C-11.86670751 4.04116778 -29.66518959 -4.37307003 -47.0703125 -6.5703125 C-71.82356166 -9.03645041 -93.69549781 -0.03882992 -110.8125 17.75 Z M-73 43 C-77.14725483 48.91515512 -78.47859035 53.82114481 -78 61 C-76.47196006 67.22044604 -73.62620866 72.51640413 -68.21484375 76.22265625 C-62.64851362 79.31014354 -56.92301617 80.78076341 -50.60546875 79.5234375 C-43.25537912 77.30500249 -38.82901983 73.7337935 -35 67 C-32.32876521 60.25831221 -32.68212422 54.42647702 -35.25 47.75 C-39.704384 40.75025371 -44.98189168 36.82869137 -53 35 C-60.61764787 33.99767791 -67.8231156 37.70272294 -73 43 Z M-92 109 C-95.99596771 114.40630926 -98.70552902 119.22716754 -99 126 C-83.13885781 137.23227825 -64.2207855 142.56438261 -44.84570312 139.67919922 C-32.81552318 137.38945868 -22.19268619 132.73101918 -12 126 C-12.17517939 118.11692753 -16.51355085 111.89469847 -21.66796875 106.13671875 C-32.10188712 96.54544462 -45.05009125 94.53775574 -58.76953125 94.81640625 C-71.83413233 95.55889265 -83.01572533 99.05381156 -92 109 Z " fill="#D3D3D3" transform="translate(250,88)"/>
<path d="M0 0 C1.15129395 -0.00945648 2.30258789 -0.01891296 3.48876953 -0.02865601 C5.3544458 -0.01954697 5.3544458 -0.01954697 7.2578125 -0.01025391 C9.17182861 -0.01455917 9.17182861 -0.01455917 11.12451172 -0.01895142 C13.82485366 -0.02099475 16.52438331 -0.01695032 19.22460938 -0.00292969 C22.6850048 0.0141627 26.14470221 0.00432052 29.60507202 -0.01364708 C32.90601056 -0.02709657 36.20686486 -0.01767885 39.5078125 -0.01025391 C40.75159668 -0.0163266 41.99538086 -0.02239929 43.27685547 -0.02865601 C45.00379639 -0.01447128 45.00379639 -0.01447128 46.765625 0 C47.78027832 0.00238678 48.79493164 0.00477356 49.84033203 0.00723267 C52.3828125 0.38818359 52.3828125 0.38818359 54.0179081 1.38531303 C56.20415289 4.5934244 55.79444531 8.06479976 55.76376343 11.81506348 C55.7684434 12.68530671 55.77312337 13.55554994 55.77794516 14.45216417 C55.78994838 17.37955827 55.78041717 20.30648882 55.77099609 23.23388672 C55.77505943 25.32795994 55.78039996 27.42203103 55.78692627 29.51609802 C55.80063398 35.21227434 55.79528695 40.90828814 55.78578901 46.60446739 C55.7782103 52.55683211 55.78523304 58.50918261 55.78994751 64.46154785 C55.79541028 74.45876573 55.78819976 84.4559172 55.77392578 94.453125 C55.75759831 106.02239635 55.76288644 117.59150911 55.779405 129.16077662 C55.79300499 139.08183481 55.7949468 149.00284517 55.78708899 158.92390966 C55.7824043 164.85461878 55.78180946 170.78525328 55.79169846 176.71595764 C55.80034422 182.29079195 55.79438998 187.86542116 55.77701569 193.44023323 C55.77303804 195.49014507 55.77420659 197.54007408 55.78080368 199.58997917 C55.78895887 202.38065625 55.77877083 205.17066935 55.76376343 207.96130371 C55.77045559 208.77929081 55.77714776 209.59727792 55.78404272 210.44005251 C55.72697678 215.88231229 55.72697678 215.88231229 54.04650307 218.35236359 C50.824115 220.35863452 48.03929986 220.51784921 44.34814453 220.53344727 C43.32343048 220.53982712 42.29871643 220.54620697 41.24295044 220.55278015 C40.13668304 220.55389297 39.03041565 220.5550058 37.890625 220.55615234 C36.75253387 220.55948074 35.61444275 220.56280914 34.44186401 220.5662384 C32.03269861 220.57130431 29.62352619 220.57364683 27.21435547 220.57348633 C23.52950459 220.57567073 19.84495405 220.59382456 16.16015625 220.61279297 C13.82031352 220.61572736 11.48046938 220.61771185 9.140625 220.61865234 C7.4872966 220.62943062 7.4872966 220.62943062 5.80056763 220.64042664 C4.76954926 220.63735001 3.73853088 220.63427338 2.67626953 220.63110352 C1.77264679 220.63252853 0.86902405 220.63395355 -0.0619812 220.63542175 C-2.9217117 220.35871826 -5.0489421 219.66538759 -7.6171875 218.38818359 C-9.23143172 215.15969515 -8.76137339 211.62859948 -8.75762939 208.08155823 C-8.76060052 207.21216942 -8.76357164 206.34278062 -8.7666328 205.4470467 C-8.7753453 202.51669016 -8.77683018 199.58637435 -8.77832031 196.65600586 C-8.78294662 194.56208203 -8.78797102 192.46815905 -8.79336548 190.37423706 C-8.80650802 184.67392295 -8.81293784 178.97362063 -8.81737614 173.27329373 C-8.82030337 169.7156866 -8.82440746 166.15808272 -8.82888031 162.60047722 C-8.84255901 151.48019346 -8.85222432 140.3599171 -8.8560822 129.23962551 C-8.86056654 116.38268393 -8.87813036 103.52584847 -8.9070828 90.66893917 C-8.92866142 80.74366649 -8.9387844 70.81842376 -8.94012332 60.89312786 C-8.94117393 54.95903541 -8.94713608 49.02504266 -8.96494293 43.09097481 C-8.98135808 37.51207235 -8.98361117 31.93334526 -8.97480392 26.35442734 C-8.97403007 24.30289556 -8.9784218 22.2513546 -8.98826218 20.19984627 C-9.0008768 17.40694956 -8.99516244 14.61468389 -8.98468018 11.8217926 C-8.99273658 11.00312338 -9.00079298 10.18445416 -9.00909352 9.34097677 C-8.96101494 3.89313558 -8.96101494 3.89313558 -7.25312424 1.38489246 C-4.8164742 -0.09965804 -2.83809422 0.00667608 0 0 Z M4.3828125 13.38818359 C4.3828125 77.40818359 4.3828125 141.42818359 4.3828125 207.38818359 C16.9228125 207.38818359 29.4628125 207.38818359 42.3828125 207.38818359 C42.3828125 143.36818359 42.3828125 79.34818359 42.3828125 13.38818359 C29.8428125 13.38818359 17.3028125 13.38818359 4.3828125 13.38818359 Z " fill="#D3D3D3" transform="translate(436.6171875,225.61181640625)"/>
<path d="M0 0 C1.74347049 3.06086813 2.45051203 6.31607738 3.20800781 9.72192383 C3.4715506 10.85950386 3.4715506 10.85950386 3.74041748 12.02006531 C4.10873298 13.62346943 4.4715006 15.22815666 4.82910156 16.83398438 C5.37639622 19.28055647 5.94712469 21.72080422 6.52050781 24.16137695 C6.87610315 25.72290126 7.23031526 27.28474133 7.58300781 28.84692383 C7.75374817 29.57212723 7.92448853 30.29733063 8.10040283 31.04450989 C9.03354944 35.32471919 9.30032767 38.74018605 8.12988281 42.98364258 C6.12988281 44.98364258 6.12988281 44.98364258 2.69238281 45.29614258 C-0.87011719 44.98364258 -0.87011719 44.98364258 -2.50610352 43.72851562 C-4.0596638 41.74117083 -4.61820644 40.18687001 -5.25683594 37.75317383 C-5.47275391 36.95073242 -5.68867188 36.14829102 -5.91113281 35.3215332 C-6.12447266 34.4881543 -6.3378125 33.65477539 -6.55761719 32.79614258 C-6.78255859 31.95116211 -7.0075 31.10618164 -7.23925781 30.2355957 C-7.791995 28.15401098 -8.33227118 26.06912454 -8.87011719 23.98364258 C-9.92585938 25.51118164 -9.92585938 25.51118164 -11.00292969 27.06958008 C-20.53062062 40.76348973 -30.31154552 54.43010169 -41.70996094 66.64770508 C-43.51599608 68.60070511 -45.25087904 70.58736004 -46.98339844 72.60473633 C-51.47999815 77.75740223 -56.28774031 82.58527914 -61.12011719 87.42114258 C-61.99796875 88.31124023 -62.87582031 89.20133789 -63.78027344 90.1184082 C-69.82699254 96.17840707 -76.13376737 101.70375012 -82.87011719 106.98364258 C-83.64258789 107.58974365 -84.41505859 108.19584473 -85.2109375 108.8203125 C-96.54264485 117.58308444 -108.26350171 125.19268639 -120.87011719 131.98364258 C-121.53543457 132.34651367 -122.20075195 132.70938477 -122.88623047 133.08325195 C-141.77085277 143.29426254 -161.93414611 150.3796008 -182.87011719 154.98364258 C-183.77632813 155.18328613 -184.68253906 155.38292969 -185.61621094 155.58862305 C-206.69305148 160.06782965 -228.53973621 161.5302087 -250.05761719 160.85864258 C-251.00121094 160.83713135 -251.94480469 160.81562012 -252.91699219 160.79345703 C-256.8767703 160.59686969 -259.18776747 160.46026895 -262.48730469 158.15551758 C-263.87011719 155.98364258 -263.87011719 155.98364258 -263.80761719 152.35864258 C-262.87011719 148.98364258 -262.87011719 148.98364258 -259.87011719 146.98364258 C-257.77075195 146.78833008 -257.77075195 146.78833008 -255.31152344 146.85864258 C-254.38267334 146.87572266 -253.45382324 146.89280273 -252.49682617 146.91040039 C-251.48563721 146.93457031 -250.47444824 146.95874023 -249.43261719 146.98364258 C-206.15227927 147.44494805 -165.16499879 139.47002965 -126.87011719 118.98364258 C-125.71382812 118.37004883 -124.55753906 117.75645508 -123.36621094 117.12426758 C-93.83104331 100.8614449 -66.34591816 76.67252056 -45.87011719 49.98364258 C-44.96228355 48.87259804 -44.05053459 47.76474584 -43.13574219 46.65942383 C-35.07052652 36.86217004 -27.90080869 26.54166007 -20.87011719 15.98364258 C-21.79953125 16.20020508 -22.72894531 16.41676758 -23.68652344 16.63989258 C-24.92273438 16.91833008 -26.15894531 17.19676758 -27.43261719 17.48364258 C-29.25986328 17.90129883 -29.25986328 17.90129883 -31.12402344 18.32739258 C-40.38404908 19.94958685 -40.38404908 19.94958685 -44.37011719 17.35864258 C-45.87011719 14.98364258 -45.87011719 14.98364258 -45.87011719 11.92114258 C-44.68995522 8.4544168 -43.95501177 7.84698251 -40.87011719 5.98364258 C-37.69726562 5.00048828 -37.69726562 5.00048828 -33.97949219 4.15942383 C-33.31604797 4.00829636 -32.65260376 3.85716888 -31.96905518 3.70146179 C-30.56818691 3.3849825 -29.1661909 3.07345907 -27.76318359 2.76660156 C-25.63790062 2.30004651 -23.51777875 1.81400443 -21.39746094 1.32543945 C-20.02923613 1.01891661 -18.66075362 0.71354139 -17.29199219 0.40942383 C-16.06061523 0.13525635 -14.82923828 -0.13891113 -13.56054688 -0.42138672 C-3.70036119 -2.01104486 -3.70036119 -2.01104486 0 0 Z " fill="#D3D3D3" transform="translate(422.8701171875,149.016357421875)"/>
<path d="M0 0 C1.02471405 -0.00637985 2.0494281 -0.0127597 3.10519409 -0.01933289 C4.21146149 -0.02044571 5.31772888 -0.02155853 6.45751953 -0.02270508 C7.59561066 -0.02603348 8.73370178 -0.02936188 9.90628052 -0.03279114 C12.31544592 -0.03785705 14.72461834 -0.04019957 17.13378906 -0.04003906 C20.81863994 -0.04222347 24.50319048 -0.0603773 28.18798828 -0.0793457 C30.52783101 -0.0822801 32.86767516 -0.08426458 35.20751953 -0.08520508 C36.86084793 -0.09598335 36.86084793 -0.09598335 38.5475769 -0.10697937 C39.57859528 -0.10390274 40.60961365 -0.10082611 41.671875 -0.09765625 C43.02730911 -0.09979378 43.02730911 -0.09979378 44.41012573 -0.10197449 C47.26985623 0.174729 49.39708663 0.86805968 51.96533203 2.14526367 C53.3079842 4.83056801 53.09741856 6.90027963 53.10577393 9.90830994 C53.11148407 11.13519028 53.11719421 12.36207062 53.12307739 13.62612915 C53.1243228 14.99310293 53.12544788 16.36007682 53.12646484 17.72705078 C53.13109206 19.16088489 53.13611659 20.59471776 53.14151001 22.02854919 C53.15464376 25.92933376 53.16108065 29.83010111 53.16552067 33.73090434 C53.16844932 36.16619713 53.17255369 38.60148518 53.17702484 41.03677559 C53.19070124 48.65123566 53.20036766 56.26568495 53.20422673 63.88015646 C53.20871049 72.67956286 53.22627242 81.47881416 53.25522733 90.27817339 C53.2768158 97.07396132 53.28692946 103.86970553 53.28826785 110.6655274 C53.28931776 114.72727862 53.29526495 118.78888407 53.31308746 122.85059929 C53.32951972 126.66978289 53.33174748 130.48871037 53.32294846 134.30791664 C53.32217551 135.71120259 53.32655454 137.11450203 53.33640671 138.5177536 C53.34904872 140.43020558 53.34148605 142.34275962 53.33282471 144.25523376 C53.33502455 145.86217055 53.33502455 145.86217055 53.33726883 147.5015707 C52.96533203 150.14526367 52.96533203 150.14526367 51.62986374 151.95089054 C48.49990798 154.19676849 45.64975223 154.27824454 41.93066406 154.30639648 C40.90595001 154.31600403 39.88123596 154.32561157 38.82546997 154.33551025 C37.71920258 154.33976013 36.61293518 154.34401001 35.47314453 154.34838867 C34.33505341 154.35408875 33.19696228 154.35978882 32.02438354 154.36566162 C29.61522349 154.37511246 27.20605051 154.38164593 24.796875 154.38549805 C21.11191266 154.39520681 17.42750726 154.42623149 13.74267578 154.45776367 C11.40283535 154.46429344 9.06299092 154.46954401 6.72314453 154.47338867 C5.6209256 154.48573547 4.51870667 154.49808228 3.38308716 154.51080322 C2.35206879 154.50780212 1.32105042 154.50480103 0.25878906 154.50170898 C-0.64483368 154.50535461 -1.54845642 154.50900024 -2.47946167 154.51275635 C-5.88824299 154.02250154 -8.58561292 152.59431872 -11.03466797 150.14526367 C-11.13777098 148.26657765 -11.16988813 146.38397774 -11.17510986 144.50247192 C-11.18367508 142.66421341 -11.18367508 142.66421341 -11.19241333 140.78881836 C-11.19365882 139.41821299 -11.19478389 138.04760751 -11.19580078 136.67700195 C-11.20042661 135.24331534 -11.20545095 133.80962997 -11.21084595 132.37594604 C-11.22399478 128.47097017 -11.23041975 124.56601151 -11.23485661 120.66101694 C-11.23778339 118.22355192 -11.24188744 115.78609164 -11.24636078 113.348629 C-11.26004237 105.72882614 -11.26970573 98.10903408 -11.27356267 90.48921978 C-11.27804494 81.6813133 -11.29559784 72.87356188 -11.32456326 64.06570256 C-11.34615248 57.26568853 -11.35626547 50.46571822 -11.35760379 43.66567028 C-11.35865383 39.60055076 -11.36460349 35.53557687 -11.3824234 31.47049332 C-11.39885652 27.64721917 -11.40108298 23.82420087 -11.39228439 20.00090408 C-11.39151144 18.59600644 -11.39589056 17.19109531 -11.40574265 15.78623199 C-11.41838472 13.87153693 -11.41082197 11.95673992 -11.40216064 10.04202271 C-11.4036272 8.9694327 -11.40509377 7.89684269 -11.40660477 6.79174995 C-11.03466797 4.14526367 -11.03466797 4.14526367 -9.69919968 2.33921623 C-6.56455489 0.09076572 -3.72331983 0.01573398 0 0 Z M1.96533203 13.14526367 C1.96533203 55.38526367 1.96533203 97.62526367 1.96533203 141.14526367 C14.50533203 141.14526367 27.04533203 141.14526367 39.96533203 141.14526367 C39.96533203 98.90526367 39.96533203 56.66526367 39.96533203 13.14526367 C27.42533203 13.14526367 14.88533203 13.14526367 1.96533203 13.14526367 Z " fill="#D3D3D3" transform="translate(355.03466796875,291.854736328125)"/>
<path d="M0 0 C1.12290973 -0.00720654 2.24581946 -0.01441309 3.40275675 -0.02183801 C5.26109421 -0.01077658 5.26109421 -0.01077658 7.15697384 0.00050831 C8.46894629 -0.0034661 9.78091874 -0.0074405 11.13264793 -0.01153535 C14.78199862 -0.02215265 18.43110548 -0.0139737 22.08044565 -0.00278485 C26.01299425 0.00603621 29.94551021 -0.00238023 33.87805843 -0.00864697 C41.58467743 -0.01814901 49.291203 -0.01152301 56.99781508 0.00061598 C65.96521392 0.01421638 74.93259034 0.01259988 83.89999687 0.01048265 C99.89525659 0.00729075 115.89047182 0.01897231 131.88571835 0.03854847 C147.42088838 0.05755667 162.95600627 0.06463544 178.4911871 0.05905628 C195.39330721 0.0530042 212.29540438 0.05316482 229.19752258 0.06454211 C230.99831641 0.06574945 232.79911023 0.06695544 234.59990406 0.06816006 C235.92907357 0.06906537 235.92907357 0.06906537 237.285095 0.06998896 C243.5419365 0.0738749 249.79876948 0.07347189 256.05561161 0.07157421 C263.67552963 0.06945636 271.29540189 0.07464523 278.91530699 0.08918776 C282.80613295 0.09645209 286.69689209 0.10049151 290.58772373 0.0959444 C294.79739704 0.09114419 299.00688612 0.10174425 303.21654415 0.1140337 C304.45766651 0.11025438 305.69878887 0.10647505 306.977521 0.1025812 C308.09782298 0.1084134 309.21812496 0.11424559 310.37237549 0.12025452 C311.34511164 0.12112129 312.31784779 0.12198807 313.32006079 0.12288111 C315.62326717 0.37473011 315.62326717 0.37473011 317.62326717 2.37473011 C318.26166003 8.12026582 318.26166003 8.12026582 317.62326717 10.37473011 C314.03487037 12.99771665 311.4940168 13.74971404 307.08411217 13.74946022 C305.42174999 13.76027003 305.42174999 13.76027003 303.72580475 13.77129823 C302.51355777 13.76392394 301.3013108 13.75654966 300.05232906 13.74895191 C298.11455045 13.75491352 298.11455045 13.75491352 296.1376248 13.76099557 C292.55365999 13.77158575 288.96994446 13.7634514 285.3859905 13.75224507 C281.52024239 13.743407 277.65452703 13.7518454 273.78877926 13.75810719 C266.2167854 13.76759926 258.64488678 13.76099192 251.07289999 13.74884424 C242.25845855 13.73522951 233.44403986 13.73686162 224.62959058 13.73897757 C208.90505109 13.74216801 193.1805569 13.73049626 177.45603085 13.71091175 C162.19071734 13.69190412 146.9254569 13.68482498 131.66013241 13.69040394 C115.04364095 13.69645872 98.42717283 13.69629043 81.81068331 13.68491811 C80.03965477 13.68371079 78.26862623 13.68250481 76.49759769 13.68130016 C75.62617664 13.68069662 74.75475558 13.68009309 73.85692782 13.67947126 C67.70970677 13.67558856 61.5624944 13.67598708 55.41527271 13.67788601 C47.92684615 13.68000587 40.43846611 13.6747997 32.95005267 13.66027246 C29.12782375 13.65301804 25.30566268 13.64896035 21.483428 13.65351582 C17.34462524 13.65832868 13.20600896 13.64769748 9.06722164 13.63542652 C7.2455051 13.64109551 7.2455051 13.64109551 5.3869862 13.64687902 C4.28135249 13.64104682 3.17571879 13.63521463 2.03658104 13.6292057 C1.08087729 13.62833893 0.12517354 13.62747215 -0.85949093 13.62657911 C-3.51860661 13.3605357 -5.13803757 12.81480237 -7.37673283 11.37473011 C-8.77608296 8.57602984 -8.62938687 6.46974219 -8.37673283 3.37473011 C-6.02065122 0.04310961 -3.93456935 -0.00022249 0 0 Z " fill="#D3D3D3" transform="translate(179.3767328262329,455.62526988983154)"/>
<path d="M0 0 C1.13119766 -0.00938095 2.26239532 -0.0187619 3.4278717 -0.02842712 C5.25299538 -0.01157616 5.25299538 -0.01157616 7.11499023 0.00561523 C8.36738998 0.00416 9.61978973 0.00270477 10.91014099 0.00120544 C13.55767706 0.00286561 16.20377663 0.01235491 18.85107422 0.03515625 C22.24309603 0.06357077 25.63421841 0.06079445 29.02630711 0.04806614 C32.26425954 0.0394386 35.50206601 0.05455272 38.73999023 0.06811523 C39.95876358 0.0651796 41.17753693 0.06224396 42.4332428 0.05921936 C43.5612883 0.07190353 44.6893338 0.08458771 45.8515625 0.09765625 C46.84543472 0.10305923 47.83930695 0.10846222 48.86329651 0.11402893 C51.83710336 0.57559166 52.53022809 1.17053519 54.36108398 3.50170898 C54.73860741 5.47106171 54.73860741 5.47106171 54.74203491 7.75256348 C54.75049438 8.61900986 54.75895386 9.48545624 54.76766968 10.37815857 C54.76159698 11.32578568 54.75552429 12.27341278 54.74926758 13.24975586 C54.75452454 14.24999283 54.75978149 15.2502298 54.76519775 16.28077698 C54.77842471 19.59416216 54.76964994 22.90706873 54.75952148 26.22045898 C54.76154144 28.5182708 54.76445222 30.81608199 54.76821899 33.1138916 C54.77264601 37.93251644 54.76619902 42.75097459 54.75219727 47.56958008 C54.73510534 53.75390643 54.74494448 59.93784222 54.76291466 66.12215424 C54.7737422 70.86784827 54.77031085 75.61344932 54.76253128 80.35914612 C54.76052643 82.63977606 54.76299849 84.92041438 54.76996994 87.20103455 C54.77756734 90.38547203 54.76600382 93.56927223 54.74926758 96.75366211 C54.75534027 97.70128922 54.76141296 98.64891632 54.76766968 99.6252594 C54.75921021 100.49170578 54.75075073 101.35815216 54.74203491 102.25085449 C54.74090384 103.00375008 54.73977276 103.75664566 54.73860741 104.53235626 C54.2520638 107.07041331 53.37903367 107.92874777 51.36108398 109.50170898 C48.3971175 110.48969781 46.42018806 110.63942323 43.32641602 110.6628418 C42.30170197 110.67244934 41.27698792 110.68205688 40.22122192 110.69195557 C39.11495453 110.69620544 38.00868713 110.70045532 36.86889648 110.70483398 C35.73080536 110.71053406 34.59271423 110.71623413 33.4201355 110.72210693 C31.01097545 110.73155778 28.60180246 110.73809125 26.19262695 110.74194336 C22.50766462 110.75165213 18.82325921 110.7826768 15.13842773 110.81420898 C12.7985873 110.82073875 10.45874287 110.82598933 8.11889648 110.82983398 C7.01667755 110.84218079 5.91445862 110.85452759 4.77883911 110.86724854 C3.74782074 110.86424744 2.71680237 110.86124634 1.65454102 110.8581543 C0.75091827 110.86179993 -0.15270447 110.86544556 -1.08370972 110.86920166 C-4.49249103 110.37894685 -7.18986097 108.95076403 -9.63891602 106.50170898 C-9.75561926 103.35703749 -9.8069568 100.23404996 -9.81591797 97.08837891 C-9.82248917 96.09979385 -9.82906036 95.1112088 -9.83583069 94.09266663 C-9.85561726 90.80583633 -9.86723801 87.51905182 -9.87719727 84.23217773 C-9.88127279 83.11276606 -9.88534832 81.99335438 -9.88954735 80.84002113 C-9.91043069 74.91564745 -9.92472275 68.9912971 -9.93408203 63.06689453 C-9.94515288 56.93638884 -9.9795544 50.8062455 -10.01925373 44.67586803 C-10.04535573 39.97218637 -10.05376815 35.26859186 -10.05736351 30.56484413 C-10.06224587 28.30455388 -10.07390637 26.04426793 -10.0924015 23.78404808 C-10.1166568 20.62347816 -10.11585266 17.46385645 -10.10888672 14.30322266 C-10.12169678 13.36539948 -10.13450684 12.42757629 -10.14770508 11.46133423 C-10.09734361 5.20734543 -10.09734361 5.20734543 -7.9619751 1.92047119 C-5.09574831 0.16998009 -3.35158063 0.00055991 0 0 Z M3.36108398 13.50170898 C3.36108398 41.22170898 3.36108398 68.94170898 3.36108398 97.50170898 C15.90108398 97.50170898 28.44108398 97.50170898 41.36108398 97.50170898 C41.36108398 69.78170898 41.36108398 42.06170898 41.36108398 13.50170898 C28.82108398 13.50170898 16.28108398 13.50170898 3.36108398 13.50170898 Z " fill="#D3D3D3" transform="translate(269.638916015625,335.498291015625)"/>
<path d="M0 0 C1.15129395 -0.00938095 2.30258789 -0.0187619 3.48876953 -0.02842712 C4.73255371 -0.01719315 5.97633789 -0.00595917 7.2578125 0.00561523 C9.17182861 0.00343239 9.17182861 0.00343239 11.12451172 0.00120544 C13.8250894 0.00286709 16.52426427 0.01238014 19.22460938 0.03515625 C22.68503592 0.06354208 26.14458018 0.06080443 29.60507202 0.04806614 C32.90604243 0.03943712 36.20686974 0.05455496 39.5078125 0.06811523 C40.75159668 0.0651796 41.99538086 0.06224396 43.27685547 0.05921936 C44.42814941 0.07190353 45.57944336 0.08458771 46.765625 0.09765625 C47.78027832 0.10305923 48.79493164 0.10846222 49.84033203 0.11402893 C52.3828125 0.50170898 52.3828125 0.50170898 54.21061707 1.5955658 C56.00446048 4.51258995 55.7568216 7.00261846 55.75512695 10.40405273 C55.75877762 11.10192902 55.76242828 11.7998053 55.76618958 12.51882935 C55.77429612 14.82587005 55.76068478 17.13220857 55.74609375 19.43920898 C55.74557515 21.04199218 55.74609284 22.64477602 55.74760437 24.24755859 C55.74751464 27.60678604 55.73708428 30.96577351 55.71899414 34.32495117 C55.69630686 38.63268608 55.69576278 42.9400703 55.70251179 47.24784851 C55.70585194 50.55752687 55.69922082 53.86712515 55.68938255 57.17678833 C55.68553106 58.76522401 55.68438213 60.3536686 55.6859684 61.94210815 C55.68633892 64.16136674 55.67372306 66.38017434 55.6574707 68.59936523 C55.65055962 70.49440796 55.65055962 70.49440796 55.64350891 72.42773438 C55.3828125 75.50170898 55.3828125 75.50170898 53.3828125 78.50170898 C50.39348618 79.49815109 48.37974305 79.63965563 45.25634766 79.6628418 C44.21161285 79.67244934 43.16687805 79.68205688 42.09048462 79.69195557 C40.96234344 79.69620544 39.83420227 79.70045532 38.671875 79.70483398 C37.51158783 79.71053406 36.35130066 79.71623413 35.15585327 79.72210693 C32.69961459 79.73155821 30.24336322 79.73809142 27.78710938 79.74194336 C24.02972309 79.75165237 20.27288295 79.78267679 16.515625 79.81420898 C14.13021158 79.82073871 11.74479425 79.8259893 9.359375 79.82983398 C7.67323593 79.84835419 7.67323593 79.84835419 5.95303345 79.86724854 C4.90199432 79.86424744 3.8509552 79.86124634 2.76806641 79.8581543 C1.38598495 79.86362274 1.38598495 79.86362274 -0.02401733 79.86920166 C-3.16794238 79.42365842 -5.05462876 78.34681873 -7.6171875 76.50170898 C-9.05669857 73.62268684 -8.76041702 71.12969068 -8.77832031 67.91235352 C-8.78328522 67.23573669 -8.78825012 66.55911987 -8.79336548 65.86199951 C-8.8079925 63.61949656 -8.81478999 61.37706434 -8.8203125 59.13452148 C-8.82606355 57.57754514 -8.83182129 56.02056882 -8.83758545 54.46359253 C-8.848097 51.19683502 -8.85393864 47.93010213 -8.85742188 44.66333008 C-8.86290668 40.47781432 -8.8869335 36.29262388 -8.91539383 32.10721016 C-8.93401981 28.89015757 -8.93922578 25.67318335 -8.94075775 22.45608139 C-8.94378497 20.91310727 -8.95181586 19.37013454 -8.96494293 17.82721329 C-8.98200305 15.66784183 -8.98012377 13.50926507 -8.97363281 11.34985352 C-8.97727844 10.12122589 -8.98092407 8.89259827 -8.98468018 7.6267395 C-8.2633534 1.49282629 -5.98571941 0.00098027 0 0 Z M4.3828125 13.50170898 C4.3828125 30.99170898 4.3828125 48.48170898 4.3828125 66.50170898 C16.9228125 66.50170898 29.4628125 66.50170898 42.3828125 66.50170898 C42.3828125 49.01170898 42.3828125 31.52170898 42.3828125 13.50170898 C29.8428125 13.50170898 17.3028125 13.50170898 4.3828125 13.50170898 Z " fill="#D3D3D3" transform="translate(184.6171875,366.498291015625)"/>
</svg>
