<?xml version="1.0" encoding="UTF-8"?>
<svg version="1.1" xmlns="http://www.w3.org/2000/svg" width="512" height="512">
<path d="M0 0 C6.24106596 5.1063267 8.64719617 9.61907039 10.75 17.25 C11.64159597 21.59226669 11.64159597 21.59226669 13.75 25.25 C17.73432496 25.63310817 19.94864677 25.83098109 23.25 23.4375 C24.075 22.715625 24.9 21.99375 25.75 21.25 C31.76438116 17.81321076 37.90116597 17.17484311 44.75 18.25 C51.76457503 20.6261283 56.49227891 25.41605264 61.5625 30.625 C62.31208984 31.3675 63.06167969 32.11 63.83398438 32.875 C69.6507864 38.75937882 73.34329289 44.06448441 74 52.4375 C73.60041062 58.5312381 72.29874177 63.88467085 68 68.375 C65.36480734 71.13372888 65.36480734 71.13372888 65.75 75 C66.45517745 78.50998761 66.45517745 78.50998761 69.75 80.25 C71.51058069 80.59824673 73.2840708 80.88394044 75.0625 81.125 C82.49439312 82.40602368 86.57914821 85.74435631 91.453125 91.2734375 C95.69116567 97.73261996 95.15142714 105.0850234 95.1875 112.5 C95.22037109 113.67691406 95.25324219 114.85382813 95.28710938 116.06640625 C95.33958873 124.64439607 93.99685546 131.73387977 87.95947266 138.15405273 C83.19439905 142.42846395 77.78668564 143.44649145 71.60546875 144.51171875 C68.65282062 145.27512572 67.45389347 145.74815642 65.75 148.25 C65.85213175 153.76511465 67.38562016 156.09400137 70.75 160.25 C74.03831945 166.80001283 74.53011487 173.16058902 72.75 180.25 C68.67438549 190.00729746 57.08911861 201.92958345 47.375 206.125 C38.94715004 208.62315748 32.53007965 207.25465105 24.75 203.25 C23.38875 202.1053125 23.38875 202.1053125 22 200.9375 C19.79306331 198.91263676 19.79306331 198.91263676 16.5625 199.375 C13.64700292 200.04291179 13.64700292 200.04291179 11.75 202.25 C11.27850996 204.27970713 10.87107779 206.32455733 10.5 208.375 C8.90846013 215.47812868 6.80039499 220.42043241 0.72338867 224.66577148 C-6.61462595 228.70117442 -13.11473975 228.97455177 -21.375 228.8125 C-22.59832031 228.82345703 -23.82164062 228.83441406 -25.08203125 228.84570312 C-33.75916556 228.77534798 -39.18316928 227.57740695 -46 222 C-50.70941474 216.24404865 -52.64976698 210.68539925 -53.66015625 203.3515625 C-54.10969079 200.87322834 -54.10969079 200.87322834 -57.25 199.25 C-62.16624872 199.36173293 -64.7227203 201.19340379 -68.46484375 204.0390625 C-73.82867726 207.67754912 -80.05702171 207.8501555 -86.26953125 206.9609375 C-96.66867154 204.45015408 -106.10038363 193.57535783 -112.25 185.25 C-116.03577672 179.02178669 -116.19129857 172.34396831 -115.25 165.25 C-113.61540296 160.95766925 -111.49426344 157.49426344 -108.25 154.25 C-107.77071644 150.21690633 -107.77071644 150.21690633 -109.37890625 146.64453125 C-111.96542475 144.71679199 -114.337477 144.44131226 -117.5 143.875 C-124.24050949 142.40706682 -128.73887396 140.8654956 -132.7421875 135.1015625 C-139.14942605 124.20563706 -138.69137351 109.81561457 -136.63671875 97.60546875 C-134.57839436 91.1222003 -130.93701402 86.93048471 -125.25 83.25 C-122.46735508 82.00669057 -119.91662179 81.38920964 -116.94921875 80.76953125 C-115.73685547 80.51236328 -115.73685547 80.51236328 -114.5 80.25 C-113.36304688 80.0334375 -113.36304688 80.0334375 -112.203125 79.8125 C-110.03654157 79.35907203 -110.03654157 79.35907203 -108.25 77.25 C-107.60265733 73.93236881 -107.87817473 71.90041673 -109.55859375 68.9609375 C-110.62596817 67.38931186 -111.71912094 65.83482027 -112.83984375 64.30078125 C-115.35380983 60.6447364 -115.46604838 57.3926701 -115.5625 53.0625 C-115.59988281 51.97582031 -115.63726562 50.88914063 -115.67578125 49.76953125 C-114.63935583 41.20238167 -109.47269483 35.83947487 -103.5 30 C-102.82195312 29.30648437 -102.14390625 28.61296875 -101.4453125 27.8984375 C-96.2256783 22.71849633 -91.29113604 18.89204965 -83.90625 17.71875 C-75.86477653 17.79836855 -70.37465852 18.8532224 -64.125 24 C-61.37426487 25.83382342 -59.47147884 25.72979472 -56.25 25.25 C-53.43507812 22.32059566 -52.86287792 19.97019391 -52.4375 16 C-51.26373994 8.73432824 -47.97123775 4.5479341 -42.4375 -0.125 C-30.8395018 -6.03770497 -11.50643849 -6.19577457 0 0 Z M-35.25 15.25 C-36.46894135 18.60029079 -36.46894135 18.60029079 -37.125 22.4375 C-39.02606801 30.8299462 -42.13298411 35.61510983 -49.375 40.25 C-56.0858228 42.56773338 -64.46878696 42.51627152 -70.875 39.4375 C-72.82842564 38.32430329 -74.22772618 37.27306327 -75.79296875 35.65234375 C-77.25305373 34.00744526 -77.25305373 34.00744526 -79.9375 33.625 C-85.01763869 34.58351673 -87.6425717 37.70962427 -91.25 41.25 C-92.38308594 42.24 -92.38308594 42.24 -93.5390625 43.25 C-97.01527365 46.3945585 -99.01913232 48.21997495 -100.0625 52.875 C-99.04998604 57.0808272 -97.14287319 59.08161508 -94.25 62.25 C-91.1540205 68.45256168 -91.10797024 76.02380603 -92.90234375 82.6640625 C-95.13683795 87.6317363 -98.44165229 91.64645563 -103.25 94.25 C-107.13791059 95.39204797 -110.9481383 96.30211733 -114.921875 97.09765625 C-118.28524643 97.97823629 -118.28524643 97.97823629 -120.18359375 100.2734375 C-121.69647735 104.49621151 -121.64723643 108.36214293 -121.5625 112.8125 C-121.56572266 113.66263672 -121.56894531 114.51277344 -121.57226562 115.38867188 C-121.53605764 119.58550599 -121.48019744 122.58155886 -119.25 126.25 C-116.42972779 128.0979728 -113.73719153 128.61575627 -110.4375 129.125 C-103.9797167 130.36907296 -99.39896249 132.37843099 -95.375 137.8125 C-91.34687867 143.80132939 -91.63790804 150.25230003 -92.25 157.25 C-93.49378262 161.17838273 -95.39463343 164.21134059 -98 167.375 C-99.93168018 170.27252027 -99.79015964 171.79697946 -99.25 175.25 C-97.17126956 178.18387056 -94.65876458 180.58699191 -92.0625 183.0625 C-91.38896484 183.74248047 -90.71542969 184.42246094 -90.02148438 185.12304688 C-85.41947281 189.69277857 -85.41947281 189.69277857 -79.25 191.25 C-76.17321965 189.53239171 -76.17321965 189.53239171 -73.25 187.25 C-67.30712144 183.42957807 -62.24888914 182.61583377 -55.25 183.25 C-48.51234692 184.80296178 -43.37212298 188.06681552 -39.5 193.875 C-38.05261293 197.7829451 -37.47550251 201.53725526 -36.97265625 205.6640625 C-36.00048567 209.14285668 -35.32052076 210.26857602 -32.25 212.25 C-28.57332925 212.81546339 -24.96218204 212.76183956 -21.25 212.6875 C-19.75339844 212.69813477 -19.75339844 212.69813477 -18.2265625 212.70898438 C-11.63035239 212.75641421 -11.63035239 212.75641421 -6.25 209.25 C-5.26153268 206.31402634 -5.26153268 206.31402634 -4.75 203 C-3.32006368 196.12560026 -2.0242419 191.48145544 3.625 186.9375 C10.22717011 183.37232814 16.47402277 181.99939799 23.859375 183.75 C28.20273962 185.2314577 31.4797342 187.32600889 34.9140625 190.359375 C37.93978408 191.82717185 39.57639483 191.28495427 42.75 190.25 C45.44915007 188.26602835 47.73465398 185.96377965 50.0625 183.5625 C50.69478516 182.94955078 51.32707031 182.33660156 51.97851562 181.70507812 C54.76308466 178.89066376 56.53962593 176.86008479 57.84375 173.078125 C57.73154618 169.69330986 56.97721727 168.35776218 54.9375 165.6875 C50.15508899 159.31473854 48.98147067 154.12742566 49.75 146.25 C51.15300414 139.93648137 53.95859684 135.67886765 59.5 132.12890625 C64.06657649 129.61544782 68.39417038 128.58511204 73.55078125 127.9375 C76.47169547 127.02439005 77.16081385 125.8317295 78.75 123.25 C79.35680384 119.79213473 79.21378561 116.31804519 79.1875 112.8125 C79.20748047 111.87083984 79.22746094 110.92917969 79.24804688 109.95898438 C79.2450318 105.68662631 79.13196909 102.94632526 77.05078125 99.15234375 C74.38249236 96.94613545 72.91604704 96.5623243 69.5 96.25 C63.09186489 95.31014018 58.26239726 93.45784888 54.18359375 88.25 C50.11171578 81.93916918 49.13000678 76.7120612 49.75 69.25 C51.00037324 63.93591371 53.32783357 60.47067193 56.75 56.25 C57.64971004 53.85054814 57.64971004 53.85054814 57.75 51.25 C56.677183 49.22976134 56.677183 49.22976134 54.875 47.5 C54.22917969 46.82453125 53.58335937 46.1490625 52.91796875 45.453125 C51.84482422 44.36257812 51.84482422 44.36257812 50.75 43.25 C50.00363281 42.41984375 49.25726563 41.5896875 48.48828125 40.734375 C47.72902344 39.91453125 46.96976563 39.0946875 46.1875 38.25 C45.13369141 37.1053125 45.13369141 37.1053125 44.05859375 35.9375 C41.03616604 33.72821274 39.42264402 33.72193849 35.75 34.25 C33.25873544 35.46785579 33.25873544 35.46785579 31.0625 37.1875 C24.57353777 41.9281408 18.63587669 41.89469845 10.75 41.25 C5.07162709 39.81208944 1.30564147 36.48848643 -2.0078125 31.7421875 C-4.01283167 27.71953897 -4.75241546 23.51149396 -5.51171875 19.10546875 C-6.28094495 16.13031345 -6.80637107 15.03961632 -9.25 13.25 C-13.25110123 11.91629959 -16.93503403 12.02664525 -21.125 12 C-22.32962891 11.9690625 -22.32962891 11.9690625 -23.55859375 11.9375 C-28.18568854 11.90700844 -31.72004643 11.91540646 -35.25 15.25 Z " fill="#D3D3D3" transform="translate(275.25,92.75)"/>
<path d="M0 0 C1.9375 1.0625 1.9375 1.0625 3 3 C3.68530116 7.04327684 4.05994504 9.50199791 1.6472168 12.91186523 C1.06625244 13.53778564 0.48528809 14.16370605 -0.11328125 14.80859375 C-0.75007813 15.503479 -1.386875 16.19836426 -2.04296875 16.91430664 C-3.01169922 17.94672485 -3.01169922 17.94672485 -4 19 C-4.55816406 19.61157959 -5.11632812 20.22315918 -5.69140625 20.85327148 C-13.08214635 28.9401929 -20.7047716 36.8032704 -28.4375 44.5625 C-29.17009033 45.29968262 -29.90268066 46.03686523 -30.6574707 46.79638672 C-34.71078677 50.83820206 -38.85430345 54.70788306 -43.20922852 58.42358398 C-45.05296019 60.04662085 -46.78069051 61.74639714 -48.5 63.5 C-51.48872337 66.53594925 -54.61706479 69.34508659 -57.84375 72.125 C-60.19962958 74.17359094 -62.5050746 76.27203002 -64.8125 78.375 C-69.08310151 82.23022386 -73.48773669 85.87582515 -77.9609375 89.4921875 C-81.47058742 92.38832535 -84.89001822 95.37698831 -88.3125 98.375 C-94.75722813 103.99836515 -101.36114492 109.35925229 -108.14160156 114.57128906 C-110.10612139 116.08158465 -112.06473523 117.5993567 -114.0234375 119.1171875 C-124.18967549 126.96957454 -134.52382058 134.5669402 -145 142 C-145.90588867 142.64404785 -146.81177734 143.2880957 -147.74511719 143.95166016 C-159.50327376 152.28951651 -171.3483307 160.31889638 -183.75341797 167.66259766 C-186.10789975 169.0642333 -188.44742037 170.48859411 -190.78515625 171.91796875 C-202.97604329 179.35084738 -215.36889639 186.34318089 -228 193 C-228.98677734 193.52207031 -229.97355469 194.04414063 -230.99023438 194.58203125 C-273.53104511 216.92615037 -333.10498794 244.89456129 -382 230 C-394.77540911 225.3454161 -406.08852834 217.65185817 -412 205 C-416.51203642 193.92639198 -418.95450137 179.81800547 -416 168 C-414.375 165.5 -414.375 165.5 -412 164 C-407.80697489 163.31386862 -405.75360363 163.56707877 -402.0625 165.6875 C-399.29932816 170.12532144 -399.75213534 173.39303987 -399.9375 178.51953125 C-400.11764786 188.55151513 -398.0000781 197.38744018 -391.24609375 204.96875 C-381.10664116 214.63707651 -367.36391425 216.37568581 -353.87915039 216.30029297 C-281.21085469 214.54391173 -206.52622244 165.88744294 -149.81689453 124.32958984 C-147.71533357 122.79168324 -145.6053943 121.26555397 -143.49609375 119.73828125 C-134.36921874 113.10097387 -125.47366149 106.25908054 -116.765625 99.08203125 C-113.20784641 96.15279355 -109.58061849 93.321787 -105.9375 90.5 C-95.61881257 82.4661753 -85.86945699 73.74805461 -76.18359375 64.96875 C-74.18262015 63.16465216 -72.1604969 61.38992983 -70.125 59.625 C-62.73434686 53.17879138 -55.47898635 46.57858609 -48.609375 39.578125 C-46.96611661 37.96677454 -45.25669804 36.48643681 -43.5 35 C-34.59360633 27.31366026 -26.15382583 18.75847041 -18.5546875 9.78125 C-8.4625585 -1.78159126 -8.4625585 -1.78159126 0 0 Z " fill="#D3D3D3" transform="translate(419,241)"/>
<path d="M0 0 C1.88527177 2.9767449 2.12721156 5.37827038 2.1875 8.875 C-0.67026726 13.64276868 -3.91211985 14.93715065 -9.0625 16.3125 C-17.6608855 18.91477913 -24.27515051 22.3906926 -28.77734375 30.43359375 C-37.1760929 50.24196438 -30.68769079 71.60163919 -23.25 90.625 C-8.61314887 126.53965875 14.5062169 158.4946375 39.58984375 187.80859375 C41.91402742 190.53270986 44.14673584 193.32169993 46.375 196.125 C52.23109239 203.31724181 58.69405432 209.94877799 65.08691406 216.66113281 C67.82531483 219.54721117 70.53956745 222.45537455 73.25317383 225.36474609 C80.6085243 233.24647341 87.93637837 240.99585637 96.12109375 248.02734375 C98.39899478 250.06410592 100.54168588 252.19974075 102.6875 254.375 C106.04006779 257.76768399 109.48225682 260.96600684 113.1015625 264.0703125 C115.43775501 266.09151276 117.71714851 268.16878839 120 270.25 C124.32010791 274.14863397 128.76821381 277.85003858 133.29296875 281.5078125 C135.801139 283.55902866 138.26870105 285.64953563 140.72509766 287.76220703 C148.27533516 294.24412425 156.1469741 300.25790621 164.07421875 306.26855469 C167.43941129 308.82666084 170.78812455 311.40509016 174.125 314 C174.71015381 314.44923828 175.29530762 314.89847656 175.89819336 315.36132812 C178.52105572 317.40836352 180.32209458 319.07689187 182.1875 321.875 C182.00709499 325.2425602 181.82644716 327.86613606 180 330.75 C177.27136148 332.4436377 175.41458643 332.81294065 172.1875 332.875 C167.22214434 330.34225631 162.94758717 327.30722417 158.625 323.8125 C157.39600543 322.83181553 156.1668337 321.85135306 154.9375 320.87109375 C154.31617188 320.37335449 153.69484375 319.87561523 153.0546875 319.36279297 C151.25438296 317.92829299 149.44286117 316.50981666 147.625 315.09765625 C140.2155547 309.33968275 132.97823987 303.41655439 125.85693359 297.30615234 C124.11249366 295.81069945 122.36325744 294.32100045 120.61328125 292.83203125 C114.52261519 287.64198176 108.48327962 282.40723092 102.55859375 277.02734375 C100.91194997 275.53261439 99.25773264 274.04620285 97.59765625 272.56640625 C93.26862461 268.7060818 89.05580791 264.79502499 84.99707031 260.65209961 C83.22728549 258.91407159 81.39802358 257.30147702 79.51171875 255.69140625 C75.02668717 251.78940818 70.81589692 247.65115292 66.625 243.4375 C65.90892578 242.72529297 65.19285156 242.01308594 64.45507812 241.27929688 C60.39014628 237.20696752 56.49889301 233.04328874 52.76391602 228.66577148 C51.14088208 226.82204314 49.44096228 225.09444449 47.6875 223.375 C43.97545884 219.71212494 40.57958825 215.83350906 37.1875 211.875 C36.3037087 210.85518849 35.41956755 209.83568012 34.53515625 208.81640625 C-2.9854099 165.46294309 -51.12165377 106.60946727 -49.8125 45.875 C-48.82933148 32.37603587 -44.13640466 19.04960241 -33.8125 9.875 C-25.77490692 3.76843552 -10.17675013 -6.31660353 0 0 Z " fill="#D3D3D3" transform="translate(51.8125,41.125)"/>
<path d="M0 0 C5.73826402 3.41281369 9.34169038 7.46534487 11.12255859 13.99121094 C11.85797451 17.80668985 11.72562045 21.61783152 11.64453125 25.48828125 C11.63550781 26.31521484 11.62648438 27.14214844 11.6171875 27.99414062 C11.59384637 30.01314833 11.55798413 32.03200481 11.51953125 34.05078125 C12.49792969 33.99857422 12.49792969 33.99857422 13.49609375 33.9453125 C18.95692879 33.77617159 22.88671601 33.81858457 27.51953125 37.05078125 C35.19488348 44.54763692 36.4759136 55.42991503 38.76953125 65.55078125 C39.05054688 66.72253906 39.3315625 67.89429688 39.62109375 69.1015625 C41.32116898 76.60040917 42.45523853 83.20765706 39.5390625 90.50390625 C30.30102251 104.25632824 14.67362918 105.63905088 -0.53173828 109.19775391 C-3.13717635 109.80821037 -5.7405138 110.42710322 -8.34375 111.046875 C-10.00639385 111.43929628 -11.66915017 111.83124144 -13.33203125 112.22265625 C-14.1069693 112.40697205 -14.88190735 112.59128784 -15.68032837 112.78118896 C-18.68178863 113.47986817 -21.3873399 114.05078125 -24.48046875 114.05078125 C-24.54234375 114.79328125 -24.60421875 115.53578125 -24.66796875 116.30078125 C-25.77837844 120.05909098 -27.20730047 120.89538306 -30.48046875 123.05078125 C-33.52859785 124.19207009 -36.6321226 124.97328269 -39.79296875 125.73828125 C-41.01790039 126.05635742 -41.01790039 126.05635742 -42.26757812 126.38085938 C-55.56141345 129.73874447 -55.56141345 129.73874447 -60.79296875 127.86328125 C-64.91574192 125.08280632 -66.68056441 122.22541701 -67.92260742 117.45678711 C-68.16262985 116.5516185 -68.40265228 115.64644989 -68.64994812 114.71385193 C-69.02045036 113.2544796 -69.02045036 113.2544796 -69.3984375 111.765625 C-69.6605452 110.75415909 -69.92265289 109.74269318 -70.19270325 108.70057678 C-70.74442689 106.5591612 -71.29132344 104.41649697 -71.83374023 102.27270508 C-72.65980903 99.0204067 -73.50952355 95.77493626 -74.36132812 92.52929688 C-74.8959881 90.44177884 -75.42923595 88.35389852 -75.9609375 86.265625 C-76.21401169 85.30687973 -76.46708588 84.34813446 -76.72782898 83.3603363 C-78.31881714 76.96208929 -79.27397189 70.64833644 -78.48046875 64.05078125 C-75.07359212 58.73743022 -70.24317325 57.70183931 -64.41796875 56.30078125 C-63.61552734 56.09324219 -62.81308594 55.88570313 -61.98632812 55.671875 C-59.82137465 55.11491602 -57.65252723 54.57921171 -55.48046875 54.05078125 C-54.81217041 53.86612305 -54.14387207 53.68146484 -53.45532227 53.49121094 C-50.46800794 52.82498334 -47.52744214 52.99218561 -44.48046875 53.05078125 C-44.3825 52.30957031 -44.28453125 51.56835938 -44.18359375 50.8046875 C-42.56457207 44.46351926 -36.49599134 39.88618088 -31.48046875 36.05078125 C-30.35058868 33.79102112 -30.3290231 32.45515885 -30.26953125 29.9453125 C-30.22699219 28.71651367 -30.22699219 28.71651367 -30.18359375 27.46289062 C-30.13210344 25.7495507 -30.0876637 24.03598224 -30.05078125 22.32226562 C-29.73644 13.93328358 -27.49382164 8.20397955 -21.48046875 2.05078125 C-15.64457442 -2.32613949 -6.71882869 -2.57114232 0 0 Z M-11.48046875 15.05078125 C-13.52065928 18.11106705 -13.7206828 18.70998257 -13.71875 22.1484375 C-13.73699829 23.34364014 -13.73699829 23.34364014 -13.75561523 24.56298828 C-13.76794189 25.40458496 -13.78026855 26.24618164 -13.79296875 27.11328125 C-14.12996028 36.08011315 -15.05134086 42.87620094 -21.859375 49.29296875 C-23.59884829 50.7913526 -25.34361374 52.28361586 -27.09375 53.76953125 C-30.7411935 57.25579476 -33.32324674 61.11330069 -34.48046875 66.05078125 C-34.45353634 73.2491635 -32.29143469 80.22362113 -30.41796875 87.11328125 C-30.13630859 88.16966797 -29.85464844 89.22605469 -29.56445312 90.31445312 C-28.87557146 92.8948404 -28.18081046 95.47348539 -27.48046875 98.05078125 C-21.49108727 97.40211799 -15.73343591 96.31759223 -9.87109375 94.94140625 C-8.98186218 94.73271912 -8.09263062 94.52403198 -7.17645264 94.309021 C-5.31019732 93.86786883 -3.44458225 93.42400009 -1.57958984 92.97753906 C0.32501145 92.52513505 2.23163442 92.08116185 4.14013672 91.64550781 C6.91194527 91.01263135 9.67680322 90.3549638 12.44140625 89.69140625 C13.29248962 89.50161194 14.143573 89.31181763 15.02044678 89.11627197 C18.93177536 88.14867489 21.10250544 87.43723643 24.1105957 84.6496582 C25.64688355 81.81587131 25.89044336 80.89692512 25.140625 77.828125 C24.96241211 77.04735596 24.78419922 76.26658691 24.60058594 75.4621582 C24.28202637 74.23758911 24.28202637 74.23758911 23.95703125 72.98828125 C23.75883789 72.14934326 23.56064453 71.31040527 23.35644531 70.44604492 C22.76722602 67.97459733 22.14655088 65.51286813 21.51953125 63.05078125 C21.20136623 61.74652153 20.88477128 60.441877 20.5703125 59.13671875 C19.90933423 56.43476855 19.228209 53.74053542 18.51953125 51.05078125 C15.3344502 50.01545017 13.4068279 50.14142519 10.20703125 51.05078125 C6.01966237 52.06652915 2.75316579 52.17399041 -1.48046875 51.05078125 C-3.93378322 47.37080955 -3.75961784 45.43723053 -3.82421875 41.046875 C-3.83884155 40.3677858 -3.85346436 39.68869659 -3.86853027 38.98902893 C-3.93075345 36.08670573 -3.97046036 33.18417247 -4.01220703 30.28149414 C-4.04589333 28.16139248 -4.09100725 26.04174586 -4.13671875 23.921875 C-4.15541016 22.6527124 -4.17410156 21.3835498 -4.19335938 20.07592773 C-4.16688949 16.93960456 -4.16688949 16.93960456 -6.48046875 15.05078125 C-8.98046875 14.63411458 -8.98046875 14.63411458 -11.48046875 15.05078125 Z M-57.10546875 71.55078125 C-59.29296875 72.30078125 -59.29296875 72.30078125 -61.48046875 73.05078125 C-60.09312025 81.58570552 -58.07121261 89.88420633 -55.85546875 98.23828125 C-55.530625 99.47642578 -55.20578125 100.71457031 -54.87109375 101.99023438 C-54.07789085 105.01140424 -53.28095167 108.03153373 -52.48046875 111.05078125 C-51.22234375 110.90640625 -49.96421875 110.76203125 -48.66796875 110.61328125 C-47.96027344 110.53207031 -47.25257813 110.45085937 -46.5234375 110.3671875 C-44.28650482 110.0790739 -44.28650482 110.0790739 -41.48046875 109.05078125 C-42.06245117 103.71206247 -42.9611589 98.69577116 -44.328125 93.48828125 C-44.50427841 92.81152344 -44.68043182 92.13476562 -44.86192322 91.4375 C-45.41753572 89.30732078 -45.98011306 87.17905668 -46.54296875 85.05078125 C-46.92429336 83.59387169 -47.30515681 82.13684135 -47.68554688 80.6796875 C-48.61186938 77.13530903 -49.54444108 73.59261073 -50.48046875 70.05078125 C-52.94667164 70.05078125 -54.77391001 70.75138968 -57.10546875 71.55078125 Z " fill="#D3D3D3" transform="translate(405.48046875,366.94921875)"/>
<path d="M0 0 C2.52585306 2.21298304 4.91366975 4.50212965 7.2734375 6.890625 C7.92183594 7.51710938 8.57023437 8.14359375 9.23828125 8.7890625 C20.11887081 20.07440047 23.32602227 35.71240752 23.2734375 50.890625 C22.26494619 66.59694339 14.69586217 80.31495518 3.43359375 91.078125 C-9.22313159 101.69787284 -25.39717402 106.30667515 -41.7265625 104.890625 C-57.66766749 102.53001537 -71.67960024 95.20079539 -81.7265625 82.328125 C-91.56385036 67.74180162 -94.64509533 52.00680231 -92.30078125 34.7578125 C-88.646324 19.7364238 -80.12266801 6.55052867 -67.2265625 -2.046875 C-46.37787012 -14.30391215 -19.76706862 -15.29257458 0 0 Z M-67.0390625 19.203125 C-75.20700561 29.49982383 -77.81346035 40.95932751 -76.7265625 53.890625 C-74.54383374 65.16345201 -68.28634726 75.21458638 -58.72265625 81.68359375 C-48.64344488 87.77845933 -38.28649541 90.72564107 -26.51953125 88.203125 C-19.36986471 86.20554646 -13.4954397 83.57146249 -7.7265625 78.890625 C-7.10136719 78.38917969 -6.47617188 77.88773437 -5.83203125 77.37109375 C1.84412806 70.49767006 6.53907301 60.12485351 7.2734375 49.890625 C7.38376978 38.17964121 4.29134848 27.58410276 -3.7265625 18.890625 C-12.86203002 9.65346397 -21.94838275 5.08288972 -34.9765625 4.515625 C-47.51320681 4.81369906 -58.54225809 10.05935578 -67.0390625 19.203125 Z " fill="#D3D3D3" transform="translate(104.7265625,308.109375)"/>
<path d="M0 0 C4.9828504 4.34796985 6.05889945 10.99203878 7.75 17.125 C8.06582031 18.22199219 8.38164062 19.31898437 8.70703125 20.44921875 C11 28.53913014 11 28.53913014 11 32 C12.39992187 32.14308594 12.39992187 32.14308594 13.828125 32.2890625 C18.98638725 33.02929651 23.82420312 34.72168121 28.75 36.375 C29.69488281 36.67921875 30.63976562 36.9834375 31.61328125 37.296875 C32.51949219 37.59851562 33.42570312 37.90015625 34.359375 38.2109375 C35.17889648 38.48212402 35.99841797 38.75331055 36.84277344 39.03271484 C39.15697954 40.07038852 40.41396428 41.03368313 42 43 C43.0160218 46.33835733 43.37531171 48.16445202 41.9296875 51.3828125 C39.50925675 54.66558295 36.58804403 56.74646817 33.25 59 C32.65445313 59.4125 32.05890625 59.825 31.4453125 60.25 C30.24478571 61.08153371 29.0410051 61.90838977 27.83398438 62.73046875 C25.919185 64.05594223 24.04759146 65.43243918 22.171875 66.8125 C19 69 19 69 17 69 C17.01047363 69.8878418 17.02094727 70.77568359 17.03173828 71.69042969 C17.06587756 74.99286507 17.09092668 78.29511218 17.10986328 81.59765625 C17.11990427 83.02542078 17.13353981 84.45316483 17.15087891 85.88085938 C17.17521152 87.93624941 17.18650202 89.99136692 17.1953125 92.046875 C17.20578613 93.28276367 17.21625977 94.51865234 17.22705078 95.79199219 C17.01113099 98.84272984 16.67009017 100.48330316 15 103 C12.53292299 104.91883767 11.0746177 105.00057033 7.93359375 104.9765625 C2.56502939 104.12779143 -1.1811789 100.42761516 -5.25 97.0625 C-6.8381285 95.78203948 -8.42665354 94.50207056 -10.015625 93.22265625 C-11.05638184 92.36812866 -11.05638184 92.36812866 -12.11816406 91.49633789 C-14.13694791 89.8482696 -14.13694791 89.8482696 -17 88 C-21.44884845 88.6786379 -25.59954164 89.85517031 -29.8671875 91.25390625 C-30.55723877 91.47812256 -31.24729004 91.70233887 -31.95825195 91.93334961 C-33.33057502 92.38442181 -34.69919506 92.84696922 -36.06323242 93.32250977 C-40.88338293 94.9212696 -44.91583082 95.34183848 -50 95 C-52.5 93.4375 -52.5 93.4375 -54 91 C-54.80960858 84.19564927 -52.31902822 78.60625487 -49.9375 72.3125 C-49.1659014 70.2706333 -48.40374121 68.22516795 -47.65234375 66.17578125 C-47.31195068 65.27770752 -46.97155762 64.37963379 -46.62084961 63.4543457 C-45.9327543 60.73416399 -45.95987432 59.57857733 -47 57 C-48.27151959 54.88502228 -48.27151959 54.88502228 -49.87109375 52.77734375 C-50.44537109 51.99166016 -51.01964844 51.20597656 -51.61132812 50.39648438 C-52.21396484 49.58501953 -52.81660156 48.77355469 -53.4375 47.9375 C-54.62401489 46.32184732 -55.81022546 44.70597109 -56.99609375 43.08984375 C-57.52388428 42.37691162 -58.0516748 41.66397949 -58.59545898 40.92944336 C-61.74693148 36.60020867 -62.47345368 34.39737196 -62 29 C-60.23984869 25.8149643 -59.50109084 25.16703028 -56 24 C-53.90264159 24.06841756 -51.8070482 24.19728296 -49.71484375 24.359375 C-35.65170555 25.96976428 -35.65170555 25.96976428 -23.10546875 21.4609375 C-20.42212611 18.29964702 -18.75061587 14.7395785 -17 11 C-15.70372846 9.05807596 -14.37360098 7.13801728 -13 5.25 C-12.46375 4.45078125 -11.9275 3.6515625 -11.375 2.828125 C-8.6616748 -0.77936418 -4.18568674 -1.05826797 0 0 Z M-8 26 C-9.51479955 27.93870628 -10.98602476 29.88972713 -12.4375 31.875 C-18.3191836 39.88449646 -18.3191836 39.88449646 -20.87939453 40.31884766 C-21.62302246 40.35026855 -22.36665039 40.38168945 -23.1328125 40.4140625 C-24.34130859 40.47207031 -24.34130859 40.47207031 -25.57421875 40.53125 C-26.83685547 40.57765625 -26.83685547 40.57765625 -28.125 40.625 C-29.39923828 40.68300781 -29.39923828 40.68300781 -30.69921875 40.7421875 C-32.79911684 40.83656494 -34.89952891 40.91937586 -37 41 C-35.74360189 44.53133255 -34.32885882 46.99708227 -31.875 49.8125 C-29.3781861 53.09262806 -28.20450145 55.4946414 -28.51953125 59.77734375 C-29.33821397 63.56458333 -30.74437562 67.10593163 -32.22265625 70.6796875 C-32.60744141 71.82824219 -32.60744141 71.82824219 -33 73 C-32.67 73.66 -32.34 74.32 -32 75 C-31.2265625 74.71125 -30.453125 74.4225 -29.65625 74.125 C-16.52973667 69.44624277 -16.52973667 69.44624277 -12 71 C-8.64292415 73.17222555 -5.53136589 75.49986769 -2.44140625 78.03125 C-0.39297957 80.10462135 -0.39297957 80.10462135 1 80 C1.01417969 78.75863281 1.02835938 77.51726562 1.04296875 76.23828125 C1.089882 74.59631757 1.13812932 72.95439163 1.1875 71.3125 C1.19330078 70.49587891 1.19910156 69.67925781 1.20507812 68.83789062 C1.3603264 64.57718795 1.55444201 62.56932409 4.25 59.125 C6.72632597 57.21147539 9.17910109 55.37759184 11.8125 53.6875 C12.60269531 53.17574219 13.39289063 52.66398437 14.20703125 52.13671875 C14.79871094 51.76160156 15.39039063 51.38648437 16 51 C15.09511907 48.6045722 15.09511907 48.6045722 11.7265625 47.88671875 C9.67216395 47.27481293 7.61454345 46.68464017 5.546875 46.11914062 C2.33152988 45.14640489 0.31540832 44.38438296 -1.83984375 41.7578125 C-3.16542321 38.60677177 -4.22634574 35.46868178 -5.1875 32.1875 C-5.53167969 31.02605469 -5.87585938 29.86460938 -6.23046875 28.66796875 C-6.48441406 27.78753906 -6.73835938 26.90710938 -7 26 C-7.33 26 -7.66 26 -8 26 Z " fill="#D3D3D3" transform="translate(124,10)"/>
<path d="M0 0 C4.00565387 2.99742807 7.48072158 6.45919694 11 10 C11.55945313 9.71125 12.11890625 9.4225 12.6953125 9.125 C21.0559297 5.25384605 29.42248441 4.25907935 38.31640625 7.03515625 C46.84442441 10.86689407 52.3821985 16.46506836 55.9375 25.125 C58.59728554 34.55815246 58.27268275 46.10240618 54 55 C47.11015389 66.87566068 35.66345667 71.30081049 23.43286133 76.01318359 C14.29033362 79.5721126 6.17606478 83.13486531 0 91 C-3.31679678 92.62311332 -5.07290434 93.21560364 -8.6875 92.375 C-12.66673273 90.00896973 -13.97931711 87.09655399 -15.6875 82.9375 C-19.91522914 73.24233168 -26.51176392 66.35076453 -34.37890625 59.4765625 C-40.92341388 53.29292936 -46.39604457 45.28869083 -47.43359375 36.203125 C-47.44563369 24.01870842 -45.50173642 14.28423455 -37 5 C-26.71711391 -5.20296729 -12.61608755 -7.18532139 0 0 Z M-27.25 18.4375 C-31.2957232 24.36159469 -31.8206909 29.9773791 -31 37 C-29.55195893 40.29737614 -29.55195893 40.29737614 -27 43 C-26.47921875 43.63550781 -25.9584375 44.27101562 -25.421875 44.92578125 C-22.71490362 48.1631727 -20.00774552 51.07985434 -16.6875 53.6875 C-11.17531262 58.18031026 -7.19223843 64.3147511 -3 70 C0.98807074 68.48959261 4.71367549 66.64579398 8.5 64.6875 C13.20716723 62.28083742 17.90338935 60.20024167 22.875 58.375 C32.6565687 54.79352244 32.6565687 54.79352244 39.5 47.3125 C41.79794592 41.86513714 42.05413056 36.33150354 40.26953125 30.69140625 C38.82541564 27.47898581 37.39249733 25.34888652 34.75 23 C29.74397995 21.17962907 25.69402511 21.36889261 20.8125 23.1875 C17.74306486 25.16558042 15.39811702 27.24921872 13 30 C13 30.66 13 31.32 13 32 C8.30457871 32.92067084 5.20170315 33.46799068 1 31 C-0.37109375 28.13671875 -0.37109375 28.13671875 -1.4375 24.6875 C-3.72771992 18.1284841 -5.74198322 15.12900839 -12 12 C-18.9978721 11.32712768 -22.55593081 13.35225838 -27.25 18.4375 Z " fill="#D3D3D3" transform="translate(443,130)"/>
<path d="M0 0 C9.41167611 8.87386604 14.36159162 21.44842004 15.1875 34.25 C15.2390625 34.92417969 15.290625 35.59835938 15.34375 36.29296875 C15.59101952 42.27895175 14.75953564 48.09578087 13.875 54 C13.75737305 54.81637939 13.63974609 55.63275879 13.51855469 56.47387695 C12.67619948 61.73644262 11.77390083 67.19871658 7.375 70.6875 C4.24064573 71.49347681 2.27585773 71.21511179 -0.8125 70.25 C-3.25 68.25 -3.25 68.25 -4.8125 65.25 C-4.96014379 62.16873835 -4.37609745 59.27212489 -3.8125 56.25 C-1.2473567 40.72613278 -0.7105608 28.15654948 -9.5625 14.5625 C-18.18406322 5.70144892 -30.08402161 3.17284096 -42.02099609 2.95703125 C-75.73967644 2.75307734 -107.71837642 13.72518833 -138.12890625 27.6640625 C-138.94673584 28.03789063 -139.76456543 28.41171875 -140.60717773 28.796875 C-142.10167058 29.48830302 -143.59016826 30.19293019 -145.07055664 30.9140625 C-149.50088625 32.99103304 -152.9341293 33.69074389 -157.8125 33.25 C-160.71436138 31.79906931 -161.56681539 30.91685823 -162.6875 27.875 C-162.84643779 24.5373065 -162.59985731 23.10977169 -160.8125 20.25 C-154.68870989 15.47293127 -147.27083913 12.58321194 -140.1875 9.5625 C-139.58590057 9.30532196 -138.98430115 9.04814392 -138.36447144 8.78317261 C-117.55633267 -0.06785491 -96.00637946 -7.31224545 -73.8125 -11.75 C-72.67554688 -11.99363281 -71.53859375 -12.23726562 -70.3671875 -12.48828125 C-46.48022125 -16.80202085 -19.39231706 -15.95122597 0 0 Z " fill="#D3D3D3" transform="translate(491.8125,51.75)"/>
<path d="M0 0 C6.98060407 1.30886326 10.60276551 7.71132549 14.5 13.125 C15.41531494 14.38485718 15.41531494 14.38485718 16.34912109 15.67016602 C18.24473966 18.29259319 20.12557226 20.92489127 22 23.5625 C22.56879883 24.36268555 23.13759766 25.16287109 23.72363281 25.98730469 C48.18114612 60.60785766 78.47322991 106.77328591 70.875 151.375 C68.60843405 163.5148861 63.39076153 173.73166184 53.375 181.125 C46.01460633 186.05383505 38.12283868 191.16299801 29 189.5625 C26.00902696 187.02017292 25.15797443 185.4050303 24.4375 181.5625 C25.22743924 177.34949071 26.58747011 176.15602271 30 173.5625 C31.58813805 172.89782473 33.19453277 172.27585172 34.8125 171.6875 C42.77858929 168.71207082 48.24340807 163.6023554 52.03125 155.98828125 C60.23062246 135.45678813 51.159808 111.62726425 43.06762695 92.54150391 C31.4625492 66.05243329 15.0762156 41.88691454 -2.65625 19.1484375 C-3.3884375 18.19195312 -4.120625 17.23546875 -4.875 16.25 C-5.49117188 15.47011719 -6.10734375 14.69023437 -6.7421875 13.88671875 C-8.35768864 10.9015536 -8.38056187 8.91053832 -8 5.5625 C-5.53959272 2.23371368 -4.10389613 0.76948052 0 0 Z " fill="#D3D3D3" transform="translate(435,281.4375)"/>
<path d="M0 0 C7.41381102 6.37805801 13.37957551 14.86168673 14.30078125 24.76464844 C15.09069744 36.91243106 13.57288421 46.34266775 5.75390625 56.0625 C-0.91867525 63.48714704 -8.69148714 68.4421541 -18.78125 69.1484375 C-30.92928503 69.53034276 -40.15923398 68.08578831 -49.8125 60.0625 C-58.281922 51.86875539 -61.92739966 42.68306029 -62.3125 30.9375 C-62.04550283 19.25319521 -57.40059463 9.73109867 -49.0703125 1.6171875 C-34.90164709 -9.62698469 -14.87542707 -10.68303166 0 0 Z M-42.875 18.875 C-45.90232741 24.14598496 -46.90441269 29.88658962 -45.875 35.875 C-43.79994398 42.22505569 -40.71657875 47.03557303 -35.11328125 50.75 C-29.83868186 53.40110755 -24.44156958 54.4710356 -18.625 53.25 C-11.44503987 50.61734795 -6.12022444 46.52191052 -2.75390625 39.5546875 C-0.83792096 33.71306125 -1.03681175 27.18001769 -3.125 21.4375 C-3.7025 20.591875 -4.28 19.74625 -4.875 18.875 C-5.390625 18.029375 -5.90625 17.18375 -6.4375 16.3125 C-11.05394533 11.69605467 -16.89650589 8.61533514 -23.5 8.375 C-31.86326717 8.94923841 -37.79425279 12.16787604 -42.875 18.875 Z " fill="#D3D3D3" transform="translate(277.875,174.125)"/>
<path d="M0 0 C2.5625 1.875 2.5625 1.875 4 5 C4.71215197 13.38262219 1.4165866 20.94760689 -3.91015625 27.265625 C-10.29580079 33.52378843 -18.24993183 37.05672647 -27.25 37.375 C-35.52172577 36.54782742 -43.33997763 34.47702125 -49.5 28.625 C-51.36837701 25.35534024 -51.69509032 23.70714836 -51 20 C-48.66937195 16.84679735 -47.16623315 15.27121701 -43.3125 14.375 C-40.01199398 14.99773699 -38.04291543 15.96725374 -35.125 17.5625 C-30.06051612 20.23922421 -27.51932117 20.56380767 -22 19 C-17.06864954 16.4878026 -15.04204133 14.10510333 -13 9 C-12.67 7.948125 -12.34 6.89625 -12 5.8125 C-9.85223532 -0.22808817 -6.25022666 -1.28016691 0 0 Z " fill="#D3D3D3" transform="translate(97,349)"/>
<path d="M0 0 C3.13378906 1.29760742 3.13378906 1.29760742 6.265625 3.10546875 C7.40257812 3.75966797 8.53953125 4.41386719 9.7109375 5.08789062 C10.29198242 5.43311768 10.87302734 5.77834473 11.47167969 6.1340332 C13.24842177 7.18656507 15.04026378 8.20869273 16.8359375 9.22851562 C26.6689114 14.96815016 26.6689114 14.96815016 29 20 C28.92657532 23.5978095 28.39744561 25.44063211 26.3125 28.375 C23.19115489 30.56837764 21.79720417 30.43159956 18 30 C14.93283067 28.73339265 12.11148152 27.11087399 9.25 25.4375 C8.0599939 24.7578418 8.0599939 24.7578418 6.84594727 24.06445312 C-9.06676757 14.86646487 -9.06676757 14.86646487 -11 11 C-11.35519903 7.16385043 -11.54724594 4.85370366 -9.4375 1.5625 C-6.0869542 -0.58528577 -3.94036109 -0.30743872 0 0 Z " fill="#D3D3D3" transform="translate(287,397)"/>
<path d="M0 0 C2.4375 1.625 2.4375 1.625 4 4 C4.60605429 7.63632575 4.47161336 9.28314769 2.4375 12.375 C-0.95870843 14.63913895 -3.00099302 14.64269755 -7 14 C-9.5 11.875 -9.5 11.875 -11 9 C-10.936318 5.81590023 -10.51040601 3.85067668 -8.875 1.125 C-5.83167192 -0.70099685 -3.45750445 -0.42460581 0 0 Z " fill="#D3D3D3" transform="translate(88,329)"/>
<path d="M0 0 C3.4375 0.9375 3.4375 0.9375 5.375 2.0625 C7.13047303 5.16039358 6.92473574 7.46594534 6.4375 10.9375 C4.3125 13.4375 4.3125 13.4375 1.4375 14.9375 C-1.74659977 14.873818 -3.71182332 14.44790601 -6.4375 12.8125 C-8.26349685 9.76917192 -7.98710581 7.39500445 -7.5625 3.9375 C-5.29401339 0.30792142 -4.30870043 -0.07559124 0 0 Z " fill="#D3D3D3" transform="translate(46.5625,344.0625)"/>
</svg>
