<svg version="1.1" id="Layer_1" xmlns="http://www.w3.org/2000/svg" xmlns:xlink="http://www.w3.org/1999/xlink" x="0px" y="0px"
	 width="100%" viewBox="0 0 1298 852" enable-background="new 0 0 1298 852" xml:space="preserve">
<path fill="#f8f8f8" opacity="1.000000" stroke="none" 
	d="
M909.000000,853.000000 
	C606.035095,853.000000 303.570221,853.000000 1.052658,853.000000 
	C1.052658,569.068054 1.052658,285.136139 1.052658,1.102095 
	C433.548370,1.102095 866.096741,1.102095 1298.822510,1.102095 
	C1298.822510,284.999908 1298.822510,568.999939 1298.822510,853.000000 
	C1169.135864,853.000000 1039.317871,853.000000 909.000000,853.000000 
M307.030975,685.247253 
	C307.120422,685.235718 307.209869,685.224243 307.299316,685.212769 
	C307.189880,685.144287 307.080444,685.075806 306.890137,684.336487 
	C305.096069,682.881042 303.433746,681.214172 301.488068,680.002136 
	C274.523895,663.205078 254.281479,640.322205 239.476456,612.340637 
	C214.787033,565.677368 203.278137,516.404846 212.166840,463.846649 
	C224.454422,391.191345 262.398682,336.342499 328.241638,301.737762 
	C330.151611,300.733948 331.816956,299.264740 334.277191,297.533386 
	C332.838409,297.343506 332.482635,297.186951 332.217072,297.282135 
	C331.436798,297.561920 330.681549,297.919617 329.935394,298.285370 
	C288.063873,318.809662 255.909012,349.744995 234.224213,390.796783 
	C202.693512,450.488007 198.426437,512.662903 221.098984,576.321167 
	C234.906708,615.089600 254.936737,649.809631 289.329407,674.318420 
	C294.920319,678.302490 301.126160,681.423584 307.030975,685.247253 
M1020.164185,339.666138 
	C1025.477539,349.105774 1030.790771,358.545441 1036.221313,368.691376 
	C1066.302490,433.277161 1068.964600,499.523804 1048.405029,567.237183 
	C1047.251465,571.036682 1045.700317,572.334656 1041.564331,572.318298 
	C993.252197,572.126770 944.938965,572.229248 896.626587,572.067993 
	C892.823181,572.055298 891.193359,573.169128 889.980408,576.753784 
	C874.682739,621.965332 859.225220,667.122803 843.792419,712.288574 
	C842.894409,714.916687 841.857605,717.497314 840.947815,719.932922 
	C829.667236,717.249756 818.855042,714.677979 807.386047,711.712891 
	C792.169189,707.531677 776.980469,703.242554 761.713074,699.254944 
	C758.418640,698.394470 756.801819,696.864380 755.660767,693.664612 
	C746.770813,668.735840 738.531738,643.524902 728.400208,619.102783 
	C717.573853,593.005615 704.900513,567.674622 693.655884,541.728455 
	C702.817505,535.965332 712.333557,530.683533 721.025513,524.282532 
	C727.642578,519.409485 734.208740,513.854858 739.065125,507.316650 
	C754.449646,486.604187 757.858521,445.275726 736.016541,417.818085 
	C724.520325,403.366150 710.878479,391.198608 697.063049,379.160767 
	C688.818176,371.976715 681.162720,364.278748 677.027222,353.980469 
	C672.443054,342.564941 667.857239,331.093842 664.286865,319.338745 
	C656.182434,292.655518 639.558594,273.249756 615.315063,260.144257 
	C582.630981,242.475983 539.690979,245.092773 516.541138,274.799011 
	C515.492310,276.144745 513.720947,277.103851 512.095093,277.790802 
	C506.888794,279.990631 501.410034,281.608765 496.361542,284.108124 
	C469.020721,297.643463 452.157806,320.575745 456.691681,353.770630 
	C459.214417,372.240906 461.473877,390.753937 463.433716,409.291962 
	C464.792389,422.143433 462.340302,434.190887 453.525970,444.291046 
	C451.007019,447.177490 448.398285,449.986389 445.907928,452.896851 
	C435.820587,464.685516 433.870270,481.075073 440.387878,494.769226 
	C427.888885,501.128479 417.558228,509.803284 409.967529,522.344910 
	C402.661743,522.714539 395.162964,522.155273 388.085815,523.625488 
	C365.566467,528.303467 350.169769,548.182861 350.105896,571.804626 
	C350.024780,601.804199 349.688171,631.810852 350.196777,661.802063 
	C350.705322,691.790894 347.731812,721.890442 352.499298,752.065613 
	C282.536469,752.065613 212.404205,752.065613 142.018890,752.065613 
	C141.272888,757.008240 144.792847,755.749878 146.944855,755.750122 
	C504.775909,755.792236 862.606934,755.790649 1220.437988,755.786682 
	C1221.769531,755.786682 1223.138062,755.896362 1224.414673,755.615845 
	C1224.940796,755.500244 1225.593750,754.488586 1225.596191,753.882202 
	C1225.598511,753.286560 1224.936401,752.284424 1224.411865,752.170654 
	C1223.133789,751.893494 1221.766602,752.000366 1220.435303,752.000061 
	C1196.935425,751.994446 1173.435669,752.000061 1149.935791,751.985535 
	C1148.557129,751.984680 1147.178467,751.833252 1144.993408,751.704285 
	C1156.162598,742.961487 1154.168335,730.712769 1155.403809,719.732849 
	C1169.592896,717.757263 1177.032227,713.041443 1177.879395,704.614746 
	C1179.372437,689.763611 1168.535889,686.199829 1157.408203,683.815002 
	C1157.652588,678.698730 1157.872314,674.097961 1158.097412,669.385742 
	C1131.782715,669.385742 1105.921875,669.385742 1079.756470,669.385742 
	C1080.844971,687.395264 1082.059570,704.990662 1082.916138,722.603455 
	C1083.431274,733.194275 1083.049927,743.916016 1092.755249,751.734741 
	C1061.680298,751.734741 1031.420166,751.734741 1000.574646,751.734741 
	C1021.079102,691.735229 1041.442871,632.147339 1062.037842,571.883057 
	C1057.467285,571.883057 1053.589966,571.883057 1049.705688,571.883057 
	C1049.705688,571.037781 1049.649292,570.700867 1049.716675,570.390808 
	C1049.893311,569.578003 1050.092896,568.767395 1050.337524,567.972595 
	C1063.473633,525.283447 1067.648315,481.941681 1060.044067,437.693237 
	C1055.875977,413.439423 1049.200195,390.012024 1037.847534,367.318512 
	C1032.283325,357.460907 1026.719116,347.603302 1020.962524,337.089050 
	C1008.147156,316.813782 992.513611,298.962982 974.276245,283.432709 
	C971.401367,280.984589 970.510010,278.514526 970.520935,274.910248 
	C970.632507,238.109940 970.597656,201.309158 970.571777,164.508514 
	C970.569946,161.854446 970.409058,159.192383 970.168823,156.547974 
	C969.101562,144.801712 960.800476,137.087646 949.083252,137.003708 
	C939.925171,136.938110 930.766296,136.988007 921.607727,136.991180 
	C912.579651,136.994293 910.012146,138.854431 906.219971,147.385254 
	C902.724792,147.370499 899.229065,147.306824 895.734619,147.349884 
	C883.937195,147.495239 872.140320,147.678467 859.847351,147.420258 
	C850.840759,138.539169 841.832642,129.659668 832.828247,120.776375 
	C827.051575,115.077347 820.817261,114.475067 816.154602,119.173515 
	C811.665283,123.697281 812.277039,129.873245 817.745972,135.467010 
	C821.583252,139.391846 825.398560,143.338196 828.259460,147.301315 
	C807.216614,147.404770 786.173828,147.508224 765.635742,146.955246 
	C769.703430,142.794250 774.132751,138.916107 777.695923,134.360458 
	C779.663635,131.844696 781.586914,127.881500 780.979553,125.134758 
	C780.277283,121.958504 777.295227,118.483292 774.352173,116.802826 
	C770.410522,114.552124 766.345154,116.585411 763.145508,119.792236 
	C750.096191,132.870926 737.022888,145.925674 723.959473,158.990341 
	C716.995056,165.955429 717.031799,171.017197 724.022827,178.082474 
	C732.796753,186.949768 741.538147,195.849319 750.180908,205.698837 
	C750.178650,221.178085 750.176392,236.657333 749.494995,252.437546 
	C744.605957,253.130997 741.403870,255.599243 740.015320,260.568665 
	C739.628235,261.953766 738.005737,263.474152 736.599976,264.004425 
	C732.311768,265.622101 727.852844,266.787384 723.460388,268.128693 
	C723.547729,268.430298 723.635071,268.731903 723.722412,269.033508 
	C728.982788,268.031433 734.243164,267.029388 739.828064,265.965546 
	C739.828064,268.224335 739.828064,270.044464 739.828064,271.864594 
	C739.828064,296.179749 739.806458,320.494995 739.861084,344.810028 
	C739.866638,347.271515 739.994141,349.824829 740.641541,352.176880 
	C743.502441,362.570953 751.343140,367.842712 763.770874,367.846436 
	C824.392212,367.864594 885.013550,367.855530 945.634888,367.854095 
	C962.201111,367.853699 970.568237,359.562714 970.585083,343.091797 
	C970.603210,325.271790 970.589172,307.451752 970.589172,289.631744 
	C970.589172,287.879364 970.589172,286.126953 970.589172,283.086243 
	C975.114197,287.049927 978.776428,290.077087 982.236328,293.320099 
	C996.764954,306.937958 1008.880432,322.566956 1020.164185,339.666138 
z"/>
<path fill="#ECA440" opacity="1.000000" stroke="none" 
	d="
M693.033447,542.009155 
	C704.900513,567.674622 717.573853,593.005615 728.400208,619.102783 
	C738.531738,643.524902 746.770813,668.735840 755.660767,693.664612 
	C756.801819,696.864380 758.418640,698.394470 761.713074,699.254944 
	C776.980469,703.242554 792.169189,707.531677 807.683838,712.325317 
	C806.923767,722.115295 805.865906,731.292847 804.780762,740.707581 
	C799.868652,740.707581 795.554321,740.707581 791.118164,740.446899 
	C790.450684,739.659851 789.905029,739.133545 789.227661,738.339233 
	C788.440491,737.669006 787.784973,737.266785 786.930176,736.595337 
	C784.147217,734.564087 781.563660,732.802063 778.755615,730.788086 
	C764.130920,724.018677 749.850708,717.213196 735.267578,711.134460 
	C729.905640,708.899414 723.827820,708.381836 717.671997,707.047729 
	C713.803528,706.297485 710.339661,705.580383 706.889038,704.460815 
	C705.907959,699.035217 704.913635,694.012085 703.908569,688.586060 
	C700.114319,672.597107 696.891357,656.847046 692.395813,641.468994 
	C687.523743,624.803101 681.465759,608.483887 675.914978,591.639343 
	C672.068970,581.684265 668.232971,572.103333 664.396973,562.522461 
	C663.924072,562.716797 663.451233,562.911194 662.978333,563.105530 
	C666.711060,572.744202 670.443787,582.382812 674.205933,592.392212 
	C678.892151,607.333252 683.891785,621.804932 688.116821,636.499268 
	C693.118469,653.894775 697.452087,671.482361 702.066711,689.392090 
	C703.111633,694.787964 704.165100,699.778320 704.739197,704.819092 
	C694.853333,705.541870 685.446838,706.214294 675.999878,706.542908 
	C671.181824,699.662415 664.531189,699.528748 657.608215,701.149170 
	C650.481018,702.817383 646.619690,708.091797 645.151978,714.781006 
	C642.180359,728.323608 644.536133,741.028503 652.739258,752.603516 
	C652.044922,752.765869 651.593506,752.961243 651.140564,752.964600 
	C604.150452,753.314331 557.149902,754.340088 510.175171,753.636597 
	C492.081573,753.365662 476.089264,744.906006 466.208740,728.896362 
	C460.219116,719.191284 455.975861,708.352844 451.456573,697.805725 
	C434.057800,657.200623 418.545074,615.939575 410.554077,572.284729 
	C407.519592,555.707336 405.573273,538.983826 410.891174,522.390442 
	C417.558228,509.803284 427.888885,501.128479 441.042999,494.503967 
	C443.262054,493.691772 444.853271,493.211792 446.385651,492.587372 
	C459.111115,487.402039 470.968048,488.833313 481.998260,497.103271 
	C486.757019,500.671173 491.408447,504.438965 496.454834,507.555359 
	C508.699036,515.116760 520.601318,512.014893 527.967651,499.951233 
	C537.608032,508.464844 547.473633,515.843689 559.393738,520.281555 
	C575.205933,526.168579 593.575012,517.121643 597.487610,500.741547 
	C598.506287,496.476715 597.881714,491.819366 598.415955,487.259918 
	C604.521423,486.145355 610.193481,484.453430 615.929565,484.197815 
	C638.076111,483.210999 655.481384,493.339203 669.339417,509.482880 
	C678.048645,519.628601 685.189148,531.120972 693.033447,542.009155 
M602.797607,692.059326 
	C614.117981,693.461487 625.438293,694.863586 636.758606,696.265686 
	C636.815063,695.789307 636.871521,695.312927 636.927979,694.836609 
	C625.284363,693.265137 613.640686,691.693665 601.202148,689.947571 
	C599.234619,689.632263 597.268372,689.309021 595.299438,689.002869 
	C580.533752,686.706970 565.720093,684.678711 551.016724,682.036316 
	C539.481873,679.963501 532.716187,673.160950 529.721130,661.274902 
	C524.449829,640.355103 517.921509,619.752014 511.938477,598.236328 
	C508.511169,586.617554 505.083862,574.998779 501.656555,563.380005 
	C501.176392,563.527161 500.696198,563.674316 500.216003,563.821411 
	C503.539001,575.556458 506.862000,587.291504 510.249542,599.788269 
	C516.251038,621.529419 522.353210,643.243530 528.207031,665.024353 
	C530.714233,674.353271 536.155518,681.172058 545.564148,682.926941 
	C564.280518,686.417908 583.175964,688.948669 602.797607,692.059326 
M593.339111,540.897461 
	C597.520935,537.729248 601.922668,534.752014 603.394226,529.181091 
	C601.211121,530.456970 599.879944,532.600098 598.036011,534.122070 
	C583.475830,546.140076 567.519348,546.416809 550.760986,539.491821 
	C549.172729,538.835510 547.486145,538.417053 545.845215,537.888123 
	C560.838135,547.944336 576.490479,549.867126 593.339111,540.897461 
z"/>
<path fill="#535680" opacity="1.000000" stroke="none" 
	d="
M410.429352,522.367676 
	C405.573273,538.983826 407.519592,555.707336 410.554077,572.284729 
	C418.545074,615.939575 434.057800,657.200623 451.456573,697.805725 
	C455.975861,708.352844 460.219116,719.191284 466.208740,728.896362 
	C476.089264,744.906006 492.081573,753.365662 510.175171,753.636597 
	C557.149902,754.340088 604.150452,753.314331 651.140564,752.964600 
	C651.593506,752.961243 652.044922,752.765869 652.739258,752.603516 
	C644.536133,741.028503 642.180359,728.323608 645.151978,714.781006 
	C646.619690,708.091797 650.481018,702.817383 657.608215,701.149170 
	C664.531189,699.528748 671.181824,699.662415 675.587708,706.567627 
	C662.499329,708.786926 656.729431,715.187988 659.259216,727.663940 
	C660.892944,735.720825 665.584717,743.171875 669.083801,750.813110 
	C669.417358,751.541443 671.011353,752.036011 672.031433,752.055786 
	C690.811890,752.420288 709.593750,752.825928 728.376221,752.881653 
	C732.186279,752.892944 736.004028,751.519165 738.090393,748.000732 
	C729.468567,745.617981 721.280212,743.354980 713.514709,741.062500 
	C722.311646,742.297546 730.685730,743.562134 739.059753,744.826660 
	C739.397766,744.279297 739.735718,743.731873 740.073730,743.184448 
	C738.839294,742.188293 737.740845,740.647583 736.344666,740.298706 
	C732.266357,739.279663 728.069153,738.736206 724.383545,738.001404 
	C728.493652,738.256958 732.141479,738.768921 735.783447,738.730286 
	C746.233398,738.619202 756.691589,738.471863 767.121033,737.885742 
	C769.273376,737.764771 771.315552,735.682556 773.408508,734.504272 
	C773.242432,733.922668 773.076355,733.341003 772.910278,732.759399 
	C752.861023,729.307739 732.811768,725.856018 712.762512,722.404358 
	C712.835266,721.903870 712.907959,721.403442 712.980652,720.903015 
	C732.465454,723.820312 751.950317,726.737610 771.435120,729.654968 
	C762.556519,724.764648 753.407776,720.518799 744.073059,716.731262 
	C735.511841,713.257446 726.750000,710.278015 718.076538,707.080811 
	C723.827820,708.381836 729.905640,708.899414 735.267578,711.134460 
	C749.850708,717.213196 764.130920,724.018677 778.645081,731.019836 
	C778.482056,731.700378 778.205078,731.897217 777.593323,732.119202 
	C774.804688,734.745300 772.350891,737.346252 769.538635,739.947998 
	C768.118347,740.062927 767.056519,740.177063 765.994751,740.291260 
	C766.013245,740.513672 766.031799,740.736145 766.050293,740.958557 
	C767.449280,740.874695 768.848206,740.790771 770.698914,740.714111 
	C777.013733,740.709656 782.876709,740.697937 789.151733,740.784790 
	C790.122559,740.824707 790.681274,740.766113 791.240051,740.707581 
	C795.554321,740.707581 799.868652,740.707581 804.780762,740.707581 
	C805.865906,731.292847 806.923767,722.115295 808.012207,712.521973 
	C818.855042,714.677979 829.667236,717.249756 840.947815,719.932922 
	C841.857605,717.497314 842.894409,714.916687 843.792419,712.288574 
	C859.225220,667.122803 874.682739,621.965332 889.980408,576.753784 
	C891.193359,573.169128 892.823181,572.055298 896.626587,572.067993 
	C944.938965,572.229248 993.252197,572.126770 1041.564331,572.318298 
	C1045.700317,572.334656 1047.251465,571.036682 1048.405029,567.237183 
	C1068.964600,499.523804 1066.302490,433.277161 1036.463135,368.349457 
	C1037.105591,368.017395 1037.506104,368.027252 1037.906738,368.037109 
	C1049.200195,390.012024 1055.875977,413.439423 1060.044067,437.693237 
	C1067.648315,481.941681 1063.473633,525.283447 1050.337524,567.972595 
	C1050.092896,568.767395 1049.893311,569.578003 1049.716675,570.390808 
	C1049.649292,570.700867 1049.705688,571.037781 1049.705688,571.883057 
	C1053.589966,571.883057 1057.467285,571.883057 1062.037842,571.883057 
	C1041.442871,632.147339 1021.079102,691.735229 1000.574646,751.734741 
	C1031.420166,751.734741 1061.680298,751.734741 1092.755249,751.734741 
	C1083.049927,743.916016 1083.431274,733.194275 1082.916138,722.603455 
	C1082.059570,704.990662 1080.844971,687.395264 1079.756470,669.385742 
	C1105.921875,669.385742 1131.782715,669.385742 1158.097412,669.385742 
	C1157.872314,674.097961 1157.652588,678.698730 1157.408203,683.815002 
	C1168.535889,686.199829 1179.372437,689.763611 1177.879395,704.614746 
	C1177.032227,713.041443 1169.592896,717.757263 1155.403809,719.732849 
	C1154.168335,730.712769 1156.162598,742.961487 1144.993408,751.704285 
	C1147.178467,751.833252 1148.557129,751.984680 1149.935791,751.985535 
	C1173.435669,752.000061 1196.935425,751.994446 1220.435303,752.000061 
	C1221.766602,752.000366 1223.133789,751.893494 1224.411865,752.170654 
	C1224.936401,752.284424 1225.598511,753.286560 1225.596191,753.882202 
	C1225.593750,754.488586 1224.940796,755.500244 1224.414673,755.615845 
	C1223.138062,755.896362 1221.769531,755.786682 1220.437988,755.786682 
	C862.606934,755.790649 504.775909,755.792236 146.944855,755.750122 
	C144.792847,755.749878 141.272888,757.008240 142.018890,752.065613 
	C212.404205,752.065613 282.536469,752.065613 352.499298,752.065613 
	C347.731812,721.890442 350.705322,691.790894 350.196777,661.802063 
	C349.688171,631.810852 350.024780,601.804199 350.105896,571.804626 
	C350.169769,548.182861 365.566467,528.303467 388.085815,523.625488 
	C395.162964,522.155273 402.661743,522.714539 410.429352,522.367676 
M962.168396,665.626648 
	C963.857788,653.238098 956.076050,644.268677 945.434082,646.338440 
	C937.426208,647.895813 930.588989,654.567383 929.207092,662.639771 
	C928.080078,669.223206 929.209167,675.340271 934.969543,679.576294 
	C940.186951,683.412964 947.855957,683.658875 953.038330,679.037842 
	C956.797180,675.686096 959.081177,670.680298 962.168396,665.626648 
M1162.511597,711.440552 
	C1163.715820,710.896484 1164.999634,710.480225 1166.111206,709.787354 
	C1172.635498,705.720520 1172.773926,698.043884 1166.171509,694.193787 
	C1163.635742,692.715149 1160.503906,692.258484 1156.876587,691.088806 
	C1156.453613,698.693542 1156.092773,705.179321 1155.701050,712.222290 
	C1158.190918,711.972473 1159.946411,711.796326 1162.511597,711.440552 
z"/>
<path fill="#52557F" opacity="1.000000" stroke="none" 
	d="
M693.344666,541.868774 
	C685.189148,531.120972 678.048645,519.628601 669.339417,509.482880 
	C655.481384,493.339203 638.076111,483.210999 615.929565,484.197815 
	C610.193481,484.453430 604.521423,486.145355 598.193481,486.892029 
	C596.996765,482.400330 596.426575,478.194122 595.863342,474.039490 
	C570.599915,473.627197 553.753113,459.840759 539.819092,441.180725 
	C539.917297,441.080322 540.111877,440.877747 540.453735,440.942322 
	C552.136597,448.644012 564.349365,454.308319 578.085388,455.495087 
	C597.023010,457.131287 609.208374,453.461792 618.434631,436.495453 
	C621.656921,430.569794 623.973328,424.029816 625.867798,417.526947 
	C631.133606,399.452484 631.214111,380.749115 631.723938,362.132568 
	C631.767151,360.553955 631.476746,358.551666 630.531006,357.428833 
	C625.009338,350.873352 620.228821,343.100067 613.381409,338.365051 
	C592.064087,323.623901 567.946899,323.267792 543.419189,327.731049 
	C542.328430,327.929504 540.954346,329.729675 540.725098,330.970856 
	C539.579102,337.175323 539.108765,343.515900 537.765503,349.669952 
	C535.767700,358.822754 532.381287,367.330597 524.034790,372.837646 
	C515.669128,363.184753 503.804413,363.273315 497.970093,373.279541 
	C495.383209,377.716187 493.634979,383.122955 493.196198,388.234436 
	C492.168945,400.200775 499.688293,410.295166 511.844574,415.425140 
	C513.771057,416.238098 516.083496,417.990662 516.675903,419.810608 
	C520.625122,431.943695 524.887085,444.051666 527.629456,456.480713 
	C530.778442,470.752716 532.659241,485.349213 527.644165,499.774200 
	C520.601318,512.014893 508.699036,515.116760 496.454834,507.555359 
	C491.408447,504.438965 486.757019,500.671173 481.998260,497.103271 
	C470.968048,488.833313 459.111115,487.402039 446.385651,492.587372 
	C444.853271,493.211792 443.262054,493.691772 441.311951,494.334717 
	C433.870270,481.075073 435.820587,464.685516 445.907928,452.896851 
	C448.398285,449.986389 451.007019,447.177490 453.525970,444.291046 
	C462.340302,434.190887 464.792389,422.143433 463.433716,409.291962 
	C461.473877,390.753937 459.214417,372.240906 456.691681,353.770630 
	C452.157806,320.575745 469.020721,297.643463 496.361542,284.108124 
	C501.410034,281.608765 506.888794,279.990631 512.095093,277.790802 
	C513.720947,277.103851 515.492310,276.144745 516.541138,274.799011 
	C539.690979,245.092773 582.630981,242.475983 615.315063,260.144257 
	C639.558594,273.249756 656.182434,292.655518 664.286865,319.338745 
	C667.857239,331.093842 672.443054,342.564941 677.027222,353.980469 
	C681.162720,364.278748 688.818176,371.976715 697.063049,379.160767 
	C710.878479,391.198608 724.520325,403.366150 736.016541,417.818085 
	C757.858521,445.275726 754.449646,486.604187 739.065125,507.316650 
	C734.208740,513.854858 727.642578,519.409485 721.025513,524.282532 
	C712.333557,530.683533 702.817505,535.965332 693.344666,541.868774 
z"/>
<path fill="#ECA440" opacity="1.000000" stroke="none" 
	d="
M860.343201,147.847214 
	C872.140320,147.678467 883.937195,147.495239 895.734619,147.349884 
	C899.229065,147.306824 902.724792,147.370499 906.882202,147.683823 
	C909.215332,155.087692 912.463501,157.798294 919.682495,157.992889 
	C922.678711,158.073654 925.678894,158.008987 928.677246,158.009201 
	C935.443665,158.009659 942.210083,158.009354 948.890015,158.009354 
	C948.890015,221.322739 948.890015,283.861267 948.890015,346.542053 
	C886.129517,346.542053 823.755432,346.542053 760.888550,346.542053 
	C760.888550,344.427338 760.888550,342.633209 760.888550,340.839050 
	C760.888489,316.019135 760.906006,291.199188 760.879028,266.379303 
	C760.869324,257.453033 758.534119,254.413834 750.174133,252.136581 
	C750.176392,236.657333 750.178650,221.178085 750.519775,205.398804 
	C754.505554,208.719452 758.151428,212.341263 761.799927,215.960449 
	C767.727234,221.840179 773.537292,222.476593 778.364929,217.777435 
	C783.094788,213.173431 782.560669,207.118118 776.844604,201.186371 
	C774.429138,198.679794 771.911255,196.272308 769.470764,193.789444 
	C762.971558,187.177078 756.489136,180.548233 750.043884,173.469604 
	C750.044739,169.569946 750.001709,166.126602 750.120544,162.406464 
	C755.231934,157.290314 760.181458,152.450989 765.130981,147.611664 
	C786.173828,147.508224 807.216614,147.404770 828.989990,147.446472 
	C836.493469,154.561142 843.266418,161.530655 850.210083,168.675873 
	C839.464172,179.406036 828.706055,189.806488 818.424866,200.658752 
	C815.905273,203.318298 813.553894,207.506302 813.679016,210.897354 
	C813.792542,213.972778 816.741638,218.160538 819.591492,219.638397 
	C824.092163,221.972336 828.943848,220.241074 832.716064,216.456436 
	C845.627258,203.502899 858.657654,190.666870 871.467896,177.614578 
	C877.623352,171.342758 877.458313,165.695816 871.438110,159.302155 
	C867.794434,155.432419 864.045044,151.662170 860.343201,147.847214 
z"/>
<path fill="#555780" opacity="1.000000" stroke="none" 
	d="
M749.834595,252.287064 
	C758.534119,254.413834 760.869324,257.453033 760.879028,266.379303 
	C760.906006,291.199188 760.888489,316.019135 760.888550,340.839050 
	C760.888550,342.633209 760.888550,344.427338 760.888550,346.542053 
	C823.755432,346.542053 886.129517,346.542053 948.890015,346.542053 
	C948.890015,283.861267 948.890015,221.322739 948.890015,158.009354 
	C942.210083,158.009354 935.443665,158.009659 928.677246,158.009201 
	C925.678894,158.008987 922.678711,158.073654 919.682495,157.992889 
	C912.463501,157.798294 909.215332,155.087692 907.360352,147.707062 
	C910.012146,138.854431 912.579651,136.994293 921.607727,136.991180 
	C930.766296,136.988007 939.925171,136.938110 949.083252,137.003708 
	C960.800476,137.087646 969.101562,144.801712 970.168823,156.547974 
	C970.409058,159.192383 970.569946,161.854446 970.571777,164.508514 
	C970.597656,201.309158 970.632507,238.109940 970.520935,274.910248 
	C970.510010,278.514526 971.401367,280.984589 974.276245,283.432709 
	C992.513611,298.962982 1008.147156,316.813782 1020.928528,337.669830 
	C1020.611450,338.492828 1020.328369,338.735077 1020.045288,338.977295 
	C1008.880432,322.566956 996.764954,306.937958 982.236328,293.320099 
	C978.776428,290.077087 975.114197,287.049927 970.589172,283.086243 
	C970.589172,286.126953 970.589172,287.879364 970.589172,289.631744 
	C970.589172,307.451752 970.603210,325.271790 970.585083,343.091797 
	C970.568237,359.562714 962.201111,367.853699 945.634888,367.854095 
	C885.013550,367.855530 824.392212,367.864594 763.770874,367.846436 
	C751.343140,367.842712 743.502441,362.570953 740.641541,352.176880 
	C739.994141,349.824829 739.866638,347.271515 739.861084,344.810028 
	C739.806458,320.494995 739.828064,296.179749 739.828064,271.864594 
	C739.828064,270.044464 739.828064,268.224335 739.828064,265.965546 
	C734.243164,267.029388 728.982788,268.031433 723.722412,269.033508 
	C723.635071,268.731903 723.547729,268.430298 723.460388,268.128693 
	C727.852844,266.787384 732.311768,265.622101 736.599976,264.004425 
	C738.005737,263.474152 739.628235,261.953766 740.015320,260.568665 
	C741.403870,255.599243 744.605957,253.130997 749.834595,252.287064 
z"/>
<path fill="#555881" opacity="1.000000" stroke="none" 
	d="
M860.095276,147.633728 
	C864.045044,151.662170 867.794434,155.432419 871.438110,159.302155 
	C877.458313,165.695816 877.623352,171.342758 871.467896,177.614578 
	C858.657654,190.666870 845.627258,203.502899 832.716064,216.456436 
	C828.943848,220.241074 824.092163,221.972336 819.591492,219.638397 
	C816.741638,218.160538 813.792542,213.972778 813.679016,210.897354 
	C813.553894,207.506302 815.905273,203.318298 818.424866,200.658752 
	C828.706055,189.806488 839.464172,179.406036 850.210083,168.675873 
	C843.266418,161.530655 836.493469,154.561142 829.472168,147.433289 
	C825.398560,143.338196 821.583252,139.391846 817.745972,135.467010 
	C812.277039,129.873245 811.665283,123.697281 816.154602,119.173515 
	C820.817261,114.475067 827.051575,115.077347 832.828247,120.776375 
	C841.832642,129.659668 850.840759,138.539169 860.095276,147.633728 
z"/>
<path fill="#555881" opacity="1.000000" stroke="none" 
	d="
M750.000000,173.925934 
	C756.489136,180.548233 762.971558,187.177078 769.470764,193.789444 
	C771.911255,196.272308 774.429138,198.679794 776.844604,201.186371 
	C782.560669,207.118118 783.094788,213.173431 778.364929,217.777435 
	C773.537292,222.476593 767.727234,221.840179 761.799927,215.960449 
	C758.151428,212.341263 754.505554,208.719452 750.576050,204.916870 
	C741.538147,195.849319 732.796753,186.949768 724.022827,178.082474 
	C717.031799,171.017197 716.995056,165.955429 723.959473,158.990341 
	C737.022888,145.925674 750.096191,132.870926 763.145508,119.792236 
	C766.345154,116.585411 770.410522,114.552124 774.352173,116.802826 
	C777.295227,118.483292 780.277283,121.958504 780.979553,125.134758 
	C781.586914,127.881500 779.663635,131.844696 777.695923,134.360458 
	C774.132751,138.916107 769.703430,142.794250 765.383362,147.283447 
	C760.181458,152.450989 755.231934,157.290314 749.803467,162.569794 
	C747.348999,164.479965 745.373596,165.949982 743.114624,167.631027 
	C746.165771,170.420517 748.082886,172.173218 750.000000,173.925934 
z"/>
<path fill="#696B90" opacity="1.000000" stroke="none" 
	d="
M307.047791,684.943604 
	C301.126160,681.423584 294.920319,678.302490 289.329407,674.318420 
	C254.936737,649.809631 234.906708,615.089600 221.098984,576.321167 
	C198.426437,512.662903 202.693512,450.488007 234.224213,390.796783 
	C255.909012,349.744995 288.063873,318.809662 329.935394,298.285370 
	C330.681549,297.919617 331.436798,297.561920 332.217072,297.282135 
	C332.482635,297.186951 332.838409,297.343506 334.277191,297.533386 
	C331.816956,299.264740 330.151611,300.733948 328.241638,301.737762 
	C262.398682,336.342499 224.454422,391.191345 212.166840,463.846649 
	C203.278137,516.404846 214.787033,565.677368 239.476456,612.340637 
	C254.281479,640.322205 274.523895,663.205078 301.488068,680.002136 
	C303.433746,681.214172 305.096069,682.881042 306.951538,684.658081 
	C307.012939,684.979736 307.047791,684.943604 307.047791,684.943604 
z"/>
<path fill="#696B90" opacity="1.000000" stroke="none" 
	d="
M1020.104736,339.321716 
	C1020.328369,338.735077 1020.611450,338.492828 1021.024780,337.998169 
	C1026.719116,347.603302 1032.283325,357.460907 1037.877197,367.677795 
	C1037.506104,368.027252 1037.105591,368.017395 1036.404541,367.996307 
	C1030.790771,358.545441 1025.477539,349.105774 1020.104736,339.321716 
z"/>
<path fill="#696B90" opacity="1.000000" stroke="none" 
	d="
M306.991943,684.993530 
	C307.080444,685.075806 307.189880,685.144287 307.299316,685.212769 
	C307.209869,685.224243 307.120422,685.235718 307.039368,685.095459 
	C307.047791,684.943604 307.012939,684.979736 306.991943,684.993530 
z"/>
<path fill="#EBB382" opacity="1.000000" stroke="none" 
	d="
M539.720947,441.281158 
	C553.753113,459.840759 570.599915,473.627197 595.863342,474.039490 
	C596.426575,478.194122 596.996765,482.400330 597.789490,486.974426 
	C597.881714,491.819366 598.506287,496.476715 597.487610,500.741547 
	C593.575012,517.121643 575.205933,526.168579 559.393738,520.281555 
	C547.473633,515.843689 537.608032,508.464844 527.967651,499.951233 
	C532.659241,485.349213 530.778442,470.752716 527.629456,456.480713 
	C524.887085,444.051666 520.625122,431.943695 516.675903,419.810608 
	C516.083496,417.990662 513.771057,416.238098 511.844574,415.425140 
	C499.688293,410.295166 492.168945,400.200775 493.196198,388.234436 
	C493.634979,383.122955 495.383209,377.716187 497.970093,373.279541 
	C503.804413,363.273315 515.669128,363.184753 524.034790,372.837646 
	C532.381287,367.330597 535.767700,358.822754 537.765503,349.669952 
	C539.108765,343.515900 539.579102,337.175323 540.725098,330.970856 
	C540.954346,329.729675 542.328430,327.929504 543.419189,327.731049 
	C567.946899,323.267792 592.064087,323.623901 613.381409,338.365051 
	C620.228821,343.100067 625.009338,350.873352 630.531006,357.428833 
	C631.476746,358.551666 631.767151,360.553955 631.723938,362.132568 
	C631.214111,380.749115 631.133606,399.452484 625.867798,417.526947 
	C623.973328,424.029816 621.656921,430.569794 618.434631,436.495453 
	C609.208374,453.461792 597.023010,457.131287 578.085388,455.495087 
	C564.349365,454.308319 552.136597,448.644012 540.346313,440.712280 
	C539.591980,440.290192 539.287048,440.162659 538.908936,439.878052 
	C538.731934,439.677948 538.628052,439.634857 538.524109,439.591766 
	C538.698669,439.714081 538.873169,439.836365 539.004272,440.233398 
	C539.214233,440.765808 539.467590,441.023499 539.720947,441.281158 
M592.808838,402.389832 
	C591.517456,403.252594 590.226074,404.115356 588.934692,404.978119 
	C589.239197,405.518066 589.543701,406.058044 589.848206,406.597992 
	C593.816589,404.516998 597.971375,402.717560 601.688782,400.257324 
	C604.222778,398.580322 604.175293,395.885132 602.449280,393.218170 
	C597.794128,386.025452 593.257324,378.756165 588.639893,371.538818 
	C588.568420,371.427002 588.065918,371.590912 587.546875,371.651611 
	C587.522156,382.009583 595.358765,388.634460 600.095337,396.979401 
	C597.633240,398.860474 595.537170,400.461914 592.808838,402.389832 
M603.917969,418.775330 
	C603.359253,418.767151 602.615234,418.518860 602.268982,418.786011 
	C594.309631,424.928406 586.620789,423.907623 578.976257,418.139343 
	C576.703613,416.424500 574.205811,415.008026 571.188721,413.051025 
	C573.010559,417.932007 577.969482,422.507233 583.403076,424.906189 
	C591.734558,428.584595 598.253540,426.861603 603.917969,418.775330 
M559.388855,360.652313 
	C564.563232,361.327576 569.737671,362.002869 574.977539,362.686676 
	C572.693420,357.796021 568.077698,355.595978 562.815125,355.327637 
	C555.875427,354.973785 550.795044,358.538239 546.426819,365.311188 
	C551.256470,363.553162 554.933228,362.214783 559.388855,360.652313 
M569.888306,378.315704 
	C569.572021,376.534210 569.842834,374.181366 568.798523,373.108337 
	C567.320435,371.589600 564.871887,371.015350 562.838135,370.037415 
	C561.632996,372.587616 559.231628,375.297455 559.544922,377.645020 
	C559.887268,380.210754 562.740906,382.441345 564.499939,384.818054 
	C566.269287,382.914856 568.038574,381.011658 569.888306,378.315704 
M605.178162,373.937561 
	C605.464783,375.873993 605.209534,378.168610 606.187561,379.647919 
	C607.203491,381.184540 609.412231,381.932526 611.099365,383.025391 
	C612.630493,380.517517 615.363953,378.004578 615.353455,375.503143 
	C615.343079,373.017181 613.107727,369.337799 610.885925,368.353363 
	C607.763428,366.969849 606.192627,370.276764 605.178162,373.937561 
M604.084045,354.283234 
	C601.313354,356.600891 598.542603,358.918549 595.771912,361.236206 
	C596.056885,361.772156 596.341919,362.308075 596.626892,362.844025 
	C604.527527,358.546539 612.454834,355.274292 620.657959,362.602417 
	C617.971252,354.394104 612.971680,352.019043 604.084045,354.283234 
M502.249542,376.796539 
	C501.766815,380.061859 503.269073,378.437531 504.504425,377.745605 
	C509.430389,374.986694 513.902283,376.618683 515.941833,381.883453 
	C516.324585,382.871521 516.701172,383.861969 517.080627,384.851318 
	C519.006714,380.227783 517.591736,376.824585 513.662964,374.378418 
	C509.491638,371.781219 505.811401,372.387848 502.249542,376.796539 
z"/>
<path fill="#EBB382" opacity="1.000000" stroke="none" 
	d="
M713.091797,741.091980 
	C721.280212,743.354980 729.468567,745.617981 738.090393,748.000732 
	C736.004028,751.519165 732.186279,752.892944 728.376221,752.881653 
	C709.593750,752.825928 690.811890,752.420288 672.031433,752.055786 
	C671.011353,752.036011 669.417358,751.541443 669.083801,750.813110 
	C665.584717,743.171875 660.892944,735.720825 659.259216,727.663940 
	C656.729431,715.187988 662.499329,708.786926 675.628235,706.911377 
	C685.446838,706.214294 694.853333,705.541870 705.013184,704.857788 
	C706.136292,704.851868 706.505981,704.857544 706.875732,704.863281 
	C710.339661,705.580383 713.803528,706.297485 717.671997,707.047729 
	C726.750000,710.278015 735.511841,713.257446 744.073059,716.731262 
	C753.407776,720.518799 762.556519,724.764648 771.435120,729.654968 
	C751.950317,726.737610 732.465454,723.820312 712.980652,720.903015 
	C712.907959,721.403442 712.835266,721.903870 712.762512,722.404358 
	C732.811768,725.856018 752.861023,729.307739 772.910278,732.759399 
	C773.076355,733.341003 773.242432,733.922668 773.408508,734.504272 
	C771.315552,735.682556 769.273376,737.764771 767.121033,737.885742 
	C756.691589,738.471863 746.233398,738.619202 735.783447,738.730286 
	C732.141479,738.768921 728.493652,738.256958 723.966980,737.995544 
	C716.023499,737.011719 708.961548,736.028748 701.899597,735.045776 
	C701.807495,735.451416 701.715393,735.857056 701.623230,736.262695 
	C705.446106,737.872437 709.268982,739.482178 713.091797,741.091980 
z"/>
<path fill="#6B6174" opacity="1.000000" stroke="none" 
	d="
M511.919556,599.016296 
	C517.921509,619.752014 524.449829,640.355103 529.721130,661.274902 
	C532.716187,673.160950 539.481873,679.963501 551.016724,682.036316 
	C565.720093,684.678711 580.533752,686.706970 595.299438,689.002869 
	C597.268372,689.309021 599.234619,689.632263 601.601135,690.327026 
	C601.999207,691.096436 601.998352,691.486267 601.997437,691.876160 
	C583.175964,688.948669 564.280518,686.417908 545.564148,682.926941 
	C536.155518,681.172058 530.714233,674.353271 528.207031,665.024353 
	C522.353210,643.243530 516.251038,621.529419 510.505829,599.397339 
	C511.147919,599.009766 511.533752,599.013062 511.919556,599.016296 
z"/>
<path fill="#6D6373" opacity="1.000000" stroke="none" 
	d="
M675.924988,592.013489 
	C681.465759,608.483887 687.523743,624.803101 692.395813,641.468994 
	C696.891357,656.847046 700.114319,672.597107 703.601440,688.596252 
	C702.895081,689.001709 702.485168,688.994202 702.075256,688.986694 
	C697.452087,671.482361 693.118469,653.894775 688.116821,636.499268 
	C683.891785,621.804932 678.892151,607.333252 674.496826,592.383545 
	C675.147217,592.007202 675.536072,592.010315 675.924988,592.013489 
z"/>
<path fill="#6B6174" opacity="1.000000" stroke="none" 
	d="
M593.039307,541.104492 
	C576.490479,549.867126 560.838135,547.944336 545.845215,537.888123 
	C547.486145,538.417053 549.172729,538.835510 550.760986,539.491821 
	C567.519348,546.416809 583.475830,546.140076 598.036011,534.122070 
	C599.879944,532.600098 601.211121,530.456970 603.394226,529.181091 
	C601.922668,534.752014 597.520935,537.729248 593.039307,541.104492 
z"/>
<path fill="#7E6B6C" opacity="1.000000" stroke="none" 
	d="
M511.929016,598.626343 
	C511.533752,599.013062 511.147919,599.009766 510.473572,599.016479 
	C506.862000,587.291504 503.539001,575.556458 500.216003,563.821411 
	C500.696198,563.674316 501.176392,563.527161 501.656555,563.380005 
	C505.083862,574.998779 508.511169,586.617554 511.929016,598.626343 
z"/>
<path fill="#6D6373" opacity="1.000000" stroke="none" 
	d="
M602.397522,691.967773 
	C601.998352,691.486267 601.999207,691.096436 601.998596,690.414307 
	C613.640686,691.693665 625.284363,693.265137 636.927979,694.836609 
	C636.871521,695.312927 636.815063,695.789307 636.758606,696.265686 
	C625.438293,694.863586 614.117981,693.461487 602.397522,691.967773 
z"/>
<path fill="#7E6B6C" opacity="1.000000" stroke="none" 
	d="
M675.914978,591.639343 
	C675.536072,592.010315 675.147217,592.007202 674.467407,592.012756 
	C670.443787,582.382812 666.711060,572.744202 662.978333,563.105530 
	C663.451233,562.911194 663.924072,562.716797 664.396973,562.522461 
	C668.232971,572.103333 672.068970,581.684265 675.914978,591.639343 
z"/>
<path fill="#7E6B6C" opacity="1.000000" stroke="none" 
	d="
M702.066711,689.392090 
	C702.485168,688.994202 702.895081,689.001709 703.612183,688.999023 
	C704.913635,694.012085 705.907959,699.035217 706.889038,704.460815 
	C706.505981,704.857544 706.136292,704.851868 705.492554,704.807495 
	C704.165100,699.778320 703.111633,694.787964 702.066711,689.392090 
z"/>
<path fill="#927A75" opacity="1.000000" stroke="none" 
	d="
M777.928162,732.094055 
	C778.205078,731.897217 778.482056,731.700378 778.869507,731.271790 
	C781.563660,732.802063 784.147217,734.564087 786.809326,736.720642 
	C786.887817,737.115112 786.645386,737.364990 786.321106,737.269104 
	C783.307251,735.480164 780.617737,733.787109 777.928162,732.094055 
z"/>
<path fill="#927A75" opacity="1.000000" stroke="none" 
	d="
M787.008667,736.989807 
	C787.784973,737.266785 788.440491,737.669006 789.059631,738.515991 
	C789.023315,738.960815 788.686829,739.306335 788.412109,739.196899 
	C787.640015,738.513306 787.142700,737.939148 786.645386,737.364990 
	C786.645386,737.364990 786.887817,737.115112 787.008667,736.989807 
z"/>
<path fill="#927A75" opacity="1.000000" stroke="none" 
	d="
M791.118164,740.446899 
	C790.681274,740.766113 790.122559,740.824707 789.176514,740.554810 
	C788.815674,739.912964 788.781494,739.606262 788.686829,739.306335 
	C788.686829,739.306335 789.023315,738.960815 789.191345,738.784058 
	C789.905029,739.133545 790.450684,739.659851 791.118164,740.446899 
z"/>
<path fill="#FBFBFC" opacity="1.000000" stroke="none" 
	d="
M962.095581,666.019409 
	C959.081177,670.680298 956.797180,675.686096 953.038330,679.037842 
	C947.855957,683.658875 940.186951,683.412964 934.969543,679.576294 
	C929.209167,675.340271 928.080078,669.223206 929.207092,662.639771 
	C930.588989,654.567383 937.426208,647.895813 945.434082,646.338440 
	C956.076050,644.268677 963.857788,653.238098 962.095581,666.019409 
z"/>
<path fill="#F9F9FA" opacity="1.000000" stroke="none" 
	d="
M1162.106689,711.530396 
	C1159.946411,711.796326 1158.190918,711.972473 1155.701050,712.222290 
	C1156.092773,705.179321 1156.453613,698.693542 1156.876587,691.088806 
	C1160.503906,692.258484 1163.635742,692.715149 1166.171509,694.193787 
	C1172.773926,698.043884 1172.635498,705.720520 1166.111206,709.787354 
	C1164.999634,710.480225 1163.715820,710.896484 1162.106689,711.530396 
z"/>
<path fill="#E2A047" opacity="1.000000" stroke="none" 
	d="
M713.514709,741.062500 
	C709.268982,739.482178 705.446106,737.872437 701.623230,736.262695 
	C701.715393,735.857056 701.807495,735.451416 701.899597,735.045776 
	C708.961548,736.028748 716.023499,737.011719 723.502014,738.000488 
	C728.069153,738.736206 732.266357,739.279663 736.344666,740.298706 
	C737.740845,740.647583 738.839294,742.188293 740.073730,743.184448 
	C739.735718,743.731873 739.397766,744.279297 739.059753,744.826660 
	C730.685730,743.562134 722.311646,742.297546 713.514709,741.062500 
z"/>
<path fill="#EBB382" opacity="1.000000" stroke="none" 
	d="
M788.412109,739.196899 
	C788.781494,739.606262 788.815674,739.912964 788.764526,740.456299 
	C782.876709,740.697937 777.013733,740.709656 770.627869,740.517273 
	C770.105042,740.313171 769.897156,739.947266 769.897156,739.947266 
	C772.350891,737.346252 774.804688,734.745300 777.593323,732.119202 
	C780.617737,733.787109 783.307251,735.480164 786.321106,737.269104 
	C787.142700,737.939148 787.640015,738.513306 788.412109,739.196899 
z"/>
<path fill="#927A75" opacity="1.000000" stroke="none" 
	d="
M769.538635,739.947998 
	C769.897156,739.947266 770.105042,740.313171 770.176086,740.510010 
	C768.848206,740.790771 767.449280,740.874695 766.050293,740.958557 
	C766.031799,740.736145 766.013245,740.513672 765.994751,740.291260 
	C767.056519,740.177063 768.118347,740.062927 769.538635,739.947998 
z"/>
<path fill="#F9F9FA" opacity="1.000000" stroke="none" 
	d="
M750.043884,173.469604 
	C748.082886,172.173218 746.165771,170.420517 743.114624,167.631027 
	C745.373596,165.949982 747.348999,164.479965 749.641479,162.846588 
	C750.001709,166.126602 750.044739,169.569946 750.043884,173.469604 
z"/>
<path fill="#69637F" opacity="1.000000" stroke="none" 
	d="
M593.125000,402.226593 
	C595.537170,400.461914 597.633240,398.860474 600.095337,396.979401 
	C595.358765,388.634460 587.522156,382.009583 587.546875,371.651611 
	C588.065918,371.590912 588.568420,371.427002 588.639893,371.538818 
	C593.257324,378.756165 597.794128,386.025452 602.449280,393.218170 
	C604.175293,395.885132 604.222778,398.580322 601.688782,400.257324 
	C597.971375,402.717560 593.816589,404.516998 589.848206,406.597992 
	C589.543701,406.058044 589.239197,405.518066 588.934692,404.978119 
	C590.226074,404.115356 591.517456,403.252594 593.125000,402.226593 
z"/>
<path fill="#625F7F" opacity="1.000000" stroke="none" 
	d="
M603.931091,419.126221 
	C598.253540,426.861603 591.734558,428.584595 583.403076,424.906189 
	C577.969482,422.507233 573.010559,417.932007 571.188721,413.051025 
	C574.205811,415.008026 576.703613,416.424500 578.976257,418.139343 
	C586.620789,423.907623 594.309631,424.928406 602.268982,418.786011 
	C602.615234,418.518860 603.359253,418.767151 603.931091,419.126221 
z"/>
<path fill="#625F7F" opacity="1.000000" stroke="none" 
	d="
M558.999390,360.764343 
	C554.933228,362.214783 551.256470,363.553162 546.426819,365.311188 
	C550.795044,358.538239 555.875427,354.973785 562.815125,355.327637 
	C568.077698,355.595978 572.693420,357.796021 574.977539,362.686676 
	C569.737671,362.002869 564.563232,361.327576 558.999390,360.764343 
z"/>
<path fill="#5B5A7F" opacity="1.000000" stroke="none" 
	d="
M569.848083,378.712097 
	C568.038574,381.011658 566.269287,382.914856 564.499939,384.818054 
	C562.740906,382.441345 559.887268,380.210754 559.544922,377.645020 
	C559.231628,375.297455 561.632996,372.587616 562.838135,370.037415 
	C564.871887,371.015350 567.320435,371.589600 568.798523,373.108337 
	C569.842834,374.181366 569.572021,376.534210 569.848083,378.712097 
z"/>
<path fill="#5B5A7F" opacity="1.000000" stroke="none" 
	d="
M605.289062,373.551086 
	C606.192627,370.276764 607.763428,366.969849 610.885925,368.353363 
	C613.107727,369.337799 615.343079,373.017181 615.353455,375.503143 
	C615.363953,378.004578 612.630493,380.517517 611.099365,383.025391 
	C609.412231,381.932526 607.203491,381.184540 606.187561,379.647919 
	C605.209534,378.168610 605.464783,375.873993 605.289062,373.551086 
z"/>
<path fill="#625F7F" opacity="1.000000" stroke="none" 
	d="
M604.454285,354.174255 
	C612.971680,352.019043 617.971252,354.394104 620.657959,362.602417 
	C612.454834,355.274292 604.527527,358.546539 596.626892,362.844025 
	C596.341919,362.308075 596.056885,361.772156 595.771912,361.236206 
	C598.542603,358.918549 601.313354,356.600891 604.454285,354.174255 
z"/>
<path fill="#625F7F" opacity="1.000000" stroke="none" 
	d="
M502.457336,376.484375 
	C505.811401,372.387848 509.491638,371.781219 513.662964,374.378418 
	C517.591736,376.824585 519.006714,380.227783 517.080627,384.851318 
	C516.701172,383.861969 516.324585,382.871521 515.941833,381.883453 
	C513.902283,376.618683 509.430389,374.986694 504.504425,377.745605 
	C503.269073,378.437531 501.766815,380.061859 502.457336,376.484375 
z"/>
<path fill="#52557F" opacity="1.000000" stroke="none" 
	d="
M539.819092,441.180725 
	C539.467590,441.023499 539.214233,440.765808 538.986206,440.251099 
	C539.011597,439.994049 538.982056,440.035126 538.982056,440.035126 
	C539.287048,440.162659 539.591980,440.290192 540.004395,440.647736 
	C540.111877,440.877747 539.917297,441.080322 539.819092,441.180725 
z"/>
<path fill="#52557F" opacity="1.000000" stroke="none" 
	d="
M539.029663,439.976379 
	C538.873169,439.836365 538.698669,439.714081 538.524109,439.591766 
	C538.628052,439.634857 538.731934,439.677948 538.908936,439.878052 
	C538.982056,440.035126 539.011597,439.994049 539.029663,439.976379 
z"/>
</svg>