<?xml version="1.0" encoding="UTF-8"?>
<svg version="1.1" xmlns="http://www.w3.org/2000/svg" width="512" height="512">
<path d="M0 0 C0.74814352 -0.00367669 1.49628705 -0.00735338 2.26710159 -0.01114148 C4.78735293 -0.02220121 7.30756308 -0.02602604 9.82783508 -0.02983093 C11.62955863 -0.03609392 13.43128088 -0.04274057 15.23300171 -0.04974365 C20.13815103 -0.06717017 25.04329058 -0.0777102 29.9484632 -0.08594918 C33.01228299 -0.09109649 36.07609973 -0.09717238 39.13991737 -0.10346031 C48.72353927 -0.12251813 58.30715343 -0.13674727 67.89079064 -0.14507228 C78.95752009 -0.15484388 90.02404948 -0.18115895 101.09070843 -0.22157317 C109.64110761 -0.25172768 118.19144942 -0.26654058 126.74190074 -0.26985329 C131.85009522 -0.2722048 136.95807612 -0.28117809 142.06621361 -0.30631447 C146.87365015 -0.32958811 151.68073241 -0.33383123 156.48821068 -0.32355309 C158.25103432 -0.32305742 160.01387536 -0.32938688 161.77664566 -0.34310913 C164.18737683 -0.36082256 166.5968358 -0.35372542 169.00756836 -0.34057617 C169.70174872 -0.35154542 170.39592907 -0.36251466 171.1111452 -0.37381631 C177.90798641 -0.28458954 182.72188934 2.65789838 187.45648193 7.42837524 C188.40016632 8.36804138 188.40016632 8.36804138 189.36291504 9.32669067 C190.35827019 10.34058113 190.35827019 10.34058113 191.37373352 11.37495422 C192.09342316 12.09581207 192.81311279 12.81666992 193.55461121 13.55937195 C195.9200747 15.93199295 198.27483559 18.3149506 200.62983704 20.69795227 C202.28145371 22.35771335 203.93381443 24.01673433 205.58688354 25.67504883 C209.93200371 30.03726007 214.26847876 34.40795988 218.60273743 38.78096008 C225.53351653 45.7709875 232.47697202 52.74841633 239.42114449 59.7251339 C241.83671921 62.15458672 244.24838696 64.58786413 246.65948486 67.02175903 C248.15268793 68.524995 249.64597481 70.02814772 251.13935852 71.53120422 C252.13167732 72.53598564 252.13167732 72.53598564 253.14404297 73.56106567 C256.99025279 77.42529599 260.95186975 81.09101945 265.08694077 84.6450367 C269.11913647 88.13744906 272.851881 91.95142692 276.63374329 95.70967102 C277.47872375 96.53402649 278.32370422 97.35838196 279.19429016 98.2077179 C280.41148743 99.41718079 280.41148743 99.41718079 281.65327454 100.65107727 C282.38264221 101.37109924 283.11200989 102.09112122 283.86347961 102.83296204 C288.06969531 107.80499328 289.19783531 112.08120918 289.25361633 118.52949524 C289.26380798 119.24238205 289.27399963 119.95526886 289.28450012 120.6897583 C289.31450028 123.02720633 289.32387577 125.3642437 289.33296204 127.70185852 C289.34981842 129.32997485 289.36796995 130.95807825 289.38735962 132.58616638 C289.43476181 136.85713152 289.46463423 141.12804418 289.49079895 145.39918518 C289.52065401 149.76320251 289.5671673 154.12703923 289.61225891 158.49092102 C289.69818067 167.04291541 289.76557519 175.59492643 289.82124329 184.14717102 C290.49961243 184.4105426 291.17798157 184.67391418 291.87690735 184.94526672 C292.77119446 185.29677795 293.66548157 185.64828918 294.58686829 186.01045227 C295.47148743 186.35632385 296.35610657 186.70219543 297.26753235 187.05854797 C306.03715272 190.79695498 310.56876524 197.06361014 314.37103271 205.64485168 C316.88764597 213.39960079 316.33458546 221.7872328 316.38398743 229.8561554 C316.406086 231.75779459 316.42927286 233.65942139 316.45346069 235.56103516 C316.52662156 241.78755264 316.56790754 248.01410764 316.60639954 254.24092102 C316.62118337 256.39643412 316.63605546 258.55194661 316.65101433 260.7074585 C316.71111287 269.68755373 316.76304213 278.66763012 316.79300785 287.64788055 C316.83591783 300.45027493 316.92630941 313.25022869 317.08517367 326.05172682 C317.19341876 335.08832153 317.24668158 344.12427304 317.26049322 353.1614995 C317.27006946 358.54055592 317.30211477 363.91706377 317.39315987 369.29541016 C318.0681159 411.2466526 318.0681159 411.2466526 303.69074821 430.5319519 C300.28719652 435.29312333 297.51400048 440.43432169 294.63374329 445.52217102 C293.58115092 447.32363947 292.52576633 449.12348396 291.46577454 450.92060852 C291.02596252 451.66745911 290.58615051 452.41430969 290.13301086 453.18379211 C287.83415674 456.62458587 286.63269929 457.96344513 282.50874329 458.89717102 C278.82124329 458.14717102 278.82124329 458.14717102 277.4276886 456.59077454 C276.9852179 455.88879944 276.54274719 455.18682434 276.08686829 454.46357727 C275.57084045 453.64615051 275.05481262 452.82872375 274.52314758 451.98652649 C271.22474663 446.48367136 268.03848703 440.9204977 264.88374329 435.33467102 C263.85957219 433.52783961 262.83443348 431.72156125 261.80888367 429.91551208 C261.13600874 428.73025763 260.46382047 427.54461307 259.79234314 426.35856628 C256.97599427 421.39223642 254.08424584 416.47383757 251.16670227 411.56636047 C249.0154961 407.69840513 248.70748804 404.81636695 248.75874329 400.45967102 C248.76776672 399.46580383 248.77679016 398.47193665 248.78608704 397.44795227 C248.7976886 396.68869446 248.80929016 395.92943665 248.82124329 395.14717102 C246.84124329 395.14717102 244.86124329 395.14717102 242.82124329 395.14717102 C242.84219055 396.07465149 242.86313782 397.00213196 242.88471985 397.9577179 C242.95329827 401.43177931 243.00323655 404.90511113 243.04096985 408.3795929 C243.06096247 409.87710492 243.08816627 411.3745401 243.1230011 412.8717804 C243.47405252 428.35934328 243.47405252 428.35934328 238.82124329 435.14717102 C234.14814645 439.70044486 229.64311311 441.39990354 223.17077637 441.38768005 C222.04482056 441.39042938 220.91886475 441.39317871 219.75878906 441.39601135 C218.53311722 441.3888208 217.30744537 441.38163025 216.04463196 441.3742218 C214.09769943 441.37465988 214.09769943 441.37465988 212.11143494 441.37510681 C208.56013573 441.37567986 205.00897206 441.3639334 201.45770431 441.3499589 C197.7434672 441.3374435 194.02922687 441.3362804 190.31497192 441.33390808 C183.28503902 441.32769569 176.25516843 441.31128814 169.22526294 441.2912091 C161.22047131 441.2688426 153.21567667 441.25785478 145.21086156 441.24781823 C128.74761901 441.22692169 112.28443911 441.19175041 95.82124329 441.14717102 C96.16767883 441.61840393 96.51411438 442.08963684 96.87104797 442.57514954 C97.55022278 443.50992126 97.55022278 443.50992126 98.24311829 444.46357727 C98.69267883 445.07918518 99.14223938 445.69479309 99.60542297 446.32905579 C101.4928833 449.1515291 102.1005139 450.72610597 101.82124329 454.14717102 C96.63165238 461.70066964 89.05387568 468.1689307 82.60493469 474.65864563 C81.32442593 475.95078347 80.0484252 477.24740326 78.77680969 478.54829407 C76.92367755 480.44394232 75.05778529 482.32612836 73.18843079 484.20576477 C72.62373077 484.78797287 72.05903076 485.37018097 71.47721863 485.97003174 C68.4334914 488.99719559 66.23292775 491.09046795 61.82124329 491.14717102 C57.86031021 489.32837522 54.94527368 487.40488727 51.89155579 484.32295227 C47.42894391 479.85964876 47.42894391 479.85964876 41.82124329 477.14717102 C36.30790899 477.68829685 31.35937417 480.49895954 26.6295929 483.2323761 C24.71402238 484.20141116 22.91539725 484.70248434 20.82124329 485.14717102 C20.71578186 485.82296204 20.61032043 486.49875305 20.50166321 487.19502258 C20.01584351 490.26441194 19.51249837 493.33067646 19.00874329 496.39717102 C18.84309875 497.46064758 18.67745422 498.52412415 18.50679016 499.61982727 C18.33598938 500.64463196 18.1651886 501.66943665 17.98921204 502.72529602 C17.83734436 503.66792297 17.68547668 504.61054993 17.52900696 505.58174133 C16.726889 508.48917682 15.90045223 509.96650249 13.82124329 512.14717102 C11.44839478 512.62818909 11.44839478 512.62818909 8.61543274 512.60127258 C7.55455948 512.60097046 6.49368622 512.60066833 5.40066528 512.60035706 C4.25683884 512.57971191 3.11301239 512.55906677 1.93452454 512.53779602 C0.17630623 512.52930634 0.17630623 512.52930634 -1.61743164 512.52064514 C-5.3674525 512.49822424 -9.11652382 512.44801486 -12.86625671 512.39717102 C-15.40595647 512.37711352 -17.94567118 512.35886145 -20.48539734 512.34248352 C-26.71684204 512.29834063 -32.94773155 512.23137084 -39.17875671 512.14717102 C-41.18352137 508.4562555 -42.52366888 505.56844093 -42.70610046 501.36201477 C-42.98682399 491.68560993 -42.98682399 491.68560993 -47.72172546 483.86982727 C-50.86433835 482.623138 -53.88605632 481.90411364 -57.17875671 481.14717102 C-58.61891064 480.32043477 -60.05901125 479.49360565 -61.49906921 478.66670227 C-63.76497603 477.51388317 -63.76497603 477.51388317 -66.17875671 477.14717102 C-69.81075606 478.51956481 -72.49654784 480.83235379 -75.42875671 483.33467102 C-76.9699036 484.58525284 -78.5166122 485.82901864 -80.06938171 487.06513977 C-80.74001648 487.62999084 -81.41065125 488.19484192 -82.10160828 488.77680969 C-84.58714584 490.4165984 -86.19752262 491.00733667 -89.17875671 491.14717102 C-94.12640063 489.05153575 -97.69079179 484.9068081 -101.41313171 481.14326477 C-102.43107819 480.12463097 -102.43107819 480.12463097 -103.46958923 479.0854187 C-104.89732004 477.65467602 -106.32262892 476.22151288 -107.74565125 474.78608704 C-109.92983948 472.58357918 -112.12198753 470.38924167 -114.31547546 468.19599915 C-115.7026682 466.80389317 -117.08940311 465.4113308 -118.47563171 464.01826477 C-119.13287231 463.35991135 -119.79011292 462.70155792 -120.4672699 462.02325439 C-121.07169922 461.41244522 -121.67612854 460.80163605 -122.2988739 460.1723175 C-122.83228394 459.63509567 -123.36569397 459.09787384 -123.91526794 458.54437256 C-125.68696818 456.58517644 -126.16994392 455.19455785 -126.65531921 452.58467102 C-125.81947895 446.55565927 -121.38491635 442.39349236 -117.62406921 437.77998352 C-115.94906582 435.61704435 -114.4345191 433.57830164 -113.17875671 431.14717102 C-113.4370143 427.9294999 -113.4370143 427.9294999 -115.17875671 425.14717102 C-115.81684265 423.50168274 -115.81684265 423.50168274 -116.46781921 421.82295227 C-117.36183461 419.57222931 -118.25768225 417.32223332 -119.15531921 415.07295227 C-120.17875671 412.14717102 -120.17875671 412.14717102 -120.17875671 409.14717102 C-121.30153015 409.02599915 -122.42430359 408.90482727 -123.58110046 408.77998352 C-140.13937789 406.94838927 -140.13937789 406.94838927 -146.17875671 405.14717102 C-148.35155092 401.88797971 -148.43388994 400.94542773 -148.45341492 397.17256165 C-148.46294693 396.16141296 -148.47247894 395.15026428 -148.4822998 394.10847473 C-148.4813884 393.01780701 -148.48047699 391.92713928 -148.47953796 390.80342102 C-148.48382309 389.68278259 -148.48810822 388.56214417 -148.49252319 387.407547 C-148.49826887 385.03707048 -148.49876502 382.66657632 -148.49443054 380.2960968 C-148.49126919 376.66151507 -148.51473257 373.0277459 -148.54008484 369.39326477 C-148.54235759 367.09248455 -148.54306144 364.79170213 -148.54203796 362.49092102 C-148.55124771 361.4002533 -148.56045746 360.30958557 -148.56994629 359.18586731 C-148.5637175 358.17471863 -148.55748871 357.16356995 -148.55107117 356.1217804 C-148.55170059 355.23148132 -148.55233002 354.34118225 -148.55297852 353.42390442 C-148.09619439 350.64486891 -147.43653497 349.79270833 -145.17875671 348.14717102 C-142.41836248 347.47080217 -139.78933891 346.94561252 -136.99125671 346.52217102 C-136.26100281 346.40099915 -135.5307489 346.27982727 -134.77836609 346.15498352 C-129.92579558 345.36413058 -125.05990772 344.73313026 -120.17875671 344.14717102 C-119.95188171 342.88904602 -119.72500671 341.63092102 -119.49125671 340.33467102 C-118.43195623 335.36772873 -116.38344265 331.19114131 -114.00688171 326.72529602 C-112.95364427 324.19541507 -112.95364427 324.19541507 -113.72172546 321.73701477 C-115.60666371 318.38657495 -117.84227242 315.45585649 -120.24125671 312.45967102 C-125.96007939 305.23293998 -125.96007939 305.23293998 -126.70439148 301.53730774 C-125.88304559 296.239951 -122.48918662 293.58049807 -118.76860046 289.90498352 C-117.62821068 288.75242569 -117.62821068 288.75242569 -116.46478271 287.57658386 C-114.85388447 285.95722646 -113.23529076 284.34549329 -111.60966492 282.74092102 C-109.12675915 280.2825696 -106.68041477 277.7915792 -104.23539734 275.29560852 C-102.66522347 273.72580515 -101.09302246 272.15802624 -99.51860046 270.59248352 C-98.78914719 269.84572357 -98.05969391 269.09896362 -97.30813599 268.32957458 C-92.13537054 263.29597217 -92.13537054 263.29597217 -87.36479187 262.5539093 C-83.25614453 263.31896777 -80.70761536 265.24210786 -77.61625671 267.89717102 C-76.53312281 268.78962147 -75.4484957 269.68026292 -74.36235046 270.56904602 C-73.89369568 270.96704407 -73.42504089 271.36504211 -72.94218445 271.77510071 C-70.45181453 273.71278297 -67.80841742 275.40523689 -65.17875671 277.14717102 C-65.18152209 276.02918814 -65.18428747 274.91120525 -65.18713665 273.7593441 C-65.25370652 246.56859153 -65.30302032 219.37784952 -65.33419323 192.1870327 C-65.34966852 179.03781108 -65.37077076 165.88864326 -65.40507507 152.73945618 C-65.43495708 141.2799325 -65.4543269 129.82044777 -65.4610222 118.36088622 C-65.46493646 112.2919626 -65.47414945 106.22315046 -65.49594688 100.15426254 C-65.51629299 94.44324405 -65.52259426 88.73238308 -65.51807976 83.02133179 C-65.51890579 80.92429372 -65.52488251 78.82725044 -65.53637314 76.73024368 C-65.55128771 73.86824221 -65.54771394 71.00683628 -65.53952026 68.14482117 C-65.54825879 67.31407149 -65.55699731 66.48332181 -65.56600064 65.62739789 C-65.52159191 59.89279235 -64.48052993 55.64250244 -60.46000671 51.28388977 C-59.87219421 50.80564758 -59.28438171 50.3274054 -58.67875671 49.83467102 C-57.79703796 49.0979718 -57.79703796 49.0979718 -56.89750671 48.34638977 C-53.07428843 45.67882611 -49.1208507 46.01697089 -44.66703796 46.04951477 C-43.93881332 46.05092972 -43.21058868 46.05234467 -42.46029663 46.05380249 C-40.13724132 46.05939443 -37.81428283 46.0719454 -35.49125671 46.08467102 C-33.91508623 46.08968706 -32.33891424 46.09424979 -30.76274109 46.0983429 C-26.90137573 46.10936122 -23.04008263 46.12662028 -19.17875671 46.14717102 C-19.20232239 44.74809509 -19.20232239 44.74809509 -19.22636414 43.320755 C-19.27773653 39.83371838 -19.3152244 36.34708862 -19.34355164 32.8598175 C-19.35856393 31.35552085 -19.37898025 29.85126742 -19.40507507 28.34712219 C-19.44179487 26.17489406 -19.45855833 24.00324851 -19.47172546 21.83076477 C-19.49529114 19.87481384 -19.49529114 19.87481384 -19.51933289 17.87934875 C-19.06849352 12.93886027 -17.80185777 8.96186307 -14.42485046 5.18623352 C-13.52959656 4.48627258 -13.52959656 4.48627258 -12.61625671 3.77217102 C-12.01684265 3.29006165 -11.41742859 2.80795227 -10.79985046 2.31123352 C-7.28425488 -0.21321825 -4.17915836 -0.00109236 0 0 Z M-5.17875671 14.14717102 C-6.85050977 17.49067714 -6.31132452 21.2533796 -6.29901123 24.92955017 C-6.29986566 25.8500583 -6.30072008 26.77056643 -6.3016004 27.71896875 C-6.30325548 30.82217148 -6.29773335 33.92532088 -6.2922821 37.02851868 C-6.29200021 39.24553425 -6.292158 41.46254991 -6.29272461 43.67956543 C-6.29301251 49.71438662 -6.28711701 55.74918809 -6.28015065 61.78400469 C-6.27391584 68.08477714 -6.27331321 74.38555001 -6.27212524 80.68632507 C-6.26936639 91.26702714 -6.26311251 101.84772272 -6.25419617 112.42842102 C-6.24502078 123.32783471 -6.23794056 134.22724643 -6.23368835 145.12666321 C-6.23342563 145.79821177 -6.23316291 146.46976032 -6.23289222 147.16165884 C-6.23158721 150.53053359 -6.2303235 153.89940835 -6.22908032 157.26828313 C-6.21861678 185.22791749 -6.20101806 213.18754374 -6.17875671 241.14717102 C-5.61890076 241.16175354 -5.0590448 241.17633606 -4.48222351 241.19136047 C-1.94287534 241.26588454 0.59516406 241.36252683 3.13374329 241.45967102 C4.45535461 241.49350891 4.45535461 241.49350891 5.80366516 241.5280304 C6.65122375 241.56347961 7.49878235 241.59892883 8.37202454 241.63545227 C9.542453 241.67472839 9.542453 241.67472839 10.73652649 241.71479797 C13.3088229 242.24829568 14.21447499 243.10419279 15.82124329 245.14717102 C16.4054718 247.26020813 16.4054718 247.26020813 16.70014954 249.67451477 C16.87513977 250.98645813 16.87513977 250.98645813 17.05366516 252.3249054 C17.16259094 253.23562805 17.27151672 254.14635071 17.38374329 255.08467102 C17.60782135 256.88625865 17.83807354 258.68709146 18.07514954 260.48701477 C18.17126526 261.28486389 18.26738098 262.08271301 18.3664093 262.90473938 C18.85789368 265.32786553 19.48920686 267.06328277 20.82124329 269.14717102 C23.2576472 270.36537298 25.52847234 271.34974548 28.07124329 272.27217102 C28.7273761 272.52353821 29.38350891 272.7749054 30.05952454 273.03388977 C31.36152239 273.52828657 32.67089117 274.00372113 33.98701477 274.45918274 C35.82124329 275.14717102 35.82124329 275.14717102 38.74702454 276.72529602 C42.48426784 277.23815787 43.09770995 276.62219946 46.09858704 274.49873352 C47.66766126 273.27642337 49.22066758 272.03326546 50.75874329 270.77217102 C52.29717677 269.5198682 53.84774797 268.28230309 55.41108704 267.06123352 C56.09034241 266.50387512 56.76959778 265.94651672 57.46943665 265.37226868 C60.95407593 263.55705847 62.93055096 263.49791286 66.82124329 264.14717102 C69.80379379 266.12938174 72.20057087 268.5926093 74.68843079 271.15498352 C75.40862396 271.87322296 76.12881714 272.5914624 76.87083435 273.33146667 C78.38685691 274.85148316 79.89426291 276.38013598 81.39350891 277.91670227 C83.68839322 280.26414118 86.01358142 282.57793918 88.34468079 284.88935852 C89.81534473 286.37183728 91.28415944 287.8561533 92.75093079 289.34248352 C93.44564484 290.03335052 94.14035889 290.72421753 94.85612488 291.4360199 C97.73572983 294.4158949 99.59649253 296.44176156 100.86909485 300.43598938 C100.8007755 304.306838 98.97408638 306.63125645 96.69624329 309.58467102 C96.30436829 310.11898743 95.91249329 310.65330383 95.50874329 311.20381165 C95.11429016 311.74070618 94.71983704 312.27760071 94.31343079 312.83076477 C93.71546692 313.64770813 93.71546692 313.64770813 93.10542297 314.4811554 C91.82124329 316.14717102 91.82124329 316.14717102 90.2948761 317.81318665 C88.78730346 319.5668321 87.69237062 321.0013258 86.82124329 323.14717102 C87.15284156 326.34192018 88.40357703 328.91665821 89.82124329 331.77217102 C90.15253235 332.50951477 90.48382141 333.24685852 90.82514954 334.00654602 C91.77545164 336.08603063 92.75569974 338.12430319 93.82124329 340.14717102 C94.24461975 341.02864807 94.66799622 341.91012512 95.10420227 342.8183136 C96.62860903 345.34580368 96.62860903 345.34580368 99.33320618 346.01850891 C100.31023499 346.13444397 101.28726379 346.25037903 102.29389954 346.36982727 C103.89008118 346.58929016 103.89008118 346.58929016 105.51850891 346.81318665 C106.62903625 346.94402649 107.7395636 347.07486633 108.88374329 347.20967102 C111.08501476 347.47575878 113.28446071 347.75756303 115.48139954 348.05732727 C116.45730042 348.1721344 117.43320129 348.28694153 118.43867493 348.40522766 C119.22492249 348.65006897 120.01117004 348.89491028 120.82124329 349.14717102 C125.7608789 359.02644225 123.44059501 371.10837095 123.82124329 382.14717102 C165.07124329 382.14717102 206.32124329 382.14717102 248.82124329 382.14717102 C248.82124329 364.32717102 248.82124329 346.50717102 248.82124329 328.14717102 C244.49982239 328.15764465 240.17840149 328.16811829 235.72602844 328.1789093 C221.48076668 328.21198337 207.23550346 328.23421607 192.99021339 328.25079536 C184.34956026 328.26111851 175.70894343 328.2751986 167.0683136 328.29804993 C159.53925312 328.3179521 152.01021892 328.3308799 144.48113286 328.33534801 C140.49262894 328.33796079 136.50420024 328.34412335 132.51572037 328.35863113 C128.76474046 328.37216501 125.01386707 328.37640222 121.26286507 328.37338638 C119.88335022 328.37393843 118.50383195 328.37794083 117.12433815 328.38558197 C115.24644648 328.39547707 113.36849818 328.39196124 111.49058533 328.38768005 C109.91155395 328.39044543 109.91155395 328.39044543 108.30062294 328.39326668 C105.82124329 328.14717102 105.82124329 328.14717102 103.82124329 326.14717102 C103.50874329 322.64717102 103.50874329 322.64717102 103.82124329 319.14717102 C107.26711787 316.8499213 108.51743159 316.89950322 112.57287598 316.90666199 C114.37127678 316.90253799 114.37127678 316.90253799 116.20600891 316.89833069 C117.52302795 316.90552124 118.840047 316.91271179 120.19697571 316.92012024 C121.59641512 316.92068432 122.99585512 316.92036785 124.39529419 316.91923523 C128.1966999 316.9186606 131.99797979 316.93043265 135.79935622 316.94438314 C139.77118911 316.95687221 143.74302477 316.95805956 147.71487427 316.96043396 C155.23715368 316.9666541 162.75937506 316.98307213 170.28162891 317.00313294 C178.84500986 317.02547534 187.40839356 317.03648119 195.97179639 317.04652381 C213.58831252 317.0674379 231.20477112 317.10302636 248.82124329 317.14717102 C248.82124329 312.52717102 248.82124329 307.90717102 248.82124329 303.14717102 C246.16275581 303.15383286 246.16275581 303.15383286 243.45056152 303.16062927 C226.77810942 303.20110786 210.10566721 303.23124292 193.43317699 303.25079536 C184.8609336 303.2611152 176.28872684 303.275189 167.71650696 303.29804993 C160.24640053 303.3179622 152.77632063 303.33088231 145.3061884 303.33534801 C141.34951037 303.33795907 137.39290825 303.34411079 133.4362545 303.35863113 C129.71399842 303.37218092 125.99184971 303.37639896 122.2695713 303.37338638 C120.24836993 303.37420109 118.22718032 303.38497633 116.20600891 303.39601135 C115.00707504 303.39326202 113.80814117 303.3905127 112.57287598 303.38768005 C111.52848453 303.38952364 110.48409307 303.39136723 109.4080534 303.39326668 C106.82124329 303.14717102 106.82124329 303.14717102 103.82124329 301.14717102 C103.50874329 297.64717102 103.50874329 297.64717102 103.82124329 294.14717102 C105.82124329 292.14717102 105.82124329 292.14717102 108.30062294 291.90107536 C109.35331053 291.90291895 110.40599812 291.90476254 111.49058533 291.90666199 C112.69655869 291.90391266 113.90253204 291.90116333 115.14505005 291.89833069 C116.48845008 291.90540941 117.83184912 291.91267904 119.17524719 291.92012024 C120.58439119 291.92068415 121.99353578 291.92036819 123.40267944 291.91923523 C127.23513457 291.91865992 131.06746525 291.93044299 134.89989138 291.94438314 C138.90242671 291.95686084 142.9049647 291.95805866 146.90751648 291.96043396 C154.49003608 291.96665746 162.0724982 291.98308 169.65499246 292.00313294 C178.28606365 292.02546493 186.91713754 292.03647856 195.54823041 292.04652381 C213.3059406 292.06744551 231.06357198 292.10413255 248.82124329 292.14717102 C248.82124329 279.27717102 248.82124329 266.40717102 248.82124329 253.14717102 C244.53535217 253.15764465 240.24946106 253.16811829 235.83369446 253.1789093 C221.70019865 253.21199419 207.56670136 253.23422046 193.43317699 253.25079536 C184.8609336 253.2611152 176.28872684 253.275189 167.71650696 253.29804993 C160.24640053 253.3179622 152.77632063 253.33088231 145.3061884 253.33534801 C141.34951037 253.33795907 137.39290825 253.34411079 133.4362545 253.35863113 C129.71399842 253.37218092 125.99184971 253.37639896 122.2695713 253.37338638 C120.24836993 253.37420109 118.22718032 253.38497633 116.20600891 253.39601135 C115.00707504 253.39326202 113.80814117 253.3905127 112.57287598 253.38768005 C111.52848453 253.38952364 110.48409307 253.39136723 109.4080534 253.39326668 C106.82124329 253.14717102 106.82124329 253.14717102 103.82124329 251.14717102 C103.82124329 248.17717102 103.82124329 245.20717102 103.82124329 242.14717102 C151.67124329 242.14717102 199.52124329 242.14717102 248.82124329 242.14717102 C248.82124329 237.19717102 248.82124329 232.24717102 248.82124329 227.14717102 C247.50124329 227.47717102 246.18124329 227.80717102 244.82124329 228.14717102 C242.93793346 228.23961501 241.05166659 228.27772829 239.16609192 228.28088379 C238.0136348 228.28514877 236.86117767 228.28941376 235.67379761 228.29380798 C234.41341171 228.2933548 233.15302582 228.29290161 231.85444641 228.29243469 C230.510609 228.29542759 229.16677244 228.29883042 227.82293701 228.3026123 C224.17632278 228.31144165 220.52973202 228.31378993 216.88310814 228.31442809 C213.83875484 228.3153781 210.79440699 228.31905732 207.75005579 228.32260019 C200.56886677 228.33074013 193.38769029 228.33318478 186.20649719 228.33247375 C178.7969853 228.33187255 171.38754611 228.34243385 163.97805262 228.35821742 C157.61617518 228.37128677 151.25432154 228.37665793 144.89243078 228.37601835 C141.09284248 228.37576325 137.29331884 228.37862105 133.4937439 228.3891964 C129.92162127 228.39886762 126.3496253 228.39896333 122.77749825 228.39167976 C120.84122226 228.39013341 118.90494632 228.39848683 116.96868896 228.40711975 C115.24000328 228.40082802 115.24000328 228.40082802 113.47639465 228.39440918 C111.97429066 228.39522633 111.97429066 228.39522633 110.44184113 228.39605999 C107.75878213 228.14123883 106.11648454 227.5195983 103.82124329 226.14717102 C103.82124329 223.50717102 103.82124329 220.86717102 103.82124329 218.14717102 C106.4867731 216.81440612 108.49791818 217.02733911 111.4838562 217.03364563 C112.6883844 217.03371613 113.8929126 217.03378662 115.13394165 217.03385925 C116.47575411 217.03899356 117.81756624 217.044215 119.15937805 217.04951477 C120.56689908 217.05143311 121.9744208 217.0528973 123.38194275 217.05393982 C126.41635965 217.05710528 129.45074886 217.06338045 132.48515511 217.07200623 C137.27849244 217.08549473 142.07182046 217.09141542 146.86517334 217.09614563 C157.03804233 217.10725892 167.21088926 217.12679915 177.38374329 217.14717102 C188.36808696 217.16916254 199.35242164 217.18974526 210.33678287 217.20058918 C215.10671769 217.20558741 219.8766105 217.21547035 224.64652836 217.22901917 C227.60745683 217.23645106 230.56837941 217.23978883 233.52931595 217.24198532 C234.90763763 217.24386567 236.28595815 217.24748298 237.6642704 217.25291824 C239.53803972 217.26007765 241.41183102 217.26058649 243.28561401 217.26069641 C244.33662576 217.26291702 245.3876375 217.26513763 246.47049809 217.26742554 C248.77923751 217.41252944 248.77923751 217.41252944 249.82124329 216.14717102 C250.06876305 214.50399766 250.29381889 212.85742471 250.50874329 211.20967102 C251.87062901 203.4989945 255.34658619 197.20294189 261.00874329 191.77217102 C264.82124329 189.14717102 264.82124329 189.14717102 275.82124329 185.14717102 C275.82124329 163.69717102 275.82124329 142.24717102 275.82124329 120.14717102 C269.42878235 120.10978821 263.03632141 120.0724054 256.45014954 120.03388977 C252.38957619 120.0035978 248.32904603 119.97244186 244.26850891 119.93818665 C237.82981086 119.88395084 231.39119822 119.83283722 224.9523468 119.80073547 C219.75858174 119.77464055 214.56510503 119.73419431 209.37151909 119.68398476 C207.39453162 119.66735787 205.41749433 119.65581766 203.44044685 119.64955711 C200.66155718 119.63987049 197.8833983 119.61175709 195.10469055 119.57954407 C193.89087708 119.5816967 193.89087708 119.5816967 192.65254211 119.58389282 C185.76985524 119.47176834 179.49680547 118.18292486 173.94624329 113.95967102 C171.82124329 111.14717102 171.82124329 111.14717102 168.82124329 103.14717102 C136.64624329 102.65217102 136.64624329 102.65217102 103.82124329 102.14717102 C103.82124329 99.17717102 103.82124329 96.20717102 103.82124329 93.14717102 C107.30459734 90.82493498 108.73469698 90.87844745 112.85322571 90.82832336 C114.71481575 90.79851883 114.71481575 90.79851883 116.61401367 90.76811218 C117.96824465 90.75623584 119.32247751 90.74457298 120.67671204 90.73310852 C122.06249141 90.71439785 123.44825938 90.6948245 124.83401489 90.67442322 C128.47863544 90.62308508 132.12329294 90.58346858 135.76808167 90.54627991 C139.48836926 90.50625066 143.20850295 90.45515343 146.92866516 90.40498352 C154.22609366 90.3082043 161.52358166 90.22482923 168.82124329 90.14717102 C168.82124329 86.18717102 168.82124329 82.22717102 168.82124329 78.14717102 C166.92325989 78.12735168 165.02527649 78.10753235 163.06977844 78.08711243 C156.80717896 78.01941164 150.54474239 77.94264201 144.28232765 77.85964394 C140.48446448 77.80964318 136.68662963 77.76331377 132.8886261 77.72529602 C129.22509375 77.68849053 125.56179628 77.64214409 121.8984642 77.58910751 C120.49903345 77.57053823 119.09955231 77.55543966 117.70004654 77.54382706 C115.74376379 77.5270086 113.78760948 77.49683749 111.83149719 77.46601868 C110.15937668 77.44603317 110.15937668 77.44603317 108.45347595 77.42564392 C105.82124329 77.14717102 105.82124329 77.14717102 103.82124329 75.14717102 C103.57124329 71.64717102 103.57124329 71.64717102 103.82124329 68.14717102 C106.53862616 65.42978814 108.02731653 65.87379166 111.83149719 65.82832336 C113.72323166 65.79851883 113.72323166 65.79851883 115.65318298 65.76811218 C117.03472213 65.75623488 118.41626314 65.74457207 119.79780579 65.73310852 C121.20743453 65.71440392 122.61705199 65.69483104 124.0266571 65.67442322 C127.73869691 65.6230209 131.45077305 65.58343883 135.16297913 65.54627991 C139.61593941 65.49926129 144.06871829 65.43762896 148.52153015 65.37843323 C155.2880283 65.2901222 162.05448995 65.22042932 168.82124329 65.14717102 C168.82124329 47.65717102 168.82124329 30.16717102 168.82124329 12.14717102 C146.72507762 12.10204847 124.62894918 12.06519601 102.53274918 12.04354668 C92.27342837 12.03322797 82.01413819 12.01915628 71.75483704 11.99629211 C62.81429103 11.97637644 53.87376721 11.96345891 44.93319964 11.95899403 C40.19792864 11.95638356 35.46272109 11.95023547 30.7274704 11.93571091 C26.27226305 11.92215579 21.81714542 11.91794418 17.3619194 11.92095566 C15.72523639 11.92040457 14.08855043 11.9164148 12.45188522 11.90876007 C10.21985223 11.89883116 7.9881594 11.90119452 5.75611877 11.90666199 C4.50616749 11.9048184 3.2562162 11.90297482 1.9683876 11.90107536 C-1.03154884 12.13565988 -2.71430457 12.46801481 -5.17875671 14.14717102 Z M181.82124329 22.14717102 C181.77494492 32.65642843 181.73938681 43.16566165 181.71761894 53.67500019 C181.70717256 58.55467641 181.69299777 63.43428295 181.67036438 68.31391907 C181.64866648 73.02121861 181.6366811 77.72845105 181.6314888 82.43579674 C181.62778755 84.23357894 181.62056012 86.03135739 181.60978317 87.8291111 C181.59530879 90.3431714 181.59326364 92.85695285 181.5941925 95.37104797 C181.58700195 96.11767197 181.5798114 96.86429596 181.57240295 97.63354492 C181.58735412 101.3622994 181.69650922 102.96006992 183.82124329 106.14717102 C187.46681338 107.36236105 190.8031555 107.27896697 194.59736633 107.26069641 C195.38784363 107.26084244 196.17832092 107.26098846 196.99275208 107.26113892 C199.60618329 107.26044212 202.21954327 107.25266057 204.83296204 107.24482727 C206.64471396 107.24296227 208.45646639 107.24153875 210.26821899 107.24053955 C215.03741345 107.23672087 219.80657746 107.2268961 224.57575989 107.21583557 C229.44208871 107.20560751 234.30842244 107.20103894 239.17475891 107.19599915 C248.72360041 107.18527328 258.27241932 107.16820462 267.82124329 107.14717102 C264.12677165 102.7447664 260.33114585 98.52922742 256.26655579 94.45967102 C255.50869278 93.70037292 255.50869278 93.70037292 254.73551941 92.92573547 C253.67629096 91.86583283 252.61582408 90.80716646 251.55415344 89.74971008 C249.9532294 88.1541338 248.35770644 86.55329762 246.76264954 84.95185852 C245.72260528 83.91247539 244.68225068 82.87340269 243.64155579 81.83467102 C242.71617004 80.91041321 241.7907843 79.9861554 240.83735657 79.03388977 C238.6777421 76.92387523 236.43943887 74.94111775 234.14668274 72.977005 C229.30821368 68.77811684 224.80988622 64.24918247 220.30175972 59.70285225 C218.76165866 58.1498156 217.21830412 56.600076 215.6741333 55.05108643 C212.40781707 51.77344756 209.14550964 48.49183691 205.88374329 45.20967102 C202.07736822 41.37968493 198.26936239 37.55134892 194.45716667 33.72715569 C192.9344713 32.19796545 191.41480709 30.66580559 189.89523315 29.1335144 C188.98015488 28.2151329 188.0650766 27.2967514 187.12226868 26.35054016 C186.31366898 25.53670364 185.50506927 24.72286713 184.67196655 23.8843689 C183.12277622 22.0331059 183.12277622 22.0331059 181.82124329 22.14717102 Z M-49.17875671 59.14717102 C-52.51435685 62.48277115 -52.52932822 63.49814889 -52.56600064 68.00459594 C-52.55726212 68.8090656 -52.54852359 69.61353527 -52.53952026 70.44238281 C-52.54208354 71.29840853 -52.54464681 72.15443425 -52.54728776 73.03640014 C-52.55224394 75.91555413 -52.53570257 78.79418808 -52.51933289 81.67329407 C-52.51848701 83.73282356 -52.51896098 85.79235397 -52.5206604 87.85188293 C-52.52152332 93.45284509 -52.50384956 99.05361563 -52.48293853 104.65453315 C-52.4642211 110.5041862 -52.46242519 116.35384335 -52.4588623 122.20352173 C-52.44952731 133.28512049 -52.42489385 144.36663076 -52.39481384 155.44819051 C-52.36131505 168.06227609 -52.3447952 180.67636582 -52.32972753 193.29048479 C-52.29834558 219.24276264 -52.24555684 245.19496188 -52.17875671 271.14717102 C-50.86754248 270.71073012 -49.56094044 270.26041357 -48.25648499 269.8041687 C-47.5284133 269.5548739 -46.80034161 269.30557909 -46.05020714 269.0487299 C-43.91149929 268.25469057 -43.91149929 268.25469057 -42.93510437 265.63520813 C-42.82215027 264.65817932 -42.70919617 263.68115051 -42.59281921 262.67451477 C-42.44715515 261.61039368 -42.30149109 260.54627258 -42.15141296 259.4499054 C-41.97932312 257.78411438 -41.97932312 257.78411438 -41.80375671 256.08467102 C-41.53145889 253.88465727 -41.25311355 251.68538093 -40.96781921 249.48701477 C-40.86163269 248.51111389 -40.75544617 247.53521301 -40.64604187 246.52973938 C-40.17875671 244.14717102 -40.17875671 244.14717102 -38.17875671 242.14717102 C-31.90875671 241.81717102 -25.63875671 241.48717102 -19.17875671 241.14717102 C-19.17875671 181.08717102 -19.17875671 121.02717102 -19.17875671 59.14717102 C-29.07875671 59.14717102 -38.97875671 59.14717102 -49.17875671 59.14717102 Z M267.00874329 203.83467102 C262.98317111 209.93053746 261.82124329 214.83416288 261.82124329 222.14717102 C275.35124329 222.14717102 288.88124329 222.14717102 302.82124329 222.14717102 C302.91714308 212.33256928 302.91714308 212.33256928 298.82124329 204.14717102 C293.17513622 198.72827148 288.23458351 196.76775038 280.45405579 196.86982727 C274.78593014 197.46691469 271.06256507 199.9610191 267.00874329 203.83467102 Z M261.82124329 235.14717102 C261.82124329 289.26717102 261.82124329 343.38717102 261.82124329 399.14717102 C266.44124329 399.14717102 271.06124329 399.14717102 275.82124329 399.14717102 C275.82124329 345.02717102 275.82124329 290.90717102 275.82124329 235.14717102 C271.20124329 235.14717102 266.58124329 235.14717102 261.82124329 235.14717102 Z M288.82124329 235.14717102 C288.82124329 289.26717102 288.82124329 343.38717102 288.82124329 399.14717102 C293.44124329 399.14717102 298.06124329 399.14717102 302.82124329 399.14717102 C302.82124329 345.02717102 302.82124329 290.90717102 302.82124329 235.14717102 C298.20124329 235.14717102 293.58124329 235.14717102 288.82124329 235.14717102 Z M-29.17875671 254.14717102 C-31.24842908 262.24977758 -31.24842908 262.24977758 -31.36235046 267.06123352 C-31.65809634 271.38367318 -32.15489931 274.29055004 -34.17875671 278.14717102 C-39.12027667 281.58337948 -45.18279567 282.90354479 -50.91947937 284.46504211 C-54.56011415 285.56423528 -57.72212896 287.36852363 -60.97563171 289.29951477 C-64.35155471 290.59840713 -66.57182776 290.63034219 -70.17875671 290.14717102 C-73.24965108 288.45894302 -75.90150076 286.35275499 -78.61625671 284.14717102 C-79.34779968 283.57482727 -80.07934265 283.00248352 -80.83305359 282.41279602 C-82.62736663 281.00549167 -84.40799037 279.58390861 -86.17875671 278.14717102 C-89.94479541 279.71000084 -92.31514822 282.05351853 -95.16313171 284.93623352 C-95.85381744 285.63116409 -95.85381744 285.63116409 -96.55845642 286.34013367 C-98.02000749 287.81283001 -99.47442839 289.29234505 -100.92875671 290.77217102 C-101.92178282 291.77523424 -102.9152676 292.77784359 -103.90922546 293.77998352 C-106.33773612 296.23047937 -108.75990347 298.68713772 -111.17875671 301.14717102 C-108.14423457 306.64340663 -104.72627831 311.52533414 -100.88578796 316.49873352 C-99.05276179 319.34265056 -98.22340325 320.76891676 -98.17875671 324.14717102 C-99.28226996 326.92347021 -100.4322266 329.44816631 -101.80375671 332.08467102 C-105.08384457 338.46344273 -105.08384457 338.46344273 -107.26469421 345.26826477 C-108.19295341 349.08047456 -108.95108784 351.9081964 -111.17875671 355.14717102 C-115.84328891 357.07645377 -120.18043098 357.6962802 -125.18559265 358.01289368 C-130.5921414 358.04361369 -130.5921414 358.04361369 -135.17875671 360.14717102 C-135.26723414 362.66811179 -135.29402973 365.16147995 -135.27641296 367.68232727 C-135.27499802 368.43557785 -135.27358307 369.18882843 -135.27212524 369.96490479 C-135.26651047 372.37986662 -135.25395554 374.79473703 -135.24125671 377.20967102 C-135.23624361 378.84313323 -135.23168038 380.47659688 -135.22758484 382.11006165 C-135.21653625 386.12246687 -135.19926178 390.13480343 -135.17875671 394.14717102 C-134.49772888 394.24215881 -133.81670105 394.33714661 -133.11503601 394.43501282 C-130.02831388 394.8786814 -126.94777072 395.3562206 -123.86625671 395.83467102 C-122.79440125 395.98355774 -121.72254578 396.13244446 -120.61820984 396.2858429 C-119.5901825 396.45019836 -118.56215515 396.61455383 -117.50297546 396.78388977 C-116.08117981 396.99598083 -116.08117981 396.99598083 -114.63066101 397.21235657 C-111.34022016 398.46687195 -110.6667822 400.02107434 -109.17875671 403.14717102 C-108.17263933 405.68170717 -107.21657888 408.20516376 -106.30375671 410.77217102 C-104.18840675 416.64441473 -101.82457709 422.20585091 -98.86625671 427.71748352 C-97.87163107 431.23258096 -98.64776565 432.84217444 -100.17875671 436.14717102 C-101.92392564 438.87532439 -103.83905144 441.44910524 -105.80375671 444.02217102 C-106.31938171 444.7105304 -106.83500671 445.39888977 -107.36625671 446.10810852 C-108.63001788 447.79312341 -109.90342381 449.47089734 -111.17875671 451.14717102 C-106.50409335 456.77020859 -101.50110004 461.94458656 -96.30375671 467.08467102 C-95.52000671 467.8639093 -94.73625671 468.64314758 -93.92875671 469.44599915 C-92.01437091 471.34871187 -90.09767638 473.24903273 -88.17875671 475.14717102 C-83.00671248 473.23926137 -79.28383872 470.17592645 -75.17094421 466.60420227 C-72.30481764 464.26353223 -70.36084697 463.17335791 -66.67485046 462.64326477 C-62.71253662 463.21436922 -60.11268287 464.3986334 -56.61625671 466.33467102 C-50.55269206 469.59610879 -44.49876158 471.91972553 -37.94438171 474.00654602 C-35.17875671 475.14717102 -35.17875671 475.14717102 -33.17875671 478.14717102 C-32.69218445 480.1842804 -32.69218445 480.1842804 -32.36235046 482.49092102 C-32.23795593 483.32494446 -32.1135614 484.1589679 -31.98539734 485.01826477 C-31.86358093 485.88580383 -31.74176453 486.7533429 -31.61625671 487.64717102 C-31.36720754 489.36624892 -31.11599462 491.08501509 -30.86235046 492.80342102 C-30.75463318 493.56461243 -30.64691589 494.32580383 -30.53593445 495.11006165 C-30.19673822 497.33928924 -30.19673822 497.33928924 -29.17875671 500.14717102 C-17.95875671 500.14717102 -6.73875671 500.14717102 4.82124329 500.14717102 C5.85774425 492.38830213 5.85774425 492.38830213 6.82344055 484.62055969 C7.26811937 481.65364481 7.77540188 478.96234498 8.82124329 476.14717102 C12.00874329 474.06904602 12.00874329 474.06904602 15.82124329 473.14717102 C17.03682922 472.66377258 18.25241516 472.18037415 19.50483704 471.68232727 C20.75603559 471.19117804 22.00733961 470.70029739 23.25874329 470.20967102 C27.40760663 468.57985131 31.46064561 466.90033791 35.38374329 464.77217102 C39.20029719 462.9679819 40.67394961 462.54980405 44.82124329 463.14717102 C47.83722964 464.86899938 50.49228388 466.9761801 53.19624329 469.14717102 C53.93229797 469.71951477 54.66835266 470.29185852 55.42671204 470.88154602 C57.2353649 472.29088592 59.032544 473.71265072 60.82124329 475.14717102 C64.58728198 473.5843412 66.9576348 471.24082352 69.80561829 468.35810852 C70.26607544 467.89482147 70.72653259 467.43153442 71.20094299 466.95420837 C72.66249407 465.48151204 74.11691496 464.00199699 75.57124329 462.52217102 C76.56426939 461.5191078 77.55775418 460.51649845 78.55171204 459.51435852 C80.98022269 457.06386267 83.40239004 454.60720432 85.82124329 452.14717102 C84.57154525 449.50796363 83.22525278 447.21199274 81.43843079 444.90498352 C80.77134094 444.01746399 80.77134094 444.01746399 80.09077454 443.11201477 C79.16197379 441.88662219 78.22444233 440.6677979 77.27827454 439.45576477 C75.18928941 436.64812004 73.92112343 434.6914454 73.28218079 431.20967102 C74.01117689 427.06812796 75.66177311 423.74313591 77.57124329 420.02217102 C80.60999553 413.91348963 83.0321068 408.0065412 84.73921204 401.36982727 C85.82124329 399.14717102 85.82124329 399.14717102 87.78999329 397.93232727 C92.19515842 396.79129867 96.63011079 396.14639374 101.13374329 395.52217102 C104.33061829 395.06842102 107.52749329 394.61467102 110.82124329 394.14717102 C110.82124329 382.92717102 110.82124329 371.70717102 110.82124329 360.14717102 C104.38667573 358.53852913 98.53051224 357.57585146 91.99311829 356.90498352 C88.22646149 356.00506798 87.07966598 355.27190663 84.82124329 352.14717102 C83.63813173 349.49932472 82.75557723 346.78584539 81.88374329 344.02217102 C79.94405542 338.13126714 77.84501732 332.74897662 74.60639954 327.42060852 C73.39873643 323.92379297 73.88489608 321.71652656 74.82124329 318.14717102 C76.44035638 315.30852574 78.36661914 312.77577528 80.38374329 310.20967102 C80.90388 309.52582336 81.42401672 308.84197571 81.95991516 308.1374054 C83.23491753 306.46469586 84.52644194 304.80460207 85.82124329 303.14717102 C84.25841346 299.38113233 81.91489578 297.01077951 79.03218079 294.16279602 C78.56889374 293.70233887 78.10560669 293.24188171 77.62828064 292.76747131 C76.1555843 291.30592024 74.67606926 289.85149934 73.19624329 288.39717102 C72.19318007 287.40414491 71.19057072 286.41066013 70.18843079 285.41670227 C67.73793493 282.98819161 65.28127659 280.56602427 62.82124329 278.14717102 C61.05176527 279.24855198 59.28544124 280.35500121 57.52046204 281.46357727 C56.53650452 282.07918518 55.552547 282.69479309 54.53877258 283.32905579 C52.33008752 284.80673773 50.53018303 286.24981889 48.63374329 288.08467102 C45.68140465 290.24971935 43.8034383 290.937969 40.12983704 290.70185852 C36.16666848 289.74962513 32.76791466 287.73474061 29.20014954 285.80732727 C24.25445545 283.37736197 19.1351763 281.83856152 13.87593079 280.22529602 C10.82124329 279.14717102 10.82124329 279.14717102 8.82124329 277.14717102 C8.227005 274.80879211 8.227005 274.80879211 7.75093079 271.92060852 C7.59350403 270.99167786 7.43607727 270.06274719 7.27388 269.10566711 C7.08325989 267.9231134 6.89263977 266.74055969 6.69624329 265.52217102 C6.07749329 261.76842102 5.45874329 258.01467102 4.82124329 254.14717102 C-6.39875671 254.14717102 -17.61875671 254.14717102 -29.17875671 254.14717102 Z M123.82124329 395.14717102 C122.83124329 398.11717102 121.84124329 401.08717102 120.82124329 404.14717102 C116.60651539 405.90969359 113.06776184 406.15386938 108.56733704 406.40107727 C101.94179191 406.78262986 101.94179191 406.78262986 95.82124329 409.14717102 C91.84859271 413.97186461 88.82124329 421.89991221 88.82124329 428.14717102 C106.76235434 428.24054669 124.70340247 428.31111691 142.64470387 428.35441971 C150.97487312 428.37505896 159.30489154 428.4032054 167.63496399 428.44892883 C174.89412032 428.48875511 182.15316744 428.51459392 189.41242999 428.523525 C193.25742941 428.52874696 197.10211634 428.54104819 200.94701576 428.57009125 C204.56430086 428.59719421 208.18114405 428.60562662 211.79852104 428.59960175 C213.76251223 428.60123095 215.72645503 428.62278054 217.69032288 428.64485168 C218.85560013 428.63935303 220.02087738 428.63385437 221.22146606 428.62818909 C222.74380718 428.63371984 222.74380718 428.63371984 224.29690266 428.63936234 C227.38198658 428.33060919 227.38198658 428.33060919 229.82124329 424.14717102 C229.82124329 414.57717102 229.82124329 405.00717102 229.82124329 395.14717102 C194.84124329 395.14717102 159.86124329 395.14717102 123.82124329 395.14717102 Z M267.82124329 412.14717102 C269.2826717 415.80074205 270.70057284 418.86345524 272.64155579 422.22920227 C273.44399719 423.62622375 273.44399719 423.62622375 274.26264954 425.0514679 C274.81823547 426.01117493 275.37382141 426.97088196 275.94624329 427.95967102 C276.79122375 429.42823547 276.79122375 429.42823547 277.65327454 430.9264679 C279.03968743 433.33506657 280.42909384 435.74188497 281.82124329 438.14717102 C284.7773966 435.38822739 286.84995631 432.71359034 288.83686829 429.19795227 C289.62964172 427.80286438 289.62964172 427.80286438 290.43843079 426.3795929 C290.97725891 425.41601868 291.51608704 424.45244446 292.07124329 423.45967102 C292.62554016 422.48449524 293.17983704 421.50931946 293.75093079 420.5045929 C296.44498513 416.53921015 296.44498513 416.53921015 297.82124329 412.14717102 C287.92124329 412.14717102 278.02124329 412.14717102 267.82124329 412.14717102 Z " fill="#D3D3D3" transform="translate(172.1787567138672,-0.1471710205078125)"/>
<path d="M0 0 C1.54110838 1.50028431 3.06308371 3.02054707 4.5625 4.5625 C5.26890625 5.24828125 5.9753125 5.9340625 6.703125 6.640625 C18.85638373 19.1649756 24.26891579 37.00446812 24.03320312 54.19970703 C23.21022217 73.31650407 15.01642921 90.40893607 1.328125 103.73828125 C-12.71005043 115.86858384 -30.03565076 121.46879408 -48.4765625 120.8515625 C-67.37145617 119.47264521 -83.11800555 111.91018648 -96.1875 98.19140625 C-108.67976499 83.59540913 -114.64863913 65.014566 -113.28515625 45.93017578 C-111.46573249 27.89720527 -103.08249291 11.54808029 -89.4375 -0.4375 C-79.97948993 -7.84826305 -69.27475067 -13.17830305 -57.4375 -15.4375 C-56.79941406 -15.56125 -56.16132813 -15.685 -55.50390625 -15.8125 C-35.68185084 -18.81016433 -15.07016592 -13.21822541 0 0 Z M-86.4375 15.5625 C-96.17790093 27.17458582 -101.08455298 41.04125127 -100.25 56.1875 C-98.72014227 70.94095555 -92.86429644 82.11757 -82.4375 92.5625 C-81.58865234 93.42875 -81.58865234 93.42875 -80.72265625 94.3125 C-70.3251691 104.07444393 -55.72136774 108.25696865 -41.72265625 107.83984375 C-26.31688525 106.53923764 -12.85581805 100.08134461 -2.4375 88.5625 C8.37803138 74.16952363 12.56214879 59.34172243 10.1328125 41.38671875 C6.73086252 25.53195187 -2.48130996 13.29815293 -15.88671875 4.61328125 C-39.0907698 -9.45114913 -68.28315512 -4.21857829 -86.4375 15.5625 Z " fill="#D3D3D3" transform="translate(204.4375,324.4375)"/>
<path d="M0 0 C1.16928543 -0.00701431 2.33857086 -0.01402863 3.54328918 -0.02125549 C5.46192024 -0.00978989 5.46192024 -0.00978989 7.41931152 0.00190735 C8.782855 -0.00052119 10.14639669 -0.00424112 11.50993347 -0.00915527 C15.21035552 -0.01855946 18.91051285 -0.00914295 22.61091423 0.00417686 C26.48344842 0.01549481 30.35596965 0.01138358 34.22851562 0.00942993 C40.73177413 0.00854706 47.23492837 0.01962579 53.73815918 0.03804016 C61.25674684 0.0592077 68.77518177 0.06271762 76.2937932 0.0564782 C83.526505 0.05078333 90.75916302 0.05643165 97.99186707 0.06765175 C101.06993098 0.07229611 104.14796198 0.07317229 107.22602844 0.0710659 C110.8507036 0.06918212 114.47522333 0.07729375 118.09986305 0.0931263 C120.06474961 0.0993921 122.02965975 0.095862 123.99455261 0.09205627 C125.16383804 0.09914108 126.33312347 0.10622589 127.5378418 0.11352539 C128.55399315 0.11557826 129.5701445 0.11763113 130.61708832 0.11974621 C133.3484974 0.38185814 134.9797834 0.88506478 137.2689209 2.3742218 C138.66827103 5.17292207 138.52157495 7.27920972 138.2689209 10.3742218 C137.11151123 12.04181862 137.11151123 12.04181862 135.2689209 13.3742218 C132.69049072 13.75174522 132.69049072 13.75174522 129.53747559 13.75517273 C127.745578 13.76786194 127.745578 13.76786194 125.91748047 13.7808075 C124.60517456 13.7747348 123.29286865 13.76866211 121.9407959 13.7624054 C120.54621977 13.76647003 119.15164687 13.7718113 117.75708008 13.77833557 C113.96784084 13.79202804 110.17884626 13.78670268 106.38960266 13.77719831 C102.4271681 13.76961166 98.46475471 13.77664455 94.50231934 13.78135681 C87.84765861 13.78681728 81.19309772 13.77961516 74.53845215 13.76533508 C66.84089533 13.74900796 59.14357689 13.75429627 51.44602585 13.7708143 C44.84128146 13.78442092 38.23660889 13.78635288 31.63185501 13.77849829 C27.68527569 13.77381722 23.73880848 13.77320877 19.79223633 13.78310776 C16.08216677 13.79176324 12.37240502 13.78578184 8.66236877 13.76842499 C6.64837062 13.76255499 4.63434648 13.77148778 2.62036133 13.7808075 C1.42576294 13.77234802 0.23116455 13.76388855 -0.99963379 13.75517273 C-2.56037628 13.75347611 -2.56037628 13.75347611 -4.15264893 13.75174522 C-6.7310791 13.3742218 -6.7310791 13.3742218 -8.56195068 12.06916237 C-10.5473963 9.19076829 -10.15151292 6.73769232 -9.7310791 3.3742218 C-6.67304586 0.26816982 -4.25795463 -0.00070288 0 0 Z " fill="#D3D3D3" transform="translate(284.7310791015625,139.6257781982422)"/>
<path d="M0 0 C1.80245682 -0.01062721 1.80245682 -0.01062721 3.6413269 -0.02146912 C4.97996558 -0.01917509 6.31860391 -0.01666537 7.65724182 -0.01396179 C9.06152112 -0.01830711 10.46579804 -0.02348966 11.87007141 -0.02944946 C15.6903071 -0.04287043 19.51044405 -0.04341469 23.33069873 -0.04088616 C26.51671527 -0.0398185 29.70271167 -0.04469457 32.88872391 -0.04949158 C40.40353809 -0.06059757 47.9183023 -0.06101812 55.43312073 -0.05497742 C63.19256208 -0.0489361 70.95182218 -0.06125008 78.7112326 -0.08254749 C85.36690284 -0.10014554 92.02251528 -0.10616768 98.67820793 -0.10290974 C102.65611162 -0.1010938 106.63388604 -0.10376385 110.61176872 -0.11762428 C114.35217591 -0.13016887 118.09229996 -0.12829081 121.83270264 -0.11521339 C123.20695655 -0.11284063 124.58123018 -0.11560727 125.9554615 -0.12383652 C127.82851758 -0.13424562 129.7016538 -0.12443335 131.57470703 -0.11352539 C133.14845927 -0.113777 133.14845927 -0.113777 134.75400448 -0.1140337 C137.35084534 0.26069641 137.35084534 0.26069641 139.18841648 1.59658527 C141.00039264 4.19057604 140.73451577 6.19133298 140.35084534 9.26069641 C139.18841648 10.92480755 139.18841648 10.92480755 137.35084534 12.26069641 C134.75400448 12.63542652 134.75400448 12.63542652 131.57470703 12.63491821 C130.37024933 12.64193253 129.16579163 12.64894684 127.92483521 12.65617371 C126.58823992 12.64874587 125.25164629 12.64101472 123.91505432 12.63301086 C122.50900503 12.63543852 121.10295746 12.6391576 119.69691467 12.64407349 C115.87673997 12.65348889 112.05682118 12.64405221 108.23666644 12.63074136 C104.24307379 12.61943821 100.24949394 12.62353343 96.25588989 12.62548828 C89.54995025 12.62637152 82.84411166 12.6152839 76.13819885 12.59687805 C68.37817779 12.57570133 60.61830468 12.57220219 52.85826057 12.57844001 C45.40075753 12.58412836 37.94330674 12.57849483 30.48581123 12.56726646 C27.30840657 12.56261432 24.13103379 12.56174926 20.95362663 12.56385231 C17.21488482 12.56573161 13.47629429 12.55765917 9.73758698 12.54179192 C8.3629195 12.53753822 6.9882367 12.53670577 5.61356544 12.53948212 C3.74237 12.54268878 1.87116567 12.53242514 0 12.52139282 C-1.04879113 12.51933995 -2.09758226 12.51728708 -3.17815495 12.515172 C-5.64915466 12.26069641 -5.64915466 12.26069641 -7.64915466 10.26069641 C-7.91477966 8.38569641 -7.91477966 8.38569641 -7.89915466 6.26069641 C-7.90431091 5.55944641 -7.90946716 4.85819641 -7.91477966 4.13569641 C-7.25776024 -0.50208776 -3.83689547 0.00751021 0 0 Z " fill="#D3D3D3" transform="translate(282.64915466308594,165.7393035888672)"/>
<path d="M0 0 C1.875 1.125 1.875 1.125 3 3 C3.625 5.6875 3.625 5.6875 3 9 C1.67166138 10.80116272 1.67166138 10.80116272 -0.06982422 12.72290039 C-0.70627869 13.42641632 -1.34273315 14.12993225 -1.99847412 14.85476685 C-5.12027774 18.2007124 -8.2904144 21.49202694 -11.5078125 24.74609375 C-12.19632294 25.44267593 -12.88483337 26.13925812 -13.59420776 26.85694885 C-15.03644381 28.31289896 -16.4801557 29.76738851 -17.92529297 31.22045898 C-19.39981336 32.7065988 -20.86982992 34.19721994 -22.33544922 35.69213867 C-24.4665789 37.86575802 -26.61048824 40.02598594 -28.7578125 42.18359375 C-29.41000763 42.85329697 -30.06220276 43.52300018 -30.73416138 44.21299744 C-33.28363782 46.75039884 -35.30551532 48.70708853 -38.64013672 50.11352539 C-45.69173545 49.77429578 -51.02878485 42.48665792 -55.77661133 37.8137207 C-56.80068046 36.81276679 -57.83364189 35.82083059 -58.87524414 34.83813477 C-68.65246543 25.61274151 -68.65246543 25.61274151 -68.85546875 20.41796875 C-68 17 -68 17 -65 15 C-61.87109375 14.34375 -61.87109375 14.34375 -58 15 C-54.65001764 17.4842736 -51.89289015 20.44890248 -49.0625 23.5 C-48.28326172 24.31082031 -47.50402344 25.12164062 -46.70117188 25.95703125 C-44.78403718 27.95649688 -42.88512377 29.97040405 -41 32 C-38.15101954 30.70665553 -36.10820567 29.35207334 -33.91552734 27.12670898 C-33.34168304 26.54948593 -32.76783875 25.97226288 -32.17660522 25.37754822 C-31.56918488 24.75666824 -30.96176453 24.13578827 -30.3359375 23.49609375 C-29.70265533 22.85761002 -29.06937317 22.21912628 -28.41690063 21.56129456 C-26.39812011 19.52472625 -24.38616271 17.48158925 -22.375 15.4375 C-20.35583275 13.39072882 -18.33523099 11.34542734 -16.31167603 9.30299377 C-15.05351851 8.03256434 -13.79804361 6.75947158 -12.54550171 5.48350525 C-8.18058847 1.06836317 -6.29393008 -0.51379021 0 0 Z " fill="#D3D3D3" transform="translate(260,210)"/>
<path d="M0 0 C1.9375 1.125 1.9375 1.125 3 3 C3.625 5.6875 3.625 5.6875 3 9 C1.66767883 10.80885315 1.66767883 10.80885315 -0.0769043 12.73657227 C-1.03141983 13.79172531 -1.03141983 13.79172531 -2.00521851 14.86819458 C-5.07550932 18.14938734 -8.21210519 21.3550516 -11.39453125 24.52734375 C-12.40467537 25.53892296 -12.40467537 25.53892296 -13.43522644 26.57093811 C-14.8432044 27.97959068 -16.25242224 29.38700499 -17.6628418 30.79321289 C-19.82783604 32.95279773 -21.98737256 35.11773882 -24.14648438 37.28320312 C-25.52051237 38.6565712 -26.89485006 40.02962951 -28.26953125 41.40234375 C-28.91533646 42.05017319 -29.56114166 42.69800262 -30.22651672 43.36546326 C-31.12336433 44.25758263 -31.12336433 44.25758263 -32.03833008 45.16772461 C-32.56348709 45.69208603 -33.0886441 46.21644745 -33.62971497 46.75669861 C-35.59318144 48.53821161 -37.005867 49.00111752 -39.625 49.5 C-43.30607539 48.9546555 -44.02609986 48.39862992 -46.68359375 45.98828125 C-47.38419922 45.35293457 -48.08480469 44.71758789 -48.80664062 44.06298828 C-52.41586556 40.66829208 -55.94382325 37.20071268 -59.4375 33.6875 C-60.15615234 32.97271484 -60.87480469 32.25792969 -61.61523438 31.52148438 C-62.29779297 30.83763672 -62.98035156 30.15378906 -63.68359375 29.44921875 C-64.29775146 28.83393311 -64.91190918 28.21864746 -65.54467773 27.5847168 C-67.78664362 25.14341491 -68.00484146 23.95561992 -68.375 20.5625 C-68 17 -68 17 -65.875 14.9375 C-61.96120654 13.661263 -60.74396079 14.24611183 -57 16 C-54.00695095 18.51753511 -51.32437308 21.29871246 -48.625 24.125 C-47.88894531 24.87910156 -47.15289062 25.63320312 -46.39453125 26.41015625 C-44.58694417 28.26469365 -42.7893841 30.12792129 -41 32 C-38.09771438 30.69270035 -36.09353558 29.32079841 -33.90307617 27.01904297 C-33.32534958 26.41857147 -32.74762299 25.81809998 -32.15238953 25.19943237 C-31.53878067 24.55354156 -30.92517181 23.90765076 -30.29296875 23.2421875 C-28.97145721 21.88077803 -27.6491673 20.52012375 -26.32617188 19.16015625 C-24.25105316 17.01694041 -22.18181031 14.86901859 -20.12573242 12.70751953 C-18.13483037 10.61972675 -16.12239282 8.55481043 -14.10546875 6.4921875 C-13.49793259 5.84224823 -12.89039642 5.19230896 -12.26445007 4.52267456 C-8.28017394 0.49100847 -5.92479037 -0.88783073 0 0 Z " fill="#D3D3D3" transform="translate(260,135)"/>
<path d="M0 0 C2.33146068 3.49719102 2.46497085 4.88504261 2 9 C0.52182007 11.24008179 0.52182007 11.24008179 -1.57666016 13.35302734 C-2.35812408 14.15340424 -3.13958801 14.95378113 -3.94473267 15.77841187 C-4.80086151 16.62239532 -5.65699036 17.46637878 -6.5390625 18.3359375 C-7.84948013 19.65496567 -7.84948013 19.65496567 -9.18637085 21.00064087 C-11.51073549 23.3301325 -13.84912499 25.64439541 -16.19274902 27.95446777 C-17.62380652 29.37381629 -19.04262204 30.80429853 -20.45751953 32.23974609 C-23.17721647 34.99648447 -25.91684394 37.73165261 -28.6640625 40.4609375 C-29.93003769 41.74513077 -29.93003769 41.74513077 -31.22158813 43.05526733 C-32.02196503 43.83673126 -32.82234192 44.61819519 -33.64697266 45.42333984 C-34.34424469 46.11583832 -35.04151672 46.80833679 -35.75991821 47.52182007 C-38.7048906 49.46514156 -40.53606858 49.42798512 -44 49 C-46.29051435 47.3192247 -48.08813555 45.77823598 -50.0546875 43.77734375 C-50.60109894 43.23904434 -51.14751038 42.70074493 -51.71047974 42.14613342 C-52.85904518 41.00601407 -54.00002991 39.85821325 -55.13378906 38.70336914 C-56.86814305 36.94445406 -58.63433431 35.22292624 -60.40625 33.50195312 C-61.52032487 32.38750774 -62.63237549 31.27103434 -63.7421875 30.15234375 C-64.27020966 29.64162827 -64.79823181 29.13091278 -65.34225464 28.60472107 C-68.08377452 25.75586893 -68.97697194 24.21724453 -69.39892578 20.23657227 C-69 17 -69 17 -67.875 15.0625 C-65.11116024 13.49632414 -63.13655224 13.69036041 -60 14 C-57.66650391 15.65234375 -57.66650391 15.65234375 -55.4765625 17.9375 C-54.68378906 18.74960938 -53.89101562 19.56171875 -53.07421875 20.3984375 C-52.26597656 21.25695312 -51.45773438 22.11546875 -50.625 23 C-49.79355469 23.85851562 -48.96210938 24.71703125 -48.10546875 25.6015625 C-46.05617162 27.72152505 -44.02215975 29.85418984 -42 32 C-39.10326019 30.69001173 -37.05188193 29.29513935 -34.82373047 27.03491211 C-33.93293289 26.1390464 -33.93293289 26.1390464 -33.0241394 25.2250824 C-32.39484528 24.58232864 -31.76555115 23.93957489 -31.1171875 23.27734375 C-30.46170929 22.61666397 -29.80623108 21.95598419 -29.13088989 21.27528381 C-27.04078373 19.16738574 -24.95749438 17.05291634 -22.875 14.9375 C-20.7845016 12.8194003 -18.69256959 10.70276818 -16.59768677 8.58900452 C-15.29501617 7.27405934 -13.99502781 5.95645058 -12.69796753 4.63597107 C-12.1104068 4.04187943 -11.52284607 3.44778778 -10.91748047 2.83569336 C-10.40103973 2.3109996 -9.884599 1.78630585 -9.35250854 1.24571228 C-6.2386066 -1.62231092 -3.93954673 -0.98488668 0 0 Z " fill="#D3D3D3" transform="translate(261,60)"/>
</svg>
