<?xml version="1.0" encoding="UTF-8"?>
<svg version="1.1" xmlns="http://www.w3.org/2000/svg" width="512" height="512">
<path d="M0 0 C1.90737378 -0.00679667 1.90737378 -0.00679667 3.85328037 -0.01373065 C7.37161487 -0.02593393 10.88985409 -0.02570334 14.40820491 -0.02334189 C18.20727105 -0.02293304 22.00630692 -0.03397945 25.80535889 -0.04345703 C33.24471119 -0.06005389 40.6840318 -0.065566 48.12340107 -0.06668179 C54.17290726 -0.06763299 60.22240301 -0.07174689 66.2719059 -0.07808304 C83.43507506 -0.09569272 100.59821924 -0.10492247 117.7613975 -0.10342209 C118.68622962 -0.10334218 119.61106174 -0.10326227 120.56391907 -0.10317993 C121.48988464 -0.10309817 122.41585021 -0.10301641 123.36987535 -0.10293217 C138.37017463 -0.10211959 153.37037342 -0.12125085 168.37064364 -0.14945666 C183.78429949 -0.17821032 199.19790638 -0.19199556 214.61158973 -0.19026911 C223.26053951 -0.18960602 231.90938398 -0.19506294 240.55830956 -0.21662521 C247.92351712 -0.2348698 255.28857163 -0.2391576 262.65379205 -0.22560637 C266.4082535 -0.21909287 270.16242162 -0.21890036 273.91685486 -0.23631287 C277.99597812 -0.25503579 282.0744273 -0.24244685 286.15356445 -0.22705078 C287.32781139 -0.23733791 288.50205832 -0.24762503 289.71188849 -0.25822389 C303.56849335 -0.14303232 314.05300085 4.57873976 324.20674133 13.82992554 C324.92861633 14.63430054 325.65049133 15.43867554 326.39424133 16.26742554 C327.63174133 17.59773804 327.63174133 17.59773804 328.89424133 18.95492554 C336.83333814 28.64713521 339.51609617 40.43134639 339.52287579 52.69135761 C339.52462882 53.40893225 339.52638186 54.12650689 339.52818802 54.86582622 C339.53283142 57.26479295 339.53038681 59.66369863 339.5279541 62.06266785 C339.52982291 63.80224856 339.53212389 65.54182886 339.53481942 67.28140849 C339.54093518 72.05775585 339.54080409 76.8340857 339.53962505 81.61043608 C339.53942099 86.76324777 339.54494031 91.91605384 339.54968262 97.06886292 C339.5579884 107.1625427 339.56073742 117.25621665 339.561295 127.34989957 C339.56177017 135.55426319 339.56382499 143.75862489 339.56699562 151.9629879 C339.57580184 175.22341219 339.58041502 198.48383187 339.57966515 221.74425784 C339.57960521 223.62514846 339.57960521 223.62514846 339.57954407 225.54403687 C339.57950319 226.79949468 339.57946231 228.0549525 339.57942019 229.3484545 C339.57901368 249.69788705 339.58858449 270.04730111 339.60268243 290.39672831 C339.61704359 311.29092882 339.62395277 332.18512029 339.62308866 353.07932585 C339.62275661 364.81002597 339.62550722 376.54070669 339.63626671 388.27140236 C339.64536825 398.25849553 339.64754978 408.24556052 339.64075729 418.23265604 C339.63749041 423.32750867 339.63744151 428.4223072 339.64611053 433.51715469 C339.6539689 438.18358159 339.65255085 442.84991142 339.6438264 447.51633593 C339.64228997 449.2020274 339.64411299 450.8877261 339.64968648 452.57340906 C339.7035286 470.01682246 337.45021045 484.79772715 325.39424133 498.26742554 C314.24823416 508.30804357 303.54240399 512.42194303 288.79121399 512.40786743 C287.81858423 512.41083855 286.84595448 512.41380968 285.84385109 512.41687083 C282.5819933 512.42554839 279.32017225 512.42706527 276.05830383 512.42855835 C273.72088035 512.43318705 271.38345762 512.43821178 269.04603577 512.44360352 C262.69495929 512.45672123 256.34389338 512.46317081 249.99280548 512.46761417 C246.02694557 512.47054484 242.06108856 512.47464956 238.0952301 512.47911835 C227.11302319 512.49122343 216.1308188 512.5016077 205.14860535 512.50499344 C204.44624728 512.505213 203.74388922 512.50543257 203.02024758 512.50565879 C202.31622775 512.50587707 201.61220793 512.50609535 200.88685417 512.50632024 C199.4602801 512.5067637 198.03370603 512.50721027 196.60713196 512.50765991 C195.8995047 512.50788134 195.19187745 512.50810277 194.46280694 512.50833091 C182.98838888 512.51228172 171.51403422 512.52974664 160.03964067 512.55301943 C148.2568164 512.57672493 136.47402397 512.58919484 124.69117546 512.59036136 C118.07631141 512.59141107 111.46153688 512.59735473 104.84669495 512.61518097 C98.62836763 512.63161333 92.41019762 512.63384069 86.19185638 512.62504196 C83.90734182 512.62426909 81.62281895 512.62864699 79.3383255 512.63850021 C76.22445056 512.65114526 73.11113913 512.64538339 69.99726868 512.63491821 C69.08919779 512.64297462 68.1811269 512.65103102 67.24553871 512.65933156 C61.43122044 512.61349529 58.05959107 511.68720373 53.65596008 507.68930054 C53.1364679 507.13758179 52.61697571 506.58586304 52.08174133 506.01742554 C49.72103091 503.56322245 47.30029454 501.27560595 44.70820618 499.06840515 C40.17615443 495.13032303 35.92617835 490.94713626 31.68330383 486.70175171 C30.43797127 485.46145706 30.43797127 485.46145706 29.16748047 484.19610596 C26.44876924 481.4868258 23.73378044 478.77385423 21.01924133 476.06039429 C19.60411403 474.64766889 18.18898576 473.23494445 16.77373219 471.82234555 C12.33835072 467.3950663 7.9057827 462.96498372 3.47480774 458.53329468 C-1.09688685 453.96099634 -5.67416428 449.39433925 -10.25401688 444.83021373 C-14.19401015 440.90326896 -18.13016609 436.97250608 -22.06332016 433.03871137 C-24.40944401 430.69233228 -26.7575546 428.34800421 -29.10862732 426.00658226 C-31.72048532 423.40445435 -34.32601157 420.79614893 -36.92997742 418.18612671 C-38.10334404 417.02118935 -38.10334404 417.02118935 -39.30041504 415.8327179 C-40.00405685 415.12488159 -40.70769867 414.41704529 -41.43266296 413.6877594 C-42.04909164 413.07187549 -42.66552032 412.45599157 -43.30062866 411.82144451 C-44.60575867 410.26742554 -44.60575867 410.26742554 -44.60575867 408.26742554 C-45.26575867 408.26742554 -45.92575867 408.26742554 -46.60575867 408.26742554 C-46.60575867 407.60742554 -46.60575867 406.94742554 -46.60575867 406.26742554 C-47.59575867 405.93742554 -48.58575867 405.60742554 -49.60575867 405.26742554 C-51.86319525 398.74440453 -52.02884973 392.23944888 -52.22267151 385.38664246 C-52.279095 383.67485297 -52.279095 383.67485297 -52.33665836 381.92848188 C-52.70746646 369.73948393 -52.74665974 357.55352102 -52.7351532 345.35995483 C-52.73651341 342.8868253 -52.73829678 340.41369597 -52.74046326 337.94056702 C-52.7445081 331.97996956 -52.74397183 326.01938376 -52.74105062 320.05878665 C-52.73876152 315.17775322 -52.73849897 310.29672329 -52.73957443 305.41568947 C-52.73972767 304.71198944 -52.7398809 304.00828942 -52.74003877 303.28326515 C-52.74035864 301.85168649 -52.74068286 300.42010784 -52.74101137 298.98852918 C-52.74384961 285.61996375 -52.74060999 272.25140521 -52.735211 258.88284091 C-52.73078667 247.58289093 -52.73154547 236.28295147 -52.73612976 224.98300171 C-52.7810407 110.23092767 -52.7810407 110.23092767 -52.30842352 69.18875146 C-52.28585466 67.0752112 -52.268373 64.96168935 -52.252491 62.84808922 C-52.22086234 59.11094863 -52.17051081 55.37460754 -52.11308289 51.63778687 C-52.10408525 50.08887347 -52.10408525 50.08887347 -52.09490585 48.5086689 C-51.82692289 35.31192153 -47.07557716 23.69490963 -38.04325867 14.01742554 C-26.78739863 3.33966103 -15.01071216 -0.03921985 0 0 Z M-14.60575867 39.26742554 C-18.74619587 45.18700602 -18.0140142 51.66731544 -17.96652222 58.59295654 C-17.967831 59.96757041 -17.97045876 61.34218355 -17.97428972 62.7167927 C-17.98099242 66.48865527 -17.9690051 70.26026189 -17.95395553 74.03209186 C-17.94099628 78.10155392 -17.94538455 82.17100163 -17.94766235 86.24047852 C-17.94923516 93.28930453 -17.9398252 100.33804721 -17.92294884 107.38685226 C-17.89856438 117.57821887 -17.89075413 127.7695452 -17.88698486 137.96093781 C-17.88041951 154.49590318 -17.86045607 171.03082413 -17.83207703 187.56576538 C-17.80453863 203.62761208 -17.78330397 219.68944671 -17.77055359 235.75131226 C-17.76976542 236.74141845 -17.76897725 237.73152464 -17.76816519 238.75163405 C-17.76425007 243.71872182 -17.76045895 248.68580968 -17.75672948 253.6528976 C-17.72563097 294.85777113 -17.67279287 336.06259579 -17.60575867 377.26742554 C-16.53358093 377.27107117 -15.4614032 377.2747168 -14.35673523 377.2784729 C-4.23433957 377.31547301 5.88775327 377.37330059 16.00991821 377.45132828 C21.21339651 377.4907756 26.41670626 377.52297762 31.62031555 377.53842163 C36.64556333 377.55360618 41.67034769 377.58808394 46.69538879 377.63573456 C48.60900333 377.65052976 50.52268404 377.65846548 52.43635559 377.65930939 C55.12463836 377.66168641 57.81164803 377.68882453 60.49971008 377.7215271 C61.28446213 377.71649673 62.06921417 377.71146637 62.87774658 377.70628357 C68.4078939 377.80983259 72.80385714 379.10308321 77.39424133 382.26742554 C81.9395909 387.97824935 82.54877329 392.51048171 82.5995636 399.59432983 C82.6094632 400.44332855 82.61936279 401.29232727 82.62956238 402.16705322 C82.66116717 404.97522181 82.68593081 407.78340732 82.71064758 410.59164429 C82.73121799 412.53792258 82.75221448 414.48419642 82.77362061 416.4304657 C82.82883232 421.55471181 82.8782456 426.67899819 82.9264679 431.80331421 C82.97668946 437.03162217 83.03237211 442.25987162 83.08760071 447.48812866 C83.19517128 457.74784431 83.29661874 468.00761075 83.39424133 478.26742554 C110.80156636 478.36083055 138.20886757 478.43138602 165.61631966 478.47467422 C178.34182681 478.49530713 191.06723512 478.52344181 203.79267883 478.56918335 C214.88303883 478.60902862 225.97332724 478.63485304 237.06375682 478.64377952 C242.93710176 478.64899813 248.81024191 478.66127923 254.68352127 478.69034576 C260.21072076 478.71747817 265.73763091 478.72587483 271.26489067 478.71985626 C273.29420862 478.72095746 275.32353616 478.72892414 277.35279655 478.74424744 C280.12299981 478.76414114 282.89210985 478.75936687 285.66233826 478.7484436 C286.4658513 478.76009497 287.26936434 478.77174634 288.09722626 478.78375077 C293.31276618 478.72814066 296.25250827 477.70576984 300.39424133 474.26742554 C304.88224431 468.4451514 305.51850396 464.53116693 305.5256691 457.30075455 C305.52772173 456.59617249 305.52977437 455.89159043 305.5318892 455.1656574 C305.53756622 452.79284474 305.53610109 450.42009 305.53468323 448.04727173 C305.53726646 446.33360342 305.5402795 444.61993571 305.54368663 442.90626884 C305.55176478 438.18769342 305.55354665 433.46913321 305.5542841 428.7505517 C305.55613323 423.66520942 305.56367984 418.57987506 305.57041931 413.49453735 C305.58400878 402.37062597 305.59002826 391.24671818 305.59442997 380.12279987 C305.59719126 373.17910244 305.6014284 366.23540639 305.60593414 359.2917099 C305.61812743 340.07260856 305.62842674 320.85350835 305.63180923 301.63440323 C305.6320288 300.40402993 305.63224837 299.17365663 305.63247459 297.90599929 C305.63269286 296.672657 305.63291114 295.43931471 305.63313603 294.16859841 C305.6335795 291.66931422 305.63402607 289.17003004 305.63447571 286.67074585 C305.63469714 285.43101059 305.63491857 284.19127534 305.63514671 282.91397235 C305.6390955 262.82165019 305.65655175 242.72936429 305.67983523 222.63705614 C305.7035384 202.01642315 305.71601061 181.39580835 305.71717715 160.7751615 C305.71809448 149.19425721 305.72386125 137.61340015 305.74199677 126.03250885 C305.75738375 116.1719054 305.76252648 106.31136379 305.75425866 96.45075062 C305.75034725 91.41892304 305.75130577 86.38722003 305.76531601 81.35540771 C305.77802528 76.74875628 305.77688358 72.1423234 305.7647253 67.5356724 C305.76276314 65.86944054 305.76587061 64.20319335 305.77456966 62.53698304 C306.14085658 48.93551292 306.14085658 48.93551292 299.70674133 37.39242554 C292.45595182 32.74097566 284.82473475 32.97958722 276.47651672 33.01345825 C274.69838514 33.00877828 274.69838514 33.00877828 272.8843317 33.00400376 C269.61134393 32.99742796 266.33850565 32.99976592 263.06552172 33.0059762 C259.52899937 33.01051324 255.99249678 33.00351073 252.45597839 32.99801636 C245.53479257 32.98913406 238.61365019 32.99103918 231.69246268 32.99684164 C226.06628803 33.0013627 220.44012553 33.00196911 214.81394958 32.99979401 C214.01248853 32.99948754 213.21102747 32.99918107 212.38527972 32.99886532 C210.75700783 32.99822586 209.12873596 32.99757743 207.50046408 32.99692014 C192.24055466 32.99122025 176.98066928 32.99776938 161.7207638 33.00852087 C148.63372083 33.01745607 135.54671335 33.01590393 122.45967102 33.00668335 C107.25348928 32.99597469 92.0473286 32.99176954 76.84114361 32.99790788 C75.2189401 32.99854496 73.59673659 32.9991737 71.97453308 32.99979401 C71.1764267 33.00010256 70.37832032 33.00041111 69.5560289 33.00072901 C63.93813989 33.00245416 58.32026426 32.99954472 52.70237732 32.9948349 C45.8538703 32.98921945 39.00540911 32.99075648 32.15690732 33.00139639 C28.66427542 33.00664416 25.17171988 33.00872513 21.67908859 33.00209808 C17.88997147 32.99663576 14.10106936 33.00348548 10.31196594 33.01345825 C8.66254297 33.00676609 8.66254297 33.00676609 6.97979832 32.99993873 C-1.0252192 33.04082294 -8.69228178 33.18499217 -14.60575867 39.26742554 Z M6.39424133 411.26742554 C11.25620142 416.96769169 11.25620142 416.96769169 16.36421204 422.36679077 C17.08127823 423.08700912 17.79834442 423.80722748 18.53713989 424.54927063 C19.29049118 425.30059769 20.04384247 426.05192474 20.82002258 426.82601929 C21.60821884 427.61517227 22.3964151 428.40432526 23.20849609 429.21739197 C24.86203779 430.87161028 26.51682743 432.52458203 28.17280579 434.17636108 C30.71979085 436.71794739 33.26134163 439.26488143 35.80244446 441.81234741 C37.41214957 443.42139249 39.02216444 445.03012776 40.63252258 446.63851929 C41.39599503 447.40401596 42.15946747 448.16951263 42.94607544 448.95820618 C43.64738083 449.65635941 44.34868622 450.35451263 45.07124329 451.07382202 C45.69046158 451.69224472 46.30967987 452.31066742 46.94766235 452.9478302 C48.19103277 454.37974832 48.19103277 454.37974832 49.39424133 454.26742554 C49.39424133 440.07742554 49.39424133 425.88742554 49.39424133 411.26742554 C35.20424133 411.26742554 21.01424133 411.26742554 6.39424133 411.26742554 Z " fill="#D3D3D3" transform="translate(112.60575866699219,-0.267425537109375)"/>
<path d="M0 0 C0.79321146 -0.00367669 1.58642292 -0.00735338 2.40367109 -0.01114148 C5.0704969 -0.0221839 7.73728376 -0.02602311 10.40412903 -0.02983093 C12.31275049 -0.03609519 14.22137073 -0.04274195 16.12998962 -0.04974365 C21.32232805 -0.06715738 26.51465727 -0.07770657 31.70701766 -0.08594918 C34.95092348 -0.09109886 38.19482644 -0.09717463 41.43873024 -0.10346031 C51.58778911 -0.12251398 61.7368407 -0.13674439 71.88591403 -0.14507228 C83.60180426 -0.15484444 95.31750554 -0.18116278 107.03332919 -0.22157317 C116.08821848 -0.25173371 125.1430536 -0.26654112 134.19799215 -0.26985329 C139.60633524 -0.27220395 145.01447652 -0.28116646 150.42276573 -0.30631447 C155.51255974 -0.32959882 160.6020191 -0.33382686 165.69185257 -0.32355309 C167.55746003 -0.3230577 169.42308398 -0.32937901 171.28864098 -0.34310913 C173.84126402 -0.360841 176.3926878 -0.353716 178.9453125 -0.34057617 C180.04539124 -0.35703004 180.04539124 -0.35703004 181.16769379 -0.37381631 C186.54584616 -0.30725543 190.82512501 1.09898266 195.29011536 4.14717102 C199.34966506 9.24763091 200.65445997 13.41161649 200.57136536 19.79951477 C199.96991324 24.81996926 197.40907626 28.1100853 193.72761536 31.52217102 C189.40681408 34.4027052 185.51338538 34.29775702 180.50430298 34.30107117 C179.30223513 34.30764455 179.30223513 34.30764455 178.07588309 34.31435072 C175.38142234 34.32774159 172.68699431 34.33391824 169.99250793 34.34004211 C168.06418205 34.34794287 166.13585764 34.35621181 164.20753479 34.36482239 C157.86658643 34.39104619 151.52563146 34.40635069 145.18464661 34.42060852 C143.00214318 34.42596811 140.8196398 34.43134562 138.63713646 34.43674088 C129.5585592 34.45837039 120.47998372 34.47710711 111.40138721 34.48836327 C98.38919438 34.50460238 85.37730015 34.53777863 72.36521989 34.59476411 C63.2169147 34.63346285 54.06868938 34.65299591 44.92030448 34.65828383 C39.45601957 34.66193744 33.99205314 34.67395998 28.52785683 34.70638657 C23.38548423 34.73646568 18.24362284 34.74277943 13.10118103 34.73100281 C11.21621482 34.73078206 9.33122491 34.73908813 7.44634056 34.75665665 C4.86722987 34.77938276 2.28996754 34.77103829 -0.28915405 34.75517273 C-1.40090564 34.77599586 -1.40090564 34.77599586 -2.53511685 34.79723966 C-8.22462894 34.71134995 -12.37520756 32.85055793 -16.70988464 29.14717102 C-20.14318822 24.37515079 -21.46418727 20.07383453 -20.70988464 14.14717102 C-18.9068484 8.10169657 -15.83397688 4.61757894 -10.70988464 1.14717102 C-7.08708896 -0.06042754 -3.77149067 -0.00093389 0 0 Z " fill="#D3D3D3" transform="translate(165.7098846435547,308.8528289794922)"/>
<path d="M0 0 C1.21515356 -0.00551503 1.21515356 -0.00551503 2.45485568 -0.01114148 C5.1847335 -0.02220424 7.9145733 -0.02602654 10.64447021 -0.02983093 C12.59559755 -0.03609363 14.54672369 -0.04274025 16.49784851 -0.04974365 C21.80994284 -0.06717144 27.12202817 -0.07771026 32.43414402 -0.08594918 C35.75123057 -0.09109557 39.0683143 -0.09717146 42.38539886 -0.10346031 C52.7587102 -0.12251735 63.13201438 -0.13674739 73.50533986 -0.14507228 C85.4889706 -0.15484759 97.47241676 -0.18117272 109.45598245 -0.22157317 C118.71209251 -0.25171012 127.96814959 -0.26653886 137.22430778 -0.26985329 C142.75556094 -0.27220655 148.28661705 -0.28120278 153.81781769 -0.30631447 C159.02167796 -0.32955777 164.22521089 -0.33384344 169.42910957 -0.32355309 C171.33909505 -0.3230567 173.24909643 -0.32940719 175.15903282 -0.34310913 C177.76714158 -0.36077275 180.3740686 -0.35374948 182.98217773 -0.34057617 C183.73763516 -0.35154542 184.49309258 -0.36251466 185.27144265 -0.37381631 C190.4063501 -0.31121999 193.27926072 0.9335036 197.24505615 4.14717102 C201.57962418 8.950341 202.55826923 12.55942435 202.45599365 18.86982727 C202.00203745 23.77087299 199.89821154 26.49401563 196.49505615 29.89717102 C190.80242488 33.83822344 185.0962523 34.44398143 178.31990051 34.40113831 C177.55185622 34.40425829 176.78381193 34.40737827 175.99249357 34.41059279 C173.43475589 34.41853074 170.87725823 34.41226563 168.31951904 34.40596008 C166.47927207 34.40867183 164.63902619 34.4122338 162.79878235 34.4165802 C157.81118832 34.42568517 152.82367719 34.42216756 147.83608174 34.41582203 C142.61078626 34.4107515 137.38549779 34.41545648 132.16020203 34.41859436 C123.38484425 34.42223125 114.60952015 34.4174425 105.83416748 34.40791321 C95.69752872 34.39703259 85.56097044 34.40055251 75.42433363 34.41156602 C66.71330454 34.42065082 58.00229964 34.42191823 49.29126734 34.41668868 C44.09208923 34.41357511 38.89294892 34.41314273 33.69377327 34.41976166 C28.80425576 34.4255517 23.91484168 34.42150785 19.02533531 34.40997314 C17.23391517 34.40733529 15.44248627 34.40807668 13.65106964 34.41249847 C11.19966189 34.41799007 8.74858246 34.41107625 6.29719543 34.40113831 C5.59377472 34.40559975 4.89035401 34.41006119 4.16561753 34.41465783 C-2.19666453 34.36487096 -7.69375004 33.50833675 -13.06744385 29.95967102 C-16.95888342 25.88723426 -18.484186 22.27455407 -19.19244385 16.70967102 C-18.47851021 10.89621136 -16.42695418 6.69975204 -12.12994385 2.70967102 C-7.985773 -0.01675717 -4.84913935 -0.00116957 0 0 Z " fill="#D3D3D3" transform="translate(163.75494384765625,224.8528289794922)"/>
<path d="M0 0 C4.75982924 2.62772498 7.04616381 6.26349144 8.75 11.375 C9.37220967 18.71707414 7.79030606 23.67842875 3.07338333 29.41352272 C1.0216279 31.61452314 -1.08662131 33.74084982 -3.22802734 35.85473633 C-4.02852005 36.66063202 -4.82901276 37.46652771 -5.65376282 38.29684448 C-8.28802572 40.94355925 -10.93645606 43.57555778 -13.5859375 46.20703125 C-15.42738488 48.04863368 -17.26816492 49.89090361 -19.10830688 51.73381042 C-22.95976235 55.5879605 -26.81918999 59.43398195 -30.68359375 63.27514648 C-35.14301261 67.70793199 -39.58984016 72.15304788 -44.03008878 76.60502988 C-48.31488106 80.90062089 -52.60818088 85.18759542 -56.90538406 89.47076988 C-58.72789494 91.28876805 -60.54832338 93.10885632 -62.36661911 94.93107033 C-64.90819785 97.47556147 -67.45927493 100.01012888 -70.01318359 102.54223633 C-70.76143906 103.29499344 -71.50969452 104.04775055 -72.28062439 104.82331848 C-77.26269028 109.73497546 -81.83808423 113.80058847 -89.1875 113.8125 C-89.98027344 113.83183594 -90.77304688 113.85117188 -91.58984375 113.87109375 C-99.21243264 112.44955368 -104.44029445 106.6520268 -109.703125 101.390625 C-110.48516296 100.61620056 -111.26720093 99.84177612 -112.07293701 99.04388428 C-113.7171863 97.41039917 -115.3575231 95.77296738 -116.99414062 94.13183594 C-119.49215531 91.63284774 -122.01074057 89.15596022 -124.53125 86.6796875 C-126.13150801 85.08463619 -127.73050957 83.48832313 -129.328125 81.890625 C-130.07813782 81.15700745 -130.82815063 80.42338989 -131.60089111 79.6675415 C-136.57218313 74.62996751 -139.84821743 70.12333942 -140.46484375 62.8359375 C-139.60761414 56.38860495 -137.53515597 52.54589817 -132.75 48 C-127.6707711 45.64178658 -122.75518972 45.43085649 -117.25 46.375 C-110.07920477 49.46556065 -105.18710502 55.09948814 -99.8125 60.625 C-98.89017578 61.56085938 -97.96785156 62.49671875 -97.01757812 63.4609375 C-94.75474015 65.75894912 -92.49923435 68.06368487 -90.25 70.375 C-85.90971623 68.71816629 -83.04110037 65.4022045 -79.86425781 62.15283203 C-78.91705368 61.19642822 -78.91705368 61.19642822 -77.95071411 60.22070312 C-76.58120292 58.83689654 -75.21394043 57.45086168 -73.84867096 56.06287003 C-71.68406441 53.86344532 -69.51240923 51.67121617 -67.33856201 49.48092651 C-61.15920366 43.25270318 -54.99100342 37.01351905 -48.83203125 30.76513672 C-45.06235589 26.94174296 -41.28287279 23.12827183 -37.49727631 19.32064438 C-36.05982939 17.87081828 -34.62618371 16.41721275 -33.19651031 14.95972061 C-31.19127261 12.91582771 -29.17380685 10.88476147 -27.15332031 8.85595703 C-26.28016678 7.95651871 -26.28016678 7.95651871 -25.38937378 7.03890991 C-18.10599956 -0.21057354 -9.96479117 -4.39188944 0 0 Z " fill="#D3D3D3" transform="translate(330.25,68.625)"/>
<path d="M0 0 C0.9714949 -0.00571014 1.94298981 -0.01142029 2.94392395 -0.01730347 C4.54063431 -0.01898026 4.54063431 -0.01898026 6.16960144 -0.02069092 C7.8529232 -0.02813828 7.8529232 -0.02813828 9.57025146 -0.03573608 C13.29111845 -0.05036817 17.01194281 -0.05716145 20.73283386 -0.06268311 C23.31492108 -0.06843365 25.89700828 -0.0741914 28.47909546 -0.07995605 C33.20430788 -0.08912474 37.92950321 -0.09542386 42.65472299 -0.09845281 C49.60333082 -0.10293177 56.55174176 -0.12047325 63.50028974 -0.1494534 C69.52362026 -0.17370033 75.54685785 -0.18139837 81.57024193 -0.18312836 C84.13030252 -0.18615697 86.69036225 -0.19419246 89.25039101 -0.20731354 C92.83168597 -0.22435873 96.41250118 -0.2224972 99.99382019 -0.21600342 C101.05222107 -0.2252182 102.11062195 -0.23443298 103.20109558 -0.243927 C109.41686243 -0.20860234 114.12098222 0.262886 118.92033386 4.64044189 C123.16421531 10.09077794 124.05172005 14.38668163 123.27580261 21.14044189 C121.86339429 25.74085756 120.02026381 28.53556717 116.27580261 31.57794189 C112.24182233 33.67897329 109.07944965 34.26403041 104.55870056 34.28761292 C103.14159538 34.29834587 103.14159538 34.29834587 101.69586182 34.30929565 C100.15133583 34.31332901 100.15133583 34.31332901 98.5756073 34.31744385 C96.94077644 34.32730064 96.94077644 34.32730064 95.2729187 34.33735657 C91.6645043 34.35707442 88.05613148 34.36874849 84.44767761 34.37872314 C83.21465157 34.38279867 81.98162552 34.3868742 80.71123505 34.39107323 C74.85822869 34.40977776 69.00523864 34.42434534 63.15220809 34.4326852 C56.41071954 34.44245137 49.66955986 34.46875978 42.92818713 34.50918609 C37.07732901 34.54306026 31.22658059 34.55483631 25.37563324 34.55888939 C22.89257323 34.56375782 20.4095168 34.57537902 17.9265213 34.59392738 C14.44860713 34.61829432 10.97154959 34.61735778 7.49357605 34.6104126 C6.47198898 34.62322266 5.45040192 34.63603271 4.39785767 34.64923096 C-1.80999012 34.60414159 -6.55979599 33.73335126 -11.72419739 30.14044189 C-16.58975988 25.02536338 -17.07750191 20.6941707 -17.00544739 13.86700439 C-16.47882559 8.76169865 -13.83257092 6.14068142 -10.16169739 2.82794189 C-6.70250618 0.43311721 -4.1012007 0.0144398 0 0 Z " fill="#D3D3D3" transform="translate(242.7241973876953,393.85955810546875)"/>
</svg>
